<?xml version="1.0" encoding="utf-8"?>
<!-- Generator: Adobe Illustrator 27.7.0, SVG Export Plug-In . SVG Version: 6.00 Build 0)  -->
<svg version="1.1" id="Layer_1" xmlns="http://www.w3.org/2000/svg" xmlns:xlink="http://www.w3.org/1999/xlink" x="0px" y="0px"
	 viewBox="0 0 512 512" style="enable-background:new 0 0 512 512;" xml:space="preserve">
<g>
	<path d="M73.14,475.43V365.71c0-20.2-16.37-36.57-36.57-36.57C16.37,329.14,0,345.52,0,365.71v109.71C0,495.63,16.37,512,36.57,512
		C56.77,512,73.14,495.63,73.14,475.43"/>
	<path d="M219.43,475.43V256c0-20.2-16.37-36.57-36.57-36.57c-20.2,0-36.57,16.37-36.57,36.57v219.43
		c0,20.2,16.37,36.57,36.57,36.57C203.05,512,219.43,495.63,219.43,475.43"/>
	<path d="M365.71,475.43V146.29c0-20.2-16.37-36.57-36.57-36.57c-20.2,0-36.57,16.37-36.57,36.57v329.14
		c0,20.2,16.37,36.57,36.57,36.57C349.34,512,365.71,495.63,365.71,475.43"/>
	<path d="M512,475.43V36.57C512,16.37,495.63,0,475.43,0c-20.2,0-36.57,16.37-36.57,36.57v438.86c0,20.2,16.37,36.57,36.57,36.57
		C495.63,512,512,495.63,512,475.43"/>
</g>
</svg>
