<?xml version="1.0" encoding="UTF-8"?>
<svg id="Layer_2" data-name="Layer 2" xmlns="http://www.w3.org/2000/svg" viewBox="0 0 579.54 577.43">
  <defs>
    <style>
      .cls-1 {
        fill: #d1e4e3;
      }

      .cls-1, .cls-2, .cls-3, .cls-4, .cls-5, .cls-6, .cls-7, .cls-8, .cls-9, .cls-10, .cls-11, .cls-12, .cls-13, .cls-14, .cls-15, .cls-16, .cls-17, .cls-18, .cls-19, .cls-20 {
        stroke-width: 0px;
      }

      .cls-2 {
        fill: #14e3cc;
      }

      .cls-3 {
        fill: #71828a;
      }

      .cls-4 {
        fill: #2b4750;
      }

      .cls-5 {
        fill: #385a63;
      }

      .cls-6 {
        fill: #1f2e35;
      }

      .cls-7 {
        fill: #f1f5f5;
      }

      .cls-8 {
        fill: #dfe0e0;
      }

      .cls-9 {
        fill: #0fdbbc;
      }

      .cls-10 {
        fill: #2c464f;
      }

      .cls-11 {
        fill: #f7f8f8;
      }

      .cls-12 {
        fill: #e9eeee;
      }

      .cls-13 {
        fill: #0b9a85;
      }

      .cls-14 {
        fill: #a3f4ea;
      }

      .cls-15 {
        fill: #eaa9a9;
      }

      .cls-16 {
        fill: #0cc6ac;
      }

      .cls-17 {
        fill: #e8e8e8;
      }

      .cls-18 {
        fill: #088573;
      }

      .cls-19 {
        fill: #efefef;
      }

      .cls-20 {
        fill: #e6f8f7;
      }
    </style>
  </defs>
  <g id="Layer_1-2" data-name="Layer 1">
    <g>
      <path class="cls-19" d="m524.14,305.41c.23,5.7,3.28,9.31,7.74,12.8,9.14,7.15,16.88,16.01,23.87,25.13,6.63,8.65,11.88,18.45,16.25,28.66,5.25,12.28,7.34,25.21,7.53,38.18.19,13.18-2.29,26.35-7.99,38.53-3.54,7.58-7.14,15.17-11.33,22.39-2.46,4.25-6.07,7.85-9.27,11.65-13.7,16.27-30.25,29.16-48.04,40.61-14.81,9.53-30.52,17.28-46.84,23.8-22.45,8.97-45.48,16.09-69.23,20.66-14.27,2.75-28.62,4.98-43.09,6.67-23.49,2.75-47.03,3.33-70.58,2.72-14.86-.39-29.69-1.6-44.5-3.52-17.73-2.3-35.29-5.34-52.61-9.5-17.48-4.2-34.62-9.71-51.36-16.43-15.96-6.41-31.44-13.81-46.05-22.79-20.01-12.31-38.24-26.95-52.88-45.52-11.35-14.4-20.1-30.34-23.67-48.47-3.19-16.21-2.87-32.39,1.91-48.56,7.92-26.77,24.38-47.45,44.71-65.6,2.95-2.63,6.18-4.93,9.28-7.39.08,18.08.24,36.16.24,54.25,0,20.57-.14,41.15-.22,61.72-6.36,3.55-12.74,7.06-19.06,10.67-5.46,3.11-10.91,6.26-16.27,9.54-2.57,1.58-4.42,4.7-1.06,6.16,5.53,2.4,10.06,6.22,15.23,9.07,14.04,7.75,27.68,16.21,41.65,24.11,6.07,3.43,12.33,3.88,17.93-1.44.59-.56,1.34-.98,2.08-1.34,14.42-7.12,28-15.71,41.82-23.88,17.21-10.17,34.72-19.84,51.88-30.1,7.69-4.6,14.1-7.29,22.57-.37,5.25,4.29,12.01,7.54,19.94,7.84,11.57.43,20.77-4.67,30.2-9.86,11.73-6.46,22.73-14.16,34.82-20.06,4.5-2.19,9.27-4.49,11.93-9.42,2.74-5.06.02-10.44-5.8-10.89-.34-.99-.69-1.98-1.03-2.98-.2-1.94-1.47-3.3-2.87-4.32-3.26-2.37-6.68-4.5-10.04-6.73,18.29-10.69,36.58-21.37,54.86-32.07,14.43-8.45,28.88-16.86,43.23-25.45,4.8-2.87,4.83-4.45.04-7.15-2.49-1.41-2.14-1.95-.27-3.27.79-.55,1.41-1.35,2.1-2.03h-.01c.83-.02,1.57-.2,2.01-1,.33-.33.66-.66.99-.99,1.44-.02,2.44-.7,3.02-2.02.32,0,.65,0,.97,0,1-.33,2-.67,3-1,3.72-.91,6.21-3.67,9-5.99,1.29-.05,1.97-.71,2.01-2.01h0c.83-.01,1.57-.2,2.01-1,.95-.39,1.61-1.05,1.98-2.01,1.55-8.28.86-16.65,1-24.98,4.53,1.33,9.07,2.65,13.6,3.98,3.13,4.09,5.74,8.57,9.5,12.18,6.46,6.2,10.85,6.33,16.95-.23,3.69-3.97,6.76-8.51,10.12-12.78.66-.84.83-2.53,2.36-2.08,1.42.41,1.75,1.76,1.78,3.2.07,3.48.23,6.97.36,10.45l.06,2.6c-.54,14.86-1.26,29.72-.3,44.6.06,1.06.11,2.12.17,3.18-.49,1.5-.52,2.98.17,4.43.11,6.46.22,12.93.33,19.39.08,1.36.15,2.73.23,4.09.06,1,.12,2,.19,3,.06.5.12,1.01.18,1.51.04,1.34.09,2.69.13,4.03.02.55.04,1.11.05,1.66.06,1.24.13,2.47.19,3.71,1.22,11.67,2.45,23.34,3.67,35.01-2.73.64-5.44,1.46-8.21,1.91-11.81,1.91-21.93,6.81-30.47,15.42-10.54,10.63-7.76,23.74,1.66,32.71,8.31,7.91,18.48,12.42,29.86,14.35,21.84,3.7,42.93,2.32,62.55-9.01,10.96-6.33,17.89-18.03,13.75-30.39,3.27-1.09,1.95-2.7.58-4.45-.64-.82-.82-1.94.02-2.71.83-.76,1.39.36,2.1.6,4.8,1.6,6.72.65,7.28-3.49,5.4-8.19-3.86-7.93-7.67-11.97,3.96,0,6.86,0,9.77,0,.15,1.39.84,2.12,2.31,1.91,1.23-.18,1.71-1.05,1.6-2.12-.56-5.61,1.27-10.51,3.51-15.57.67-1.51-.82-4.22,3.61-5.71-8.64-.91-15.63.28-22.4-1.35,3.4-1.96,7.33-.19,10.56-2.39-4.91.76-11.04-4.14-14.52,3.52-.62,1.38-2.24,2.46-3.74,1.41-1.82-1.28-.36-2.7.58-3.76,4.04-4.52,5.62-10.78,10.52-14.7,1-.8-.07-1.81-.38-2.7,2.25-3.68,4.65-7.26,4.73-11.85.12-7.29-4.99-10.6-11.65-7.49-5.01,2.34-8.4,6.33-11.71,10.57-3.38,4.34-4.44,9.9-7.87,14.17-.07-.61-.13-1.22-.2-1.83,0-6.64-3.43-12.76-2.89-19.5,1.13-14.17,2.16-28.35,3.23-42.53Zm-223.57,157.46c-2,1.17-4,2.34-6,3.51-.88-.41-1.88-.67-2.61-1.26-9.78-7.98-21.31-11.56-33.48-13.84-15.36-2.87-30.57-1.81-45.37,2.49-13.4,3.89-25.68,10.04-32.22,23.62-3,.7-1.74,3.16-1.93,4.92-.52,4.75.87,9.65-.85,14.29-3.92,10.58-2.23,20.13,5.21,28.54,7.98,9.03,18.37,13.97,29.88,16.77,27.08,6.57,53.09,5.28,77.33-10.21,8.8-5.62,18.43-21.6,12.59-35.32,0-.66,0-1.33,0-1.99,1.47.04,1.78-1.5,2.8-2.06,9.22-3.08,17.68-7.9,26.66-11.58,14.93-6.12,29.49-13.17,44.19-19.84,4.87-2.21,7.31-7.39,4.59-11.97-2.32-3.91-3.74-7.18-.78-11.15,3.22-2.14,3.14-5.15,2.22-8.39-1.7-10.01-8.32-13.39-16.6-8.3-21.04,12.92-42.02,25.92-62.99,38.95-1.05.65-2.44,1.23-2.63,2.8Z"/>
      <path class="cls-4" d="m376.7,4.57c.55.92,1.41,1.71,1.24,2.94-1.56,1.05-1.04,2.68-1.04,4.1,0,17.09.03,34.19.06,51.28-1.75,2.2-4.02,3.48-6.82,3.78-.07-12.31-.11-24.61-.25-36.91-.02-1.73.73-3.7-.93-5.17-.19-.05-.36-.03-.53.07-2.27-2.81-4.24-.53-6.07.52-68.75,39.66-137.48,79.36-206.21,119.05-23.77,13.73-47.54,27.45-71.33,41.15-2.92,1.68-5.86,3.26-6.21,7.13-2.37.69-1.57,2.68-1.57,4.18-.03,71.45-.03,142.9,0,214.35,0,1.55-.63,3.45,1.53,4.29.49,2.35.46,4.75,4.21,2.45,2.01-1.23,4.39-2.2,6.54-3.4,9.26-5.19,18.48-10.46,27.71-15.69.05,1.19.75,1.67,1.86,1.7,0,7.01,0,14.01.01,21.02-3.35,1.33-.57,2.64,0,3.95.48,1.51.37,2.87-.94,3.95-13.79,7.84-27.61,15.64-41.37,23.55-3.58,2.06-7.13,3.52-11.28,2.05,4.64-.39,3.66-3.92,3.66-6.76.02-85.95.04-171.9-.03-257.85,0-5.83,1.93-9.93,7.64-11.91,1.07-.37,2-1.14,3-1.72,15.97-9.33,31.92-18.7,47.92-27.96,21.04-12.19,42.15-24.27,63.21-36.43,17.23-9.96,34.41-20,51.64-29.96,17.87-10.32,35.79-20.57,53.67-30.87,13.2-7.59,26.41-15.17,39.57-22.82,13.73-7.98,27.41-16.04,41.12-24.07Z"/>
      <path class="cls-5" d="m376.7,4.57c-13.7,8.03-27.39,16.09-41.12,24.07-13.16,7.65-26.37,15.23-39.57,22.82-17.89,10.29-35.8,20.54-53.67,30.87-17.23,9.95-34.41,20-51.64,29.96-21.06,12.17-42.16,24.25-63.21,36.43-16.01,9.27-31.95,18.64-47.92,27.96-1,.58-1.93,1.35-3,1.72-5.71,1.98-7.64,6.07-7.64,11.91.07,85.95.06,171.9.03,257.85,0,2.84.99,6.36-3.65,6.76,0,0-.12-.1-.12-.1-.28-.54-.46-1.44-1.23-.37-2.91-.99-4.29-3.22-4.91-6.07,1.66-1.69.89-3.8.89-5.71.04-78.97-.05-157.93.15-236.89.03-10.68-2.69-21.88,3.78-31.87,25.46-14.77,50.91-29.57,76.39-44.3C212.72,87.73,285.18,45.9,357.62,4.05c3.71-2.15,7.24-4.51,11.96-3.97,3.26.37,5.75,1.39,7.12,4.49Z"/>
      <path class="cls-18" d="m405.85,47.43c1.01-.7,2.02-1.4,3.03-2.1,6.83.77,8.42,2.47,8.38,9.01-.02,2.66-.23,5.34-.04,7.99.21,2.87-.9,4.53-3.42,5.91-7.44,4.07-14.75,8.38-22.09,12.62-48.86,28.17-97.72,56.33-146.57,84.51-16.12,9.3-32.22,18.66-48.32,27.99-13.41,7.63-26.89,15.15-40.22,22.92-8.59,5-17.54,9.41-25.61,15.29-1.4-.24-2.28.62-3.14,1.51-.95.17-1.9.34-2.85.5-1.99-1.23-3.99-2.45-5.98-3.68.03-3.48-.04-6.97.14-10.44.13-2.53-.97-5.41,1.73-7.36,3.45,3.71,6.93,4.97,10.95.6,1.19-1.29,2.96-2.26,4.65-2.84,11.69-4.01,21.46-11.67,32.05-17.6,13.87-7.77,27.4-16.32,41.15-24.38,19.3-11.31,38.89-22.13,58.13-33.58,15.59-9.28,31.86-17.37,47.31-26.92,11.97-7.4,24.38-14.1,36.58-21.13,7.03-4.05,14.23-7.84,20.98-12.3,4.04-2.67,9.16-1.77,13.02-6.89,3.11-4.11,10.01-6.83,15.86-9.22,4.72-1.93,8.63-5.85,13.11-9.03-3.28-2.45-6.21-.41-8.82-1.39Zm-16.17,27.22c.02-1.31-.44-2.48-1.91-2.3-2.33.29-3.19,2.23-3.59,4.21-.24,1.17.32,2.52,1.82,2.3,2.28-.34,3.12-2.22,3.68-4.22Zm17.06-7.47c1.93-.61,2.82-2.28,3.09-4.31.16-1.2-.19-2.54-1.75-2.24-2.2.42-3.21,2.15-3.39,4.25-.1,1.16.18,2.34,2.05,2.3Zm-10.53,5.86c2.07-.66,3.2-2.17,3.54-4.23.21-1.28-.42-2.41-1.81-2.3-2.37.19-3.14,2.11-3.47,4.09-.19,1.16.22,2.27,1.73,2.43Z"/>
      <path class="cls-10" d="m472.32,322.37c-.96-14.87-.24-29.73.3-44.6.09,1.77.08,3.55.28,5.31.42,3.77-1.12,7.71,1.04,11.31,4.96,2.33,10.31,3.28,15.67,3.71,12.24,1,24.19.36,33.93-8.65.14.99.28,1.98.42,2.98.05,1.65.1,3.31.15,4.96.01,2.67.02,5.34.03,8.01-1.07,14.18-2.1,28.36-3.23,42.53-.54,6.74,2.89,12.86,2.89,19.5-1.57,1.28-.89,3.05-.91,4.61-.07,6.75-.05,13.49-.06,20.24.05,1.73.11,3.46.16,5.2-.32,4.65-.71,9.29-2.01,13.79-2.79.54-2.03,2.63-1.93,4.43l-.08-.21c-1.76.4-3.6-1.24-5.32.2l-1.74-.16c-.13-3.19.11-6.46-2.07-9.19.63-6.3-1.36-12.41-2.55-18.33-3.63-18.08-5.75-36.23-6.43-54.6,2.26-6.24.78-12.64.81-18.97l-1.21.5c-2.11-.51-1.54,1.15-1.65,2.12-.84,7.25-1.92,14.49-2.38,21.77-.84,13.15-3.88,26.27-.31,39.51,1.62,5.99,1.04,12.24.47,18.35-1.15,12.22-2.53,24.42-3.81,36.64-3.63,1.31-7.28,1.36-10.93.1-1.4-10.36-2.81-20.72-4.21-31.08-1.22-11.67-2.45-23.34-3.67-35.01,1.01-4.7,2.52-9.43-.74-13.9-.08-1.36-.15-2.73-.23-4.09,1.91-8.96.63-18,.67-27.01h-1.34Z"/>
      <path class="cls-12" d="m196.81,193.37c16.11-9.33,32.2-18.69,48.32-27.99,48.85-28.18,97.71-56.35,146.57-84.51,7.35-4.24,14.66-8.55,22.09-12.62,2.52-1.38,3.63-3.04,3.42-5.91-.19-2.65.02-5.33.04-7.99.04-6.54-1.55-8.24-8.38-9.01.66-2.72,3.01-2.17,4.4-1.57,2.54,1.09,5.28,2.97,5.44,5.86.47,8.66.44,17.36-1.76,25.87-1.83,1.6-1.02,3.74-1.03,5.63-.05,39.73-.04,79.45-.04,119.18,0,1.5-.2,3.02.01,4.48.15,1.03-2.8,2.43-.03,2.82,1.72.24.64-2.08,1.07-3.17,1.27,2.75,2.97,2.37,3.61-.06.68-2.59,2-3.16,4.25-2.89.6-.11,1.19-.23,1.79-.34-2.54.86-3.63,2.75-3.74,5.32-.95.42-1.99.77-1.99,2.09-2,2.04-4.41,3.4-7.09,4.32-3.88-1.65-1.82-4.92-1.82-7.44-.09-41.13-.06-82.26-.06-123.4,0-.83.1-1.69-.05-2.49-.38-2.09-.76-3.4-3.48-1.66-6.58,4.21-13.79,7.22-20.41,11.57-11.35,7.46-23.68,13.43-35.35,20.47-13.97,8.42-28.54,15.84-42.54,24.2-13.06,7.79-26.55,14.84-39.31,23.17-6.62,4.32-14.03,7.4-20.87,11.4-5.62,3.29-10.99,6.79-17.02,9.56-6.09,2.79-11.63,7.16-17.8,10.27-6.4,3.23-9.43,7.88-9.36,16.04.47,60.28.25,120.56.25,180.85,0,4.5-.03,8.99.02,13.49.01,1.1-.4,2.45.94,3.12,1.32.66,2.11-.41,3.04-1.09,7.32-5.35,15.64-9.04,23.33-13.79,6.11-3.77,12.39-7.5,18.79-10.91,8.08-4.31,16.42-8.31,23.95-13.46,10.28-7.03,21.58-12.21,32.13-18.74,11.45-7.09,23.72-12.98,35.12-20.1,20.18-12.6,41.4-23.34,61.69-35.73,5.16-3.15,7.05-6.11,7.11-12,.12-11.98-1.14-23.89-1.09-35.84,1.56,2.43,3.67,4.33,5.9,6.13,0,.32.01.65.03.97l-.02.02c-.91.67-.99,1.64-.99,2.65,0,10.89,0,21.77,0,32.66,0,1.01.09,1.98.99,2.66-.37.96-1.04,1.62-1.98,2.01-1.6-1.52-1.81-.27-2.01,1,0,0,0,0,0,0-1.3.04-1.98.7-2.01,2.01-2.78,2.32-5.28,5.07-9,5.99-.14-.78-.2-1.8-1.31-1.59-1.32.25-1.61,1.41-1.7,2.59-.32,0-.65,0-.97,0-1.46,0-2.93-.02-3.02,2.02-.33.33-.66.66-.99.99-.83.02-1.58.19-2.01,1.01,0,0,.01,0,.01,0-2.5-.22-4.49,1.14-6.47,2.3-14.1,8.3-27.92,17.1-42.28,24.91-16.97,9.23-33.56,19.11-50.19,28.9-3.88,2.28-8.84,3.39-11.07,8.04-21.98,11.95-43.55,24.62-65.05,37.4-1.25.42-2.44.92-3.2,2.09,0,0-.09-.09-.09-.09-4.19,2.17-8.37,4.35-12.56,6.52-.01-62.09-.01-124.18-.06-186.26,0-3.13-.83-6.32-.44-9.38.68-5.32.56-10.62.35-15.9-.1-2.61-1.46-5.13-4.02-6.58Z"/>
      <path class="cls-5" d="m523.54,289.46c-9.75,9.01-21.69,9.64-33.93,8.65-5.36-.44-10.7-1.38-15.67-3.71-.03-9.99-.05-19.97-.08-29.96-1.19-5.68.43-10.61,4.02-15.01,3.97-4.87,6.13-10.21,6.34-16.73.12-3.6-2.5-7.98,1.63-11.08.25-.26.54-.34.89-.22,1.19-.09,2.12-.48,2.24-1.86,7.93,6.12,15.68,5.28,19.84-2.14.77,0,1.55-.02,2.32-.02.17.71.33.66.48,0,2.1-1.18,4.3,1.82,6.39-.15,5.56,1.07,8.46,5.26,7.82,11.31-.87,1.09-1.66,1.87-1.71,3.72-.29,11.2.04,22.45-2.15,33.53-.18,6.18.94,12.24,1.75,18.32.24,1.76.93,3.61-.17,5.35Z"/>
      <path class="cls-13" d="m405.85,47.43c2.61.98,5.53-1.06,8.82,1.39-4.48,3.19-8.39,7.1-13.11,9.03-5.85,2.39-12.75,5.11-15.86,9.22-3.86,5.11-8.98,4.21-13.02,6.89-6.75,4.46-13.95,8.25-20.98,12.3-12.2,7.03-24.61,13.72-36.58,21.13-15.45,9.55-31.72,17.64-47.31,26.92-19.23,11.45-38.82,22.27-58.13,33.58-13.75,8.06-27.29,16.61-41.15,24.38-10.59,5.94-20.36,13.59-32.05,17.6-1.69.58-3.46,1.55-4.65,2.84-4.02,4.37-7.5,3.11-10.95-.6.3-1.33,1.5-1.71,2.48-2.28,54.2-31.24,108.42-62.47,162.62-93.72,27.52-15.87,55.01-31.79,82.51-47.69.91-.25,1.49-.81,1.65-1.76,2.8-.3,5.07-1.58,6.82-3.78.49-.29.99-.58,1.48-.87,7.64-2.8,14.14-7.74,21.29-11.46,2.03-1.06,4.08-2.08,6.12-3.12Z"/>
      <path class="cls-6" d="m480.25,182.38c-.47-1.85-.43-3.89-3.17-4.3-1.52-.23-3.03-2.2-2.22-3.32,2.48-3.41,1.69-7.81,3.92-11.18.26-.39.41-1,.76-1.13,1.06-.42,2.64-1.29,3.23-.88,4.74,3.35,9.79-3.18,14.07.41,1.73,1.44,3.31,1.32,5.07,1.8,5.33,1.44,11.01,2.51,13.71,8.32.56,1.2,1.66,1.56,2.68,2.07,2.11,1.06,3.79,2.91,3.43,5.04-.66,3.96-.61,8.28-1.63,11.78-1.85,6.34-5.46,12.45-11.4,16.44-.4.27-.87.44-1.31.65-.8.22-1.62.37-2.38.67-4.73,1.89-7.71-.68-10.37-4.04-2.74-3.46-1.13-5.22,2.14-7.33,2.63-1.69,3.35-5.18,1.22-7.92-1.98-2.54-4.59-2.84-7.08-.1-.47.52-2.03,1.86-2.37.64-.77-2.8-4.54-2.89-4.76-5.88-.2-2.65-1.95-2.04-3.56-1.75Z"/>
      <path class="cls-10" d="m485.84,221.63c-4.13,3.1-1.51,7.48-1.63,11.08-.22,6.52-2.37,11.86-6.34,16.73-3.59,4.4-5.2,9.33-4.02,15.01-2.25,3.35-.1,7.24-1.31,10.72-.13-3.48-.29-6.97-.36-10.45-.03-1.44-.36-2.79-1.78-3.2-1.53-.45-1.7,1.24-2.36,2.08-3.36,4.27-6.43,8.81-10.12,12.78-6.1,6.56-10.49,6.43-16.95.23-3.76-3.61-6.37-8.09-9.5-12.18.06-.69.12-1.38.18-2.06,1.77-2.66,3.53-5.31,5.3-7.97,3.91-.07,5.37,3.5,7.81,5.49,2.35,1.93,3.23,1.67,4.64-.9,3.93-7.12,8.48-13.9,12.17-21.14,5.14-10.08,12.47-16.34,24.25-16.22Z"/>
      <path class="cls-15" d="m480.25,182.38c1.61-.29,3.36-.9,3.56,1.75.22,2.99,4,3.08,4.76,5.88.33,1.22,1.89-.12,2.37-.64,2.48-2.74,5.1-2.44,7.08.1,2.13,2.74,1.41,6.22-1.22,7.92-3.27,2.11-4.88,3.87-2.14,7.33,2.66,3.36,5.64,5.93,10.37,4.04.76-.31,1.59-.45,2.38-.67-.17,1.72-.34,3.44-.5,5.16-.31,2.26-2.23,2.52-3.87,3.14-3.29,1.25-6.75.95-10.15,1.1-.49-.09-.99-.18-1.48-.27-.37-.83-.44-1.9-1.66-2.05.61-2.46-.09-3.57-2.88-3.75-6.38-.42-7.72-1.89-7.87-8.17-.07-2.84-2.72-6.05-2.54-7.04.84-4.63-2.14-10.65,3.8-13.84Z"/>
      <path class="cls-4" d="m63.89,173.9c-6.47,9.99-3.75,21.18-3.78,31.87-.2,78.96-.11,157.93-.15,236.89,0,1.91.77,4.03-.89,5.71-1.91-7.59-.08-15.35-1.06-22.98.08-20.57.22-41.15.22-61.72,0-18.08-.15-36.16-.24-54.25.08-8.97.23-17.93.23-26.9.03-32.24.04-64.47,0-96.71,0-4.94,1.12-9.2,5.66-11.92Z"/>
      <path class="cls-15" d="m436.97,254.39c-1.77,2.66-3.53,5.31-5.3,7.97-2.14.11-2.59-1.77-3.53-3.03-3.16-4.2-5.63-8.99-10.24-11.94-.34-.31-.68-.61-1.02-.92-2.22-1.79-4.34-3.7-5.9-6.12-.12-.96-.23-1.92-.35-2.89,0-.68,0-1.35,0-2.03.84-3.52-.96-8.55,5.18-9.03,1.09,1.14,2.8,2.12,3.15,3.45,1.03,3.95,1.09-2.96,1.74-.09,2.89-.96,3.65.69,4.3,3.12,1.68,6.32,3.03,12.88,9.27,16.7.51,1.09,1.35,1.71,2.57,1.76.05,1.02.09,2.03.14,3.05Z"/>
      <path class="cls-8" d="m416.94,204.43c-.42,1.09.65,3.4-1.07,3.17-2.77-.38.18-1.78.03-2.82-.21-1.46-.01-2.98-.01-4.48,0-39.73-.01-79.45.04-119.18,0-1.89-.81-4.03,1.03-5.63,1.86,41.97.48,83.97.88,125.95-.3.34-.6.69-.9,1.03,0,.65,0,1.3,0,1.95Z"/>
      <path class="cls-10" d="m521.95,265.79c2.2-11.08,1.87-22.33,2.15-33.53.05-1.85.84-2.62,1.71-3.72,1.93,3.73,2.78,7.73,3.12,11.89.48,5.93,1.14,11.85,1.52,17.78.25,3.96-.94,6.88-5.82,6.51-.86-.07-1.78.69-2.68,1.07Z"/>
      <path class="cls-5" d="m434.96,201.31c.49-.06,1.03-.01,1.47-.2,2.09-.88,4.85-3.12,6.06-2.46,2.16,1.17,2.09,4.58,2.9,7.05,2.07,6.28,3.96,12.62,6,18.91.52,1.6,1.05,3.14.45,4.82,0,0,.06-.04.06-.04-2.04.16-1.76-1.63-2.13-2.7-2.23-6.53-4.67-13-6.41-19.66-1.25-4.77-3.3-5.08-6.84-2.54-2.26-.21-1.81-1.75-1.57-3.19Z"/>
      <path class="cls-6" d="m378.44,62.02c-.49.29-.99.58-1.48.87-.03-17.09-.06-34.19-.06-51.28,0-1.42-.53-3.05,1.04-4.1,1.35,7.22.53,14.51.61,21.77.13,10.91-.06,21.83-.11,32.74Z"/>
      <path class="cls-16" d="m434.96,201.31c-.24,1.44-.7,2.98,1.57,3.19-3.76,4.62-8.7,7.01-14.56,7.62.91-1.58.24-2.68-1.1-3.57,0-1.33,1.04-1.67,1.99-2.1,3.82-.08,6.53-2.32,9.57-4.55-2.06-1.56-4.04-.33-5.83-.77-.6.11-1.19.23-1.79.34,3.35-1.88,6.74-1.54,10.15-.16Z"/>
      <path class="cls-5" d="m436.83,251.34c-1.22-.05-2.06-.67-2.57-1.76,5.28-3.03,10.58-6.02,15.83-9.11,1.2-.7,3.49-1.23,2.85-2.87-1.08-2.74-.38-5.53-1.04-8.21,0,0-.06.04-.06.04.35.26.7.53,1.06.78.58,1.25,1.15,2.51,1.72,3.78,2.82,5.49-.21,7.94-4.83,10.09-4.47,2.08-8.64,4.81-12.95,7.25Z"/>
      <path class="cls-6" d="m492.88,217.49c3.41-.16,6.86.15,10.15-1.1,1.64-.62,3.56-.88,3.87-3.14,2.59,4.42,7.25,3.08,11.1,3.99-2.09,1.96-4.28-1.03-6.38.15,0,0-.48,0-.48,0-.77,0-1.55.02-2.32.02-1.44.07-2.74.51-4.13.95-3.92,1.24-8.15,2.95-11.81-.87Z"/>
      <path class="cls-7" d="m454.61,234c-.57-1.26-1.14-2.52-1.72-3.78.99-.63,2.39-1.21,3.09-.33,1.39,1.74-1.2,2.61-1.37,4.11Z"/>
      <path class="cls-19" d="m524.11,297.4c-.05-1.65-.1-3.31-.15-4.96,1.34,1.61,1.26,3.27.15,4.96Z"/>
      <path class="cls-6" d="m488.97,219.55c-.12,1.38-1.05,1.77-2.24,1.85.57-1.11,1.13-2.22,1.69-3.33.15.12.3.25.45.38.03.37.07.73.1,1.1Z"/>
      <path class="cls-6" d="m489.74,215.17c1.21.15,1.29,1.21,1.66,2.05-.84.41-1.68.82-2.52,1.23-.15-.13-.3-.26-.45-.38.37-1,.11-2.28,1.32-2.9Z"/>
      <path class="cls-12" d="m416.94,202.48c.3-.34.6-.69.9-1.03-.3.34-.6.69-.9,1.03Z"/>
      <path class="cls-8" d="m58.01,425.39c.98,7.63-.85,15.39,1.06,22.98.61,2.85,1.99,5.08,4.91,6.07.41.12.82.25,1.22.37,0,0,.12.1.12.1,4.15,1.47,7.7.01,11.28-2.05,13.75-7.91,27.57-15.71,41.37-23.55,1.23,2.9,2.21,5.49,1.25,9.07-1.71,6.37,1.3,10.51,6.74,11.02,1.63,2.04,3.39,3.82,6.26,2.16,16.69-9.65,33.26-19.51,50.1-28.89,5.54-3.09,10.38-7.83,17.19-8.38,7.08,2.97,13.37,7.35,19.97,11.17,12.32,7.14,24.74,6.41,36.77-.02,12.76-6.82,24.89-14.8,37.68-21.55,7.81-4.12,12.96-9.08,11.94-18.49,5.82.45,8.54,5.83,5.8,10.89-2.67,4.93-7.44,7.23-11.93,9.42-12.09,5.89-23.09,13.6-34.82,20.06-9.43,5.19-18.63,10.29-30.2,9.86-7.93-.3-14.69-3.55-19.94-7.84-8.47-6.92-14.88-4.23-22.57.37-17.16,10.26-34.67,19.93-51.88,30.1-13.82,8.17-27.4,16.76-41.82,23.88-.74.36-1.49.78-2.08,1.34-5.6,5.32-11.86,4.88-17.93,1.44-13.96-7.9-27.61-16.36-41.65-24.11-5.17-2.85-9.7-6.67-15.23-9.07-3.36-1.46-1.51-4.58,1.06-6.16,5.36-3.28,10.8-6.43,16.27-9.54,6.32-3.61,12.7-7.12,19.06-10.67Z"/>
      <path class="cls-8" d="m477.63,402.37c1.4,10.36,2.81,20.72,4.21,31.08-.33,1.47-.67,2.93-1,4.4-2.92,1.54-5.76,3.25-8.77,4.59-4.83,2.15-9.79,4.01-14.64,6.1-1.33.57-2.78,1.35-2.82,3.13-.04,2,1.52,2.87,3.02,3.56,6.1,2.83,12.34,2.44,18.31-.07,4.46-1.88,8.8-3.63,13.75-3.58,3.68.03,5.49-1.93,4.88-5.72-.35-2.17-.77-4.33-1.16-6.49.29-1.28,1.97-2.38.49-3.89,1.95-7.93,3.66-15.89,3.54-24.3,1.67,4.94,6.28,7.86,7.74,12.96.73,2.56,3.36,4.79,6.85,2.89,3.12,2.69,6.35,1.19,9.58.27.85-.05,1.71-.09,2.56-.14,7.07,2.59,14.13,3.76,21.12-.24.49.14.98.29,1.47.43,4.13,12.37-2.8,24.07-13.75,30.39-19.61,11.33-40.7,12.71-62.55,9.01-11.37-1.93-21.55-6.44-29.86-14.35-9.42-8.97-12.2-22.08-1.66-32.71,8.53-8.61,18.66-13.51,30.47-15.42,2.77-.45,5.47-1.26,8.21-1.91Z"/>
      <path class="cls-5" d="m216.84,402.98c21.5-12.78,43.07-25.44,65.05-37.4,3.16,2.27,6.46,4.28,10.04,5.82,3.36,2.23,6.79,4.36,10.04,6.73,1.4,1.02,2.67,2.38,2.87,4.32-1.89,3.54.11,8.76-4.16,11.11-3.48,1.91-6.32,4.91-9.95,6.3-7.93,3.03-14.47,8.41-21.92,12.24-9.27,4.76-17.59,11.12-28.65,12.29-12.28,1.3-21.19-4.98-30.24-11.2-2.79-1.92-1.43-5.62,1.9-5.32,3.91.35,2.11-1.37,1.73-2.87,0,0,.09.09.1.09,1.84.49,3.25.32,3.2-2.09Z"/>
      <path class="cls-2" d="m180.89,477.39c6.54-13.59,18.82-19.74,32.22-23.62,14.81-4.29,30.01-5.36,45.37-2.49,12.17,2.28,23.7,5.86,33.48,13.84.73.59,1.73.85,2.61,1.26.86,2.86,2.97,4.8,4.99,6.81,1.19,3.06,2.39,6.11,3.58,9.17-.13,1-.27,2.01-.4,3.01-1.22,1.23-.82,2.8-.81,4.25.02,4.46-2.23,8.33-4.33,11.74-7.15,11.57-19.88,14.7-31.69,17.68-12.6,3.18-25.88,2.8-38.95,2.31-.77-1.14-2.05-.96-3.15-1.19-11.27-2.29-22.19-5.43-31.49-12.63-6.91-5.36-12.61-11.34-11.44-21.12.19-1.59.46-3.33-.48-4.88.16-1.38.32-2.77.49-4.15Zm9.96,20.12c3.29,4.31,7.67,7.35,12.47,9.54,23.65,10.82,47.75,11.19,71.87,1.91,5.61-2.16,11.74-4.58,14.68-10.8,4.83-2.32,5.34-4.28,1.94-8.11-3.33-3.75-7.42-6.53-11.88-8.79-16.9-8.55-34.92-10.25-53.27-7.51-13.33,1.98-25.94,6.26-35.94,16.28-3.07,3.08-2.87,5.03.13,7.48Zm-4.89-10.81c14.76-19.38,34.89-23.11,55.87-23.11,21.1,0,41.22,3.96,54.9,23.98.24-3.2.17-5.07-.67-7.02-3.18-7.4-8.59-12.75-15.77-15.9-27.31-11.98-54.64-12.22-81.19,1.93-6.94,3.7-13.16,9.51-13.16,20.11Z"/>
      <path class="cls-8" d="m380.58,437.8c-2.96,3.96-1.53,7.23.78,11.15,2.71,4.58.28,9.76-4.59,11.97-14.71,6.67-29.26,13.72-44.19,19.84-8.98,3.68-17.44,8.51-26.66,11.58,1.46-3.53.12-6.77-1.02-10.03.13-4.92,4.91-3.99,7.4-5.94,9.48-7.44,20.07-13.1,30.56-18.87,1.71-.94,2.09-1.79,1.96-3.38,11.92-5.44,23.84-10.88,35.76-16.31Z"/>
      <path class="cls-8" d="m291.93,371.39c-3.58-1.54-6.88-3.55-10.04-5.82,2.24-4.65,7.19-5.76,11.07-8.04,16.64-9.79,33.22-19.66,50.19-28.9,14.36-7.81,28.18-16.61,42.28-24.91,1.97-1.16,3.96-2.52,6.47-2.3-.7.68-1.32,1.48-2.1,2.03-1.88,1.32-2.22,1.87.27,3.27,4.78,2.7,4.76,4.28-.04,7.15-14.35,8.59-28.8,17-43.23,25.45-18.28,10.7-36.57,21.38-54.86,32.07Z"/>
      <path class="cls-9" d="m545.3,426.92c-7,3.99-14.05,2.83-21.13.24-2.92-4.29,1.16-6.85,2.61-9.97,1.5-3.23,5.17-5.07,6.06-8.8.85-.36,1.23-.99,1.11-1.91,2.29-.4,3.63-1.71,3.93-4.05.93.16,1.59-.16,1.96-1.05,6.24-3.85,11.3-9.3,17.67-12.97-7.16,2.6-13.77,5.94-17.64,13.01-.97-.29-1.65.02-2.04.95-2.02.64-3.13,2.21-4.02,3.99-.92.41-1.25,1.09-.93,2.06-2.44-.14-3.25,1.97-4.49,3.38-2.27,2.59-3.44,6-6.12,8.3-.43-.55-.87-1.1-1.3-1.65-.1-.98-.19-1.96-.29-2.94.1-1.41.19-2.82.29-4.22,1.3-4.51,1.69-9.14,2.01-13.79,1.14-1.66,1.22-3.54,1.12-5.46l.27-.1.19.22c.98.22,1.76-.12,2.42-.83,2.22-.82,4.43-2.32,6.73-.19l2.09,4.96c.15.22.31.65.44.63.85-.07.49-.8.62-1.27.1-.7.19-1.4.29-2.1.26-.88.52-1.77.77-2.65.31-.44.61-.88.92-1.32,1.87.54.58-1.07,1.02-1.5,5.53-1.95,11.23-2.71,17.06-2.27,2.19.17,4.85.73,4.64,3.43-.41,5.49.27,11.23-2.73,16.3h-9.77c3.8,4.05,13.06,3.78,7.67,11.97-2.64,2.2-5.34,2.53-8.61,1.06-2.5-1.12-5.36-1.41-8.58-2.2q6.01,7.93,5.74,10.75Z"/>
      <path class="cls-9" d="m226.96,521.35c13.07.48,26.35.87,38.95-2.31,11.81-2.98,24.54-6.11,31.69-17.68,2.11-3.4,4.35-7.28,4.33-11.74,0-1.45-.41-3.02.81-4.25.12,3.01.24,6.02.37,9.03,0,.66,0,1.33,0,1.99,1.22,15.97-7.26,25.97-20.6,32.6-17.55,8.73-36.3,9.9-55.44,7.94.25-.21.74-.49.71-.61-1.5-4.92-.63-9.97-.82-14.96Z"/>
      <path class="cls-1" d="m227.07,536.92c19.14,1.96,37.89.79,55.44-7.94,13.34-6.63,21.82-16.62,20.6-32.6,5.84,13.72-3.79,29.7-12.59,35.32-24.24,15.49-50.25,16.77-77.33,10.21-11.5-2.79-21.89-7.73-29.88-16.77-7.43-8.41-9.13-17.97-5.21-28.54,1.72-4.65.33-9.55.85-14.29.19-1.76-1.07-4.22,1.93-4.92-.16,1.38-.32,2.77-.49,4.15-1.06,8.26-1.03,16.57-.28,24.81.42,4.6,2.88,8.69,6.17,12.18,11.08,11.75,25.47,16.08,40.78,18.4Z"/>
      <path class="cls-9" d="m380.58,437.8c-11.92,5.44-23.84,10.88-35.76,16.31-6.39,2.75-12.71,5.68-19.19,8.21-7.04,2.74-13.46,6.95-20.93,8.61-.02-1.42-.04-2.84-.06-4.27.61-2.04,1.96-3.59,3.88-4.23,8.3-2.8,15.36-8.03,23.19-11.79,14.04-6.74,27.62-14.44,41.24-22.01,3.76-2.09,6.94-4.4,9.86.78.93,3.23,1,6.25-2.22,8.39Z"/>
      <path class="cls-13" d="m533.73,391.13c-2.31-2.13-4.51-.63-6.73.19.14-1.8.18-3.61.43-5.39,1.51-10.68,5.96-20.14,12-28.95,2.71-2.79,6.08-5.04,7.59-8.88-3.44,2.08-6.46,4.54-8.37,8.11-3.58,3.57-5.7,8.05-7.98,12.46-2.9,5.62-3.57,11.96-5.94,17.74-1.59-5.66-.91-11.41-.72-17.14,3.43-4.27,4.49-9.83,7.87-14.17,3.31-4.24,6.7-8.24,11.71-10.57,6.66-3.11,11.78.2,11.65,7.49-.08,4.59-2.48,8.17-4.73,11.85-8.11,7.54-13.81,16.56-16.77,27.26Z"/>
      <path class="cls-16" d="m382.8,429.41c-2.92-5.18-6.1-2.87-9.86-.78-13.62,7.57-27.2,15.27-41.24,22.01-7.83,3.76-14.89,8.99-23.19,11.79-1.92.65-3.27,2.19-3.88,4.23-1.3-1.32-2.16-3.12-4.05-3.81.18-1.57,1.57-2.15,2.63-2.8,20.97-13.03,41.95-26.03,62.99-38.95,8.29-5.09,14.9-1.71,16.6,8.3Z"/>
      <path class="cls-10" d="m213.55,404.97c.38,1.5,2.18,3.23-1.73,2.87-3.33-.3-4.69,3.4-1.9,5.32,9.05,6.23,17.97,12.51,30.24,11.2,11.07-1.18,19.39-7.53,28.65-12.29,7.45-3.83,13.99-9.21,21.92-12.24,3.62-1.38,6.47-4.39,9.95-6.3,4.27-2.35,2.27-7.56,4.16-11.11.34.99.69,1.98,1.03,2.98,1.02,9.41-4.14,14.37-11.94,18.49-12.79,6.75-24.93,14.74-37.68,21.55-12.04,6.43-24.45,7.16-36.77.02-6.6-3.82-12.89-8.2-19.97-11.17-.72-1.58.85-1.95,1.49-2.81,4.19-2.17,8.37-4.35,12.56-6.52Z"/>
      <path class="cls-1" d="m533.73,391.13c2.97-10.7,8.66-19.73,16.77-27.26.31.88,1.38,1.9.38,2.7-4.9,3.92-6.49,10.18-10.52,14.7-.94,1.05-2.4,2.48-.58,3.76,1.49,1.05,3.12-.04,3.74-1.41,3.47-7.66,9.61-2.76,14.52-3.52-3.23,2.2-7.15.43-10.56,2.39,6.77,1.63,13.76.45,22.4,1.35-4.43,1.49-2.94,4.2-3.61,5.71-2.24,5.06-4.06,9.97-3.51,15.57.11,1.08-.37,1.94-1.6,2.12-1.47.22-2.16-.52-2.31-1.91,3-5.07,2.31-10.82,2.73-16.3.2-2.7-2.45-3.27-4.64-3.43-5.83-.44-11.53.32-17.06,2.27-.97.07-.96.81-1.02,1.5-.31.44-.61.88-.92,1.32-1.13.63-.87,1.66-.77,2.65-.1.7-.19,1.4-.29,2.1-.35.21-.71.42-1.06.64l-2.09-4.96Z"/>
      <path class="cls-11" d="m417.9,247.39c4.62,2.95,7.09,7.74,10.24,11.94.94,1.26,1.39,3.14,3.53,3.03-.06.69-.12,1.38-.18,2.06-4.53-1.33-9.07-2.65-13.6-3.98-.33-4.33-.66-8.65-.99-12.98,0,0,.02-.02.02-.02.33,0,.66-.01.99-.05Z"/>
      <path class="cls-8" d="m416.89,247.46c.33,4.33.66,8.65.99,12.98-.14,8.34.55,16.7-1,24.98-.9-.67-.99-1.64-.99-2.66,0-10.89,0-21.77,0-32.66,0-1.01.09-1.98.99-2.65Z"/>
      <path class="cls-14" d="m545.3,426.92q.27-2.82-5.74-10.75c3.22.79,6.09,1.08,8.58,2.2,3.27,1.47,5.97,1.14,8.61-1.06-.56,4.14-2.48,5.1-7.28,3.49-.71-.24-1.27-1.36-2.1-.6-.84.77-.66,1.9-.02,2.71,1.37,1.74,2.69,3.36-.58,4.45-.49-.15-.98-.29-1.48-.43Z"/>
      <path class="cls-4" d="m300.58,462.86c1.89.69,2.75,2.49,4.05,3.81.02,1.42.04,2.84.06,4.27-1.2.28-2.4.57-3.6.85-1.13-1.59,2.66-2.6.56-4.16-.77-.57-2.17-.39-2.68.55-1.15,2.13.66,2.84,2.08,3.66-.49.45-.98.9-1.47,1.35-2.02-2.01-4.13-3.95-4.99-6.81,2-1.17,4-2.34,6-3.51Z"/>
      <path class="cls-1" d="m303.12,494.4c-.12-3.01-.24-6.02-.37-9.03.13-1.01.26-2.01.4-3.02.58-.02,1.17-.03,1.75-.05,1.14,3.26,2.47,6.51,1.02,10.03-1.02.56-1.33,2.1-2.8,2.06Z"/>
      <path class="cls-4" d="m472.55,275.17c1.2-3.48-.94-7.37,1.31-10.72.02,9.99.05,19.97.08,29.96-2.17-3.6-.62-7.55-1.04-11.31-.2-1.76-.19-3.54-.28-5.31-.02-.87-.04-1.74-.06-2.6Z"/>
      <path class="cls-6" d="m524,369.27c-.19,5.73-.88,11.48.72,17.14-.05,1.91-.09,3.83-.14,5.74l-.19-.22s-.27.1-.26.1c-.43.09-.86.18-1.29.26.01-6.75,0-13.5.06-20.24.02-1.57-.67-3.33.91-4.61.07.61.13,1.22.2,1.83Z"/>
      <path class="cls-6" d="m472.32,322.37h1.34c-.03,9,1.24,18.04-.67,27-.11-6.46-.22-12.93-.33-19.39.26-1.49.58-2.98-.18-4.43-.06-1.06-.11-2.12-.17-3.18Z"/>
      <path class="cls-6" d="m473.22,353.46c3.26,4.47,1.75,9.2.74,13.9-.06-1.24-.13-2.47-.19-3.71-.02-.55-.04-1.11-.05-1.66-.04-1.34-.09-2.69-.13-4.03-.06-.5-.12-1.01-.18-1.51-.06-1-.12-2-.19-3Z"/>
      <path class="cls-8" d="m398.89,297.43c.08-1.18.38-2.34,1.7-2.59,1.11-.21,1.17.8,1.31,1.58-1,.33-2,.67-3,1Z"/>
      <path class="cls-8" d="m394.89,299.44c.1-2.04,1.56-2.02,3.02-2.02-.58,1.32-1.58,1.99-3.02,2.02Z"/>
      <path class="cls-8" d="m412.89,288.44c.2-1.27.41-2.53,2.01-1-.44.8-1.19.98-2.01,1Z"/>
      <path class="cls-8" d="m410.89,290.44c.03-1.31.71-1.97,2.01-2.01-.04,1.3-.72,1.96-2.01,2.01Z"/>
      <path class="cls-10" d="m472.48,325.55c.76,1.45.44,2.94.18,4.43-.7-1.45-.66-2.93-.18-4.43Z"/>
      <path class="cls-8" d="m391.89,301.43c.43-.82,1.18-.98,2.01-1.01-.44.8-1.18.98-2.01,1.01Z"/>
      <path class="cls-10" d="m473.4,356.46c.06.5.12,1,.18,1.51-.06-.5-.12-1-.18-1.51Z"/>
      <path class="cls-10" d="m473.71,362c.02.55.04,1.11.05,1.66-.02-.55-.04-1.11-.05-1.66Z"/>
      <path class="cls-14" d="m368.49,68.43c-27.5,15.9-54.99,31.82-82.51,47.69-54.2,31.25-108.42,62.47-162.62,93.72-.98.57-2.18.95-2.48,2.28-2.7,1.95-1.6,4.83-1.73,7.36-.18,3.47-.1,6.96-.14,10.45-.01,25.61-.02,51.23-.04,76.84-.03,30.27-.08,60.54-.12,90.81-.61.38-1.22.75-1.83,1.13-9.23,5.24-18.45,10.51-27.71,15.69-2.14,1.2-4.52,2.16-6.54,3.4-3.76,2.3-3.73-.1-4.21-2.45.05-1.16.14-2.32.14-3.49.03-64.29.05-128.57.06-192.86,0-8.82-.1-17.65-.15-26.47.36-3.87,3.3-5.45,6.21-7.13,23.79-13.7,47.56-27.42,71.33-41.15,68.73-39.69,137.46-79.4,206.21-119.05,1.83-1.05,3.8-3.34,6.07-.53-.25,1.3-.47,2.61.1,3.89.02,12.32.03,24.63.05,36.95-.08.11-.24.24-.22.33.05.26.17.51.27.76-.04.61-.09,1.23-.13,1.84Z"/>
      <path class="cls-12" d="m118.85,397.56c.04-30.27.09-60.54.12-90.81.03-25.61.03-51.23.04-76.84,1.99,1.22,3.98,2.45,5.98,3.67.52,2.08,1.03,4.13,1.02,6.34-.06,69.83-.06,139.65-.07,209.48-5.44-.52-8.45-4.65-6.74-11.02.96-3.58-.02-6.16-1.25-9.07,1.31-1.08,1.42-2.45.94-3.95,0-1.32,0-2.64,0-3.95,0-7.01,0-14.01-.01-21.02,0-.94-.02-1.88-.02-2.83Z"/>
      <path class="cls-6" d="m78.61,192.51c.05,8.82.15,17.65.15,26.47,0,64.29-.03,128.57-.06,192.86,0,1.16-.09,2.32-.14,3.49-2.16-.84-1.53-2.74-1.53-4.29-.03-71.45-.03-142.9,0-214.35,0-1.5-.8-3.49,1.57-4.18Z"/>
      <path class="cls-6" d="m368.58,65.5c-.02-12.32-.03-24.63-.05-36.94.14-1.32.28-2.64.42-3.97,1.66,1.47.91,3.44.93,5.17.14,12.3.18,24.61.25,36.91-.16.95-.73,1.52-1.64,1.76.04-.61.09-1.23.13-1.84-.01-.36-.03-.73-.04-1.09Z"/>
      <path class="cls-6" d="m118.89,421.41c0,1.32,0,2.64,0,3.95-.58-1.32-3.36-2.63,0-3.95Z"/>
      <path class="cls-6" d="m118.85,397.56c0,.94.02,1.88.02,2.83-1.11-.03-1.81-.51-1.86-1.7.61-.38,1.22-.75,1.83-1.13Z"/>
      <path class="cls-13" d="m368.96,24.58c-.14,1.32-.28,2.65-.42,3.97-.58-1.29-.36-2.59-.11-3.9.17-.1.34-.12.53-.07Z"/>
      <path class="cls-4" d="m65.2,454.81c-.41-.12-.82-.25-1.22-.37.77-1.08.94-.17,1.22.37Z"/>
      <path class="cls-11" d="m125.95,449.41c.01-69.83.01-139.65.07-209.48,0-2.21-.51-4.26-1.02-6.34.95-.17,1.9-.34,2.85-.5,2.54,2.6,2.58.01,3.14-1.51,8.07-5.88,17.02-10.29,25.61-15.29,13.33-7.77,26.81-15.29,40.22-22.92,2.56,1.44,3.92,3.97,4.02,6.58.21,5.28.33,10.59-.35,15.9-.39,3.06.44,6.25.44,9.38.04,62.09.05,124.18.06,186.26-.64.86-2.21,1.23-1.49,2.81-6.81.54-11.65,5.29-17.19,8.38-16.84,9.38-33.41,19.24-50.1,28.89-2.87,1.66-4.63-.12-6.26-2.16Zm59.02-228.53c-.02-4.55-.91-5.1-4.93-2.81-6.98,3.97-13.88,8.1-20.83,12.13-7.14,4.14-14.32,8.2-21.43,12.38-3.33,1.96-5.33,6.93-3.4,8.82,2.29,2.25,4.41-.29,6.08-1.37,12.03-7.84,24.87-14.27,37.13-21.67,2.8-1.69,8.47-1.7,7.4-7.47Zm-35.72,103.31c.43.64.85,1.28,1.28,1.92,10.03-5.83,20.41-11.1,30.02-17.63-.38-.62-.75-1.24-1.13-1.86-10.06,5.86-20.11,11.71-30.17,17.57Zm7.72,25.19c.7-.48,1.34-.99,2.04-1.4,7.81-4.6,15.64-9.16,23.41-13.82,1.21-.73,3.99-.95,2.71-3.12-.88-1.5-2.71.15-3.89.85-6.79,4-13.38,8.35-20.53,11.74-1.75.83-3.24,2.25-4.8,3.46-.55.42-.79,1.14-.33,1.73.25.32.84.36,1.39.57Zm18.16-51.11c-.39-.59-.78-1.18-1.17-1.77-9.74,5.69-20.31,10.03-28.99,17.42.32.52.63,1.03.95,1.55,9.74-5.73,19.48-11.46,29.21-17.2Zm-28.99-22.16c1.8-1.17,3.37-2.42,5.13-3.3,7.07-3.56,13.44-8.39,20.77-11.5,1.25-.53,3.23-1.55,2.27-3.19-.9-1.54-2.24.07-3.35.68-4.34,2.42-8.74,4.74-13.07,7.2-3.89,2.21-7.71,4.53-11.54,6.84-.9.54-1.5,1.38-1.16,2.49.11.36.67.57.94.79Zm9.31,81.44c10.04-5.17,20.43-9.79,28.95-17.38-10.04,5.17-20.66,9.4-28.95,17.38Zm-8.58-56.27c.31-.1.66-.15.94-.31,8.59-4.96,17.18-9.93,25.75-14.92.73-.43,1.44-1.2.79-2-.79-.98-1.76-.33-2.64.19-4.58,2.64-9.32,5.02-13.72,7.93-3.6,2.38-7.4,4.32-11.16,6.36-.72.39-1.48.86-1.41,1.84.06.9.79.9,1.46.9Zm9.24,92.2c9.12-5.3,18.24-10.6,27.36-15.89.93-.54,1.83-1.28,1.14-2.32-.82-1.23-1.67-.08-2.48.38-6.64,3.74-13.42,7.26-19.86,11.31-2.44,1.53-6.06,2.04-6.16,6.52Zm28.32-9.38c-10.12,5.16-20.55,9.73-28.99,17.5,10.14-5.09,20.39-10.01,28.99-17.5Zm-34.61-41.04c2.83-.06,4.3-1.21,5.83-2.08,7.3-4.15,14.53-8.41,21.83-12.55,1.02-.58,2.57-.96,1.92-2.29-.65-1.33-2.06-.46-3.04.09-6.03,3.42-12.08,6.78-18.02,10.34-2.86,1.72-6.34,2.7-8.52,6.48Zm25.22-97.87c-.33-.53-.66-1.06-.99-1.59-9.92,5.88-19.85,11.76-29.77,17.64.32.54.64,1.08.96,1.62,10.14-5.54,20.49-10.73,29.81-17.66Zm9.77,121.6c-.35-1.42-1.14-1.13-2.15-.53-8.65,5.11-17.31,10.18-25.95,15.3-.81.48-1.9,1.12-1.06,2.28.58.8,1.51.39,2.24-.04,8.23-4.82,16.47-9.63,24.66-14.52.91-.55,2.22-.94,2.26-2.49Zm-30.14,7.41c1.81,1.31,2.56,1,3.29.58,7.15-4.11,14.29-8.24,21.44-12.34,1.41-.81,2.91-1.49,4.27-2.38.66-.43,1.32-1.22.69-2.07-.6-.81-1.49-.47-2.23-.06-2.17,1.19-4.35,2.36-6.48,3.63-6.86,4.11-13.7,8.25-20.98,12.65Zm-9.02-86.28c10.11-3.78,18.9-9.94,28.22-15.12.6-.34.97-1.11.55-1.7-.56-.81-1.46-.64-2.23-.18-2.85,1.7-5.75,3.33-8.5,5.18-5.96,4.01-13.03,6.28-18.04,11.83Zm9.79,121.58c5.24-.18,27.75-13.62,29.04-17.38-10.44,5.32-19.91,11.06-29.04,17.38Zm23.9-92.65c-.5-.15-.9-.42-1.09-.31-8.92,4.94-17.84,9.89-26.71,14.93-.75.42-1.81,1.35-.89,2.41.8.92,1.87.27,2.71-.23,5.7-3.38,11.49-6.63,17.02-10.27,3.03-1.99,7.23-2.54,8.95-6.52Zm5.74,33.31c-.39-.57-.78-1.14-1.17-1.71-9.85,5.1-19.42,10.67-28.57,16.93.28.48.57.97.85,1.45,9.63-5.55,19.26-11.11,28.89-16.66Zm-49.91-79.55c.42-.14,1.04-.27,1.58-.55,2.98-1.55,2.57-4.34,2.37-6.95-.08-1.01-1.02-1.1-1.92-.73-2.7,1.09-2.82,3.34-2.62,5.74.06.77-.44,1.63.59,2.49Zm1.45,24.85c.59-2.37,1.16-4.41,1.59-6.47.18-.82-.02-1.8-.96-2.02-.89-.21-1.51.54-1.92,1.28-1.35,2.48-.6,4.69,1.28,7.21Z"/>
      <path class="cls-1" d="m389.68,74.66c-.56,1.99-1.4,3.87-3.68,4.21-1.5.22-2.05-1.13-1.82-2.3.4-1.98,1.27-3.92,3.59-4.21,1.46-.18,1.92.99,1.9,2.31Z"/>
      <path class="cls-1" d="m406.74,67.18c-1.87.04-2.15-1.14-2.05-2.3.18-2.1,1.19-3.84,3.39-4.25,1.56-.3,1.91,1.04,1.75,2.24-.27,2.03-1.16,3.7-3.09,4.31Z"/>
      <path class="cls-1" d="m396.22,73.05c-1.51-.16-1.92-1.27-1.73-2.43.32-1.99,1.09-3.9,3.47-4.09,1.39-.11,2.02,1.02,1.81,2.3-.34,2.06-1.47,3.57-3.54,4.23Z"/>
      <path class="cls-12" d="m130.98,231.58c-.56,1.52-.6,4.11-3.14,1.51.86-.89,1.73-1.75,3.14-1.51Z"/>
      <path class="cls-17" d="m512.03,427.03c-3.49,1.9-6.12-.33-6.85-2.89-1.47-5.1-6.07-8.02-7.74-12.96.13,8.41-1.59,16.37-3.54,24.29-.98-.39-1-1.28-1.13-2.12,1.28-12.21,2.66-24.41,3.81-36.64.58-6.12,1.15-12.36-.47-18.35-3.57-13.24-.52-26.36.31-39.51.46-7.28,1.54-14.52,2.38-21.77.11-.97-.46-2.64,1.65-2.12.13,6.16.27,12.32.4,18.47.68,18.37,2.81,36.53,6.43,54.6,1.19,5.93,3.18,12.03,2.55,18.33-2.59-.91-4.93-2.88-7.97-1.93-.18-2.17-1.74-2.07-3.28-1.98-.85.05-1.15.52-.9,1.31.62,1.93,2.25,1.61,3.71,1.65-1.76,4.43-.34,8.07,2.75,11.35,2.97,3.15,5.65,6.53,7.87,10.26Z"/>
      <path class="cls-6" d="m512.03,427.03c-2.22-3.73-4.9-7.11-7.87-10.26-3.09-3.28-4.51-6.91-2.75-11.35.15-.33.31-.66.46-.99,3.04-.95,5.38,1.02,7.97,1.93,2.18,2.73,1.94,6,2.07,9.19.89,5.15,2.78,5.75,9.06,2.9.43.55.87,1.1,1.3,1.66-.23,2.4-.45,4.8-.68,7.19-3.22.92-6.46,2.42-9.58-.27Z"/>
      <path class="cls-15" d="m492.77,433.35c.13.84.15,1.74,1.13,2.12,1.48,1.51-.2,2.61-.49,3.89-4.31.54-8.86,2.99-12.57-1.51.33-1.47.67-2.93,1-4.4,3.66,1.26,7.3,1.2,10.93-.1Z"/>
      <path class="cls-15" d="m520.98,418.45c-6.28,2.85-8.17,2.25-9.06-2.9.58.05,1.16.1,1.74.16,1.81.9,3.61,1.45,5.32-.2,0,0,.08.21.07.21.54-.07,1.09-.14,1.64-.21.1.98.19,1.96.29,2.94Z"/>
      <path class="cls-6" d="m500.86,333.43c-.13-6.16-.27-12.32-.4-18.47.4-.17.8-.33,1.21-.5-.02,6.33,1.45,12.73-.81,18.97Z"/>
      <path class="cls-6" d="m520.7,415.51c-.55.07-1.09.14-1.64.21-.1-1.8-.86-3.89,1.93-4.43-.1,1.41-.19,2.81-.29,4.22Z"/>
      <path class="cls-6" d="m518.99,415.5c-1.71,1.65-3.51,1.1-5.32.2,1.72-1.44,3.56.2,5.32-.2Z"/>
      <path class="cls-13" d="m522.83,392.3c.43-.09.87-.17,1.29-.26.09,1.92.01,3.8-1.13,5.46-.05-1.73-.11-3.46-.16-5.2Z"/>
      <path class="cls-11" d="m415.81,226.41c-6.14.48-4.34,5.51-5.17,9.03-.61.12-1.31.24-1.32,1.01,0,.77.69.9,1.31,1.02.12.96.23,1.92.35,2.89-.06,11.96,1.21,23.86,1.09,35.84-.06,5.89-1.95,8.85-7.11,12-20.28,12.39-41.51,23.13-61.69,35.73-11.4,7.12-23.67,13.01-35.12,20.1-10.55,6.53-21.85,11.71-32.13,18.74-7.53,5.15-15.87,9.15-23.95,13.46-6.4,3.41-12.67,7.14-18.79,10.91-7.7,4.75-16.01,8.44-23.33,13.79-.93.68-1.72,1.75-3.04,1.09-1.34-.67-.93-2.02-.94-3.12-.05-4.5-.02-8.99-.02-13.49,0-60.28.21-120.57-.25-180.85-.06-8.16,2.96-12.81,9.36-16.04,6.17-3.11,11.71-7.48,17.8-10.27,6.03-2.76,11.4-6.27,17.02-9.56,6.84-4,14.26-7.08,20.87-11.4,12.76-8.33,26.25-15.37,39.31-23.17,14.01-8.36,28.58-15.78,42.54-24.2,11.68-7.04,24-13.01,35.35-20.47,6.61-4.35,13.83-7.36,20.41-11.57,2.73-1.74,3.1-.43,3.48,1.66.15.81.05,1.66.05,2.49,0,41.13-.03,82.26.06,123.4,0,2.51-2.06,5.78,1.82,7.44-1.32.85-2.12,1.66-1.35,3.54,1.33,3.25,2.28,6.66,3.39,10Zm-161.85,129.04c.35-.32.7-.64,1.04-.95,1.27-.56,2.9-.57,3.67-2.57-2.02-.07-3.33.45-3.91,2.31-.32.35-.63.7-.95,1.06-.15.19-.3.38-.45.58.2-.14.4-.28.6-.42Zm-20.96,14.02l1.04-.96c1.19-.15,1.91-.77,2.01-2.01,2.52-.18,5.35.24,6.1-3.4-1.74,1.81-4.54,1.39-6.25,3.26-1.13.15-1.9.72-2.11,1.9-.33.34-.66.68-.98,1.03-.31.18-.89.25-.32.79.17-.2.33-.4.5-.59Zm-4.06-124.05c-.82.03-1.57.2-2,1.01-1.21-.25-2.55,1.49-3.47.24-.95-1.28-.94-2.96.48-4.23.18,1.12-.33,3.4,1.9,1.93,3.14-2.07,6.94-3.26,9.95-6.93-5.05.5-7.65,4.67-11.85,5,.47-1.13.95-2.26,1.42-3.4-.59-.1-1.28-.43-1.75-.24-1.66.67-1.69,2.21-1.68,3.72,0,1.14-.04,2.29.01,3.43.07,1.4-.36,3.17,1.83,3.37,2,.18,3.01-.92,3.18-2.87.83,0,1.58-.18,2.01-.99.44-.13.87-.26,1.31-.39-.08-.13-.17-.25-.25-.38-.36.25-.72.49-1.08.74Zm95.94-20.94c-.41.31-.82.61-1.24.92-3.32.95-6.27,4.58-10.2.38-1.36-1.45-2.57.87-2.46,2.73-.02.31-.05.62-.09.93-3.03.4-4.39-.88-3.96-3.95.37-2.65-.78-4.63-3.07-5.69-2.36-1.09-3.99,1.28-5.78,2.12-2.48,1.17-.27,2.95.48,4.49.31.63.21,1.71-.13,2.36-1.79,3.39-2.06,7.95-7.15,8.85-1.97.35-1.17,2.44-1.33,3.83h0c-2.39.27-2.65,2.16-3.03,3.97-1.29.05-1.96.71-1.99,2.01-1.36-1.93-2.85-.83-3.24.42-1.26,4.03-4.75,5.59-7.77,7.66-2.82,1.93-5.47,3.96-6.82,7.25.04.27-.03.51-.21.71l.12-.08c-.68.02-1.36.04-2.05.06-.47-2.78-2.69-1.79-4.35-2.01-2.02-.28-4.8,1.1-4.52-3.21.11-1.66-2.91-2.48-4.86-2.66-2.56-.24-2.23,1.88-2.29,3.48-.08,2.17-2.46,3.22-2.65,5.16-.39,4.06-6.7,6.16-3.64,11.26-.3.64-.59,1.27-.89,1.91-2.73-.35-6.34,4.49-8.02-2.78-.83,3.68-2.45,4.45-4.76,5.14-3,.89-5.68,2.94-2.27,6.43,1.93,1.98,1.03,3.04-.77,4.29-1.76,1.22-3.6,2.47-4.98,4.08-1.97,2.29-4.71,5.16-3.33,8.04,1.2,2.5,1.06,4.15-.3,6.1,2.02,1.21,3.88.55,5.65.75-.29.9-2.04,1.12-1.48,2.18.63,1.2,1.65.1,2.44-.22,1.32-.53,2.01-1.55,2.02-2.99-1.56-2.35-1.08-4.3,1.04-6.07,2.51-2.1,5.44-3.84,6.38-7.37.16-.6,1.17-1.17,1.89-1.38,4.05-1.17,7.97-2.86,12.4-2.2,4.5.67,7.18-2.15,8.99-5.7,4.39-8.61,9.5-11.09,18.08-8.48.16.05.46-.37.68-.58.42-1.57-3.01-.93-1.73-2.79,1.53-2.22,2.96-4.94,5.14-6.18,2.81-1.58,2.28-3.13,1.43-5.22-.11-.32-.22-.64-.33-.97l.03-.04c.66,0,1.32,0,1.99.01,4.84-.14,9.57-1.7,14.67-.06-.55-2.61-2.44-2.03-3.25-3.05.75-1.49,4.28-.73,3.28-2.78-1.77-3.65,1.31-6.79.24-10.17,0-.34-.01-.68-.02-1.01.04-.31.09-.61.15-.91,4.22.19,8.04-.18,7.91-5.87,0-.37-.02-.74-.02-1.11,0,0,.06-.06.06-.06.65.03,1.29.06,1.94.08,1.97,3.25,1.05,9.83,8.22,7.1.35-.13,1.02.16,1.34.47,2.05,1.96,4.06,1.65,6.24.18,1.81-1.21,3.8-1.25,5.54.1,1.46,1.13,3.06,1.06,4.7,1.09-.51.41-1.12.75-1.5,1.26-2.74,3.65-8.34,3.36-10.55,7.71-2.48.04-4.64.71-5.99,3-2.36.8-5.15.94-6,4-2.48.04-4.65.7-5.99,3.01-3.77,1.28-7.64,2.38-10.01,5.99-1.45,0-2.89,0-3,2-3.7.4-6.86,1.77-9,4.99-6.17,1.51-11.4,4.7-16,9-1.44,0-2.9-.02-3,2-2.18.14-4.42.19-5,3-6.21.85-10.61,5.45-16.08,7.86-.52.23-.63,1.4-.92,2.13-1.1.04-2.27-.16-2.99,1.01-4.24-.1-6.48,3.17-9.36,5.37,4.26.13,7.23-1.91,9.37-5.35,1.1-.03,2.27.16,3-.99,6.04-2.69,12.12-5.32,17-10,2.05-.36,3.92-1.01,5-3,1.44,0,2.89,0,3-1.99,6.21-1.44,11.42-4.65,16-8.99,3.68-.44,6.47-2.47,8.99-5.01,1.45,0,2.89,0,3-2,3.91-1.03,7.66-2.35,9.99-6.01,2.64.28,4.79-.42,6-2.99,2.88-.01,4.94-1.26,6-4,2.48-.03,4.64-.71,6-3,5.49-2.17,11.09-4.17,14.99-8.99h.01c.39-.13,1.12-.22,1.13-.37.07-.84-.7-.54-1.14-.69.57-6.49,5.42-10.98,7.83-16.63.81-1.9,2.51-2.57,4.04-.11.53.85,2.13,2.36,2.66.85,1.88-5.31,8.19-7.89,8.44-14.08.33-.99.67-1.98,1-2.97,0,0,.03-.03.03-.03.31,0,.62,0,.92-.04,2.5-.56,6.93,1.87,6.06-3.92l1.99-.05c3.28,5.37,4.63,5.38,8,.05,2.39-.54,5.07.97,7.27-1.01,3.01-1.22,5.47-4.22,9.48-1.65,1.73,1.11,3.33-1.02,3.47-3.05.14-1.96-.05-3.95-.26-5.91-.26-2.5-.78-3.97-4.13-2.62-2.08.84-5.14,1.13-7.19-1.39-1.44-1.77-4.08-.59-4.32.22-1.51,5.02-5.09,5.49-9.54,6.07-2.09.27-3.58,1.32-5.65-.25-1.29-.97-3.56-1.02-4.73.09-2.54,2.41-5.71,3.19-8.76,4.4-2.34.93-3.75,2.34-4.59,5.11-.78,2.55-.82,6.06-4.35,7.57-1.17-1.87-3.24-3.73-3.35-5.71-.2-3.26-3.67-3.17-4.43-5.61-.84-2.71-2.97-.97-4.54-.97-2.07,0-2.3,1.56-2.34,3.13-.05,2.16-.03,4.33-.04,6.49.01,1,.02,1.99.03,2.99l-.06.09c-2.37,1.28-3,3.43-2.94,5.91l-.05.09c-1.27.66-1.08,1.79-.95,2.9l-.06.1Zm-99.96-2.07c-.88.16-2.01-.31-2.48.9-.06.17.21.66.39.69,1.21.23,1.64-.72,2.14-1.54.13-.15.27-.3.4-.46-.15.13-.3.27-.46.4Zm48.03,135.01c.89-.15,2.03.33,2.5-.89.07-.17-.21-.67-.39-.7-1.22-.23-1.66.72-2.15,1.56-.13.14-.27.29-.4.43l.43-.4Zm36.19-34.78c1.47-.92,1.9-2.4,2.13-3.98,2.18-3.19,5.91,1.47,8.66-1.65-2.36-.59-4.23-1.08-6.1-1.51-2.23-.51-2.98.77-3.14,2.7-1.39.97-1.95,2.35-2,3.99-.32.27-.76.54-.18.93.06.04.41-.32.62-.49Zm-11.13,8.85c1.41-.1,2.47-.63,2.56-2.21.01-.19-.38-.59-.56-.58-1.62.11-2.01,1.28-2.14,2.64-.33.33-.67.66-1,.98-3.46.19-6.92.38-10.38.57.05.4.11.81.16,1.21,3.52-.02,7.29,2.07,10.36-1.63l1.01-.98Zm-65.07-97.07c-1.72.35-3.46.65-4.52,2.87,2.36-.03,4.07-.39,4.54-2.84.44-.13.88-.26,1.32-.39-.09-.13-.17-.26-.26-.38-.36.25-.72.5-1.08.75Zm153.97-17.97c2.04-.37,3.92-1.02,5-3l1.3-.4c-.09-.13-.17-.25-.26-.38-.36.25-.71.5-1.07.75-2.17.16-4.42.19-5.01,3-.82.02-1.56.2-1.99,1.01-4.19-.04-6.45,3.17-9.45,5.16,3.68-.82,7.36-1.63,9.46-5.14.82-.02,1.57-.19,2-.99Zm-35.01,72.95c-1.92-.02-3.66.29-4.84,2.61,2.52-.04,3.96-.86,4.87-2.58,1.54-.25,3.08-.49,3.67-2.61-2.51-.59-3.43.53-3.7,2.58Zm-6.98-48.97c1.9,0,3.72-.17,4.94-3.24-2.59.71-4.54.64-4.95,3.23-.9.14-2.03-.34-2.51.88-.07.17.21.67.39.7,1.23.23,1.65-.72,2.13-1.57Zm-1.99,76.99c2.36-.8,5.14-.95,6.01-3.99,1.91,0,3.67-.24,4.79-2.58-2.48,0-3.89.85-4.82,2.55-2.37.79-5.13.97-6,4-1.91,0-3.68.25-4.76,2.55,2.78.79,3.72-.99,4.79-2.52Zm29.99-168.94c2.7-.03,4.87-1.08,6.42-3.35-2.55.31-4.96.91-6.45,3.32-.82.03-1.56.2-1.99,1-4.84,1.29-8.57,4.38-12.3,7.46,4.76-1.41,9.23-3.31,12.33-7.43.82-.02,1.57-.19,2-1Zm-86.98,131.95c2.8.06,4.6-1.54,7.3-4.37-3.74,1.1-6.38,1.29-7.32,4.35-1.21.24-3.02-.56-3.1,1.76,1.67.44,2.48-.5,3.12-1.73Zm-49.03-65.03c-3.51-.36-5.32,2.27-7.42,4.39,3.09-.37,5.45-2.06,7.5-4.3,1.69.05,3.2-.26,3.97-2.03,2.07-.57,4.22-1.35,4.62,2.32.43-2.21,2.69-4.58.49-5.63-2.12-1.01-4.26.81-5.15,3.27-1.71-.09-3.21.23-4.01,1.98Zm148,78.03c3.27-.69,5.81-2.56,8.01-4.98,4.65-.8,8.4-2.98,10.95-7.04,0-47.65.01-95.3.02-142.94-.21-2.49.57-5.13-1.52-7.43.17,2.48.35,4.95.52,7.43,0,47.65,0,95.31,0,142.96-2.88,2.99-7.99,2.77-10.03,6.96-3.29.68-6.81.98-7.98,5.02-.44.13-.87.26-1.31.39.08.13.17.25.25.38.36-.25.72-.49,1.08-.74Zm-139.98,79.95c-4.14,1.58-8.57,2.72-11.01,6.98-4.54.53-8.12,3.18-11.92,5.38-3.21,1.86-5.98,4.68-10.06,4.65,0-49.32,0-98.64.01-147.96.72-.14,1.59-.11,1.53-1.21,0-.11-.2-.31-.31-.31-1.09-.04-1.08.8-1.2,1.54-1.79,1.62-.97,3.76-.98,5.65-.06,47.43-.05,94.87-.06,142.3-.51,3.18-.37,3.49,2.4,2.27,7.36-3.24,14.19-7.44,20.64-12.24,4.41-1.16,8.25-3.22,10.99-7.01.44-.13.87-.26,1.31-.39l-.26-.38c-.36.25-.72.5-1.08.74Zm-12.99-26.98c-4.43.57-7.22,3.72-10.4,6.25,4.02-1.21,8.73-1.35,10.41-6.25.08-.14.15-.28.23-.42-.08.14-.16.28-.23.41Zm157.94-80c-4.59,2.11-8.88,4.67-12.38,8.39,4.28-2.59,10.04-2.96,12.42-8.35.07-.15.14-.3.22-.46-.09.14-.17.28-.26.41Zm-86.94-76.93c4.85-1.28,8.54-4.43,12.33-7.43-4.67,1.57-9.63,2.67-12.37,7.38-.44.13-.87.27-1.31.4.09.13.24.37.25.36.37-.23.73-.48,1.1-.72Zm-2.02,151.92c-5.38,1.42-10.28,3.68-14,7.99-3.99.3-6.43,3.19-9.36,5.29,3.39-1.31,7.37-1.61,9.38-5.26,5.4-1.38,10.25-3.73,13.99-8,4.81-1.33,8.93-3.84,12.47-7.38-4.25,2.3-9.41,3.02-12.49,7.36Zm-37,15.98c-5.91,1.48-10.73,4.79-15,9-7.43,2.13-13.57,6.48-19.49,11.22,5.05-.74,8.91-3.91,13.04-6.36,2.26-1.34,5.63-1.48,6.5-4.8,5.49-2.18,11.08-4.19,15-8.99.44-.14.87-.28,1.31-.42-.09-.13-.25-.37-.26-.36-.38.23-.74.48-1.1.73Zm121-215.89c6.1-1.03,10.6-4.78,15.08-8.59-5.19,2.59-10.94,4.22-15.1,8.56-.13.14-.27.29-.4.43.14-.13.29-.27.43-.4Zm-133.18,179.71c-6.02,1.38-9.33,8.62-16.49,7.65-.48-.07-1.79.4-1.45,1.54.29.98,1.15.74,2.01.72,7.22-.17,11.61-5.12,16.34-9.52.11-.25.21-.5.32-.74-.24.11-.48.23-.72.34Zm49.22,15.26c6.8-1.78,11.9-6.38,17.44-10.24-6.09,2.97-12.96,4.63-17.51,10.15-1.91.03-3.68.28-4.79,2.69,2.74.54,3.83-.98,4.86-2.61Zm-13.02-49.02c.05-1.2.1-2.4.16-3.71-4.38,1.7-4.99,4.86-4.14,8.68-.15-.07-.31-.14-.46-.21.14.09.28.17.42.26.04,1.31.72,1.97,2.03,1.97-1.27,2.15.25,5.57-2.63,6.86-3.54,1.58-2.74,3.71-1.36,6.16.31,1.55-.83,3.6.96,4.57,1.84.99,2.95-1.07,4.32-1.81,3.64-1.97,7.34-3.93,10.67-6.36,2.98-2.18,7.25-2.57,9.03-6.41h0c5.41-1.4,10.32-3.66,13.99-8.07l.94-.94c1.87-.07,4.06.39,4.9-2.66-2.02.29-3.43.49-4.84.69.13-2.27,1.52-3.05,3.6-3.04,4.26.02,4.04-2.17,2.43-5.01-.19-2.86-1.77-1.46-3.05-1-3.37-.37-6.49.36-9.38,2.1-.55.33-1.42.65-1.52,1.1-1.05,5.08-6.97,3.59-9.05,6.54-4.4,6.24-10.49,6.51-17,6.27.3-2.34,4.42-2.79,2.97-5.99.65-1.17,2.46.59,2.83-1.1.09-.4-.1-1.12-.4-1.29-1.28-.72-2.15.27-2.97,1.01-.31.28-.32.9-.47,1.37-.66,0-1.33.01-1.99.02Zm-62.96-25.98c-.46-.85-.84-1.75-1.38-2.54-1.04-1.52-2.35-3.35-4.31-2.46-1.71.78-3.44,2.46-1.52,4.75.6.72-.06,1.15-.07,1.69-.02,3.15,1.56,6.01,4.51,6.19,3.86.25,2.38-3.44,2.74-5.65.05-.32,0-.66.01-.99,3.97-.29,7.02-2.26,10.11-5.38-4.68-.47-6.59,3.74-10.09,4.39Zm152.04-2.71c3.87,2.68,7.06.86,9.61-1.95,6.42-7.06,7.8-15.56,5.95-24.62-.88-4.31-4.51-5.42-8.66-3.13-7.77,4.32-9.31,11.88-10.03,19.72-.33,3.63-.1,7.34,3.13,9.97Zm-38,6.78c-1.49,3.41-.9,6.88-.07,10.28,1.13,4.68,4.84,6.23,9.11,3.94,7.59-4.07,12.6-20.37,8.42-27.98-1.61-2.94-3.85-5.25-7.48-2.29-7.13,2.98-8.86,9.32-9.98,16.04Zm-120.03-72.05c-5.43,1.63-7.99,4.64-8.02,9.49-.03,4.49-.11,8.98.05,13.47.06,1.85-1.14,4.61,1.03,5.33,1.74.58,4.02-.48,5.97-1.67,10.53-6.42,21.14-12.73,31.82-18.9,17.28-9.99,34.96-19.28,51.8-30.03,1.74-1.11,3.36-1.93,3.32-4.42-.11-6.48-.04-12.97-.03-19.46,0-2.71-1.25-3.15-3.5-2.05-1.19.58-2.58.83-3.65,1.56-11,7.48-22.76,13.67-34.25,20.31-11.2,6.47-22.57,12.66-33.72,19.23-2.4,1.42-5.45,2.26-6.83,5.15-1.33.66-2.66,1.33-3.99,1.99Zm184.91-93.87c0-3.5.01-7,0-10.49-.01-2.06-.56-2.56-2.71-1.53-4.33,2.07-7.88,5.28-12.21,7.39-16.18,7.86-30.88,18.33-46.71,26.88-9.49,5.13-19.3,9.84-28.21,16.07-2.83,1.98-4.46,3.94-4.19,7.64.36,4.8,0,9.66.13,14.48.04,1.72-.92,3.89,1.03,5.05,2.18,1.29,3.64-.54,5.22-1.72,3.06-2.27,5.91-5.13,9.34-6.52,12.65-5.11,23.59-13.24,35.59-19.52,12.08-6.32,23.46-13.99,35.67-20.2,4.35-2.21,8.53-5.28,7.14-11.56-.42-1.9-.07-3.98-.07-5.98Zm-137.03,222.28c-.29-.49-.57-.98-.86-1.48-15.21,8.05-29.9,16.98-44.71,25.71.3.53.61,1.05.91,1.58,14.88-8.6,29.77-17.21,44.65-25.81Zm-24.82-102.98c-7.75,3.71-15.77,6.9-21.78,13.2,7.84-3.53,15.43-7.45,21.78-13.2Zm45.78-19.87c-.32-.58-.64-1.16-.95-1.74-8.58,4.95-17.16,9.91-25.74,14.86.29.51.58,1.03.87,1.54,8.61-4.89,17.22-9.78,25.82-14.67Zm63.33,37.24c.23.41.47.82.7,1.23,5.63-3.24,11.27-6.48,16.9-9.72-.25-.44-.49-.88-.74-1.31-5.94,2.7-11.83,5.49-16.85,9.8Zm-123.34,119.29c-1.66.76-4.01,1.49-5.95,2.82-1.57,1.08-.55,2.65.4,3.86.64.83.74,2.43,2.39,1.9,1.94-.63.4-1.87.39-2.83,0-2.42,1.5-3.03,3.53-3.12.99-.05,2.13-.1,1.88-1.56-.19-1.07-1.2-.89-2.64-1.07Zm148.43-75.38c.23.5.45,1,.68,1.51,4.9-2.32,9.65-4.95,14.11-8.12.55-.39.82-1.21.11-1.64-.46-.28-1.36-.33-1.8-.05-4.4,2.72-8.75,5.53-13.11,8.31Zm-85.34,44.46c-.23-4.21-4.49-1.03-6.16-3.09-.5-.62-2.62,1-2.5,2.07.33,2.79,3.05,3.13,5.14,3.69,1.8.49,3.16-.53,3.52-2.67Zm-31.14-111.21c-3.69,1.88-6.79,3.52-9.95,5.04-.91.44-2.85,1.49-2.8.49.13-2.36-1.08-1.51-1.99-1.27-1,.26-1.06,1.2-.77,2.01.36,1.01,1.2,1.49,2.25,1.66,2.67.43,11.13-4.34,13.25-7.94Zm95.6,79.75c-5.01,1.56-9.92,3.56-13.46,7.88,5.15-1.36,9.44-4.25,13.46-7.88Zm21.2-6.38c5.26-1.43,9.65-4.41,13.81-7.8-5.29,1.34-9.76,4.19-13.81,7.8Zm-61.34,45.31c.25.46.5.92.75,1.39,4.62-2.49,9.67-4.28,12.8-9.26-4.52,2.63-9.04,5.25-13.55,7.88Zm-20.93,7.9c-4.34,1.45-8.7,3-11.78,6.77,4.75-.72,8.24-3.75,11.78-6.77Zm-12.85-21.29c5.25-1.32,8.11-4.39,11.61-6.17.29-.15.52-.91.4-1.28-.23-.71-1.1-1.03-1.58-.62-2.97,2.59-7.17,3.59-10.44,8.06Zm-40.72-85.28c-5.31.69-1.57,6.78-4.93,8.59,4.66-1.03,5.87-4.14,4.93-8.59Zm-3.87,17.75c-.21-.52-.43-1.04-.64-1.56-4.09,1.47-7.8,3.56-10.94,6.58.23.39.47.78.7,1.17,3.63-2.06,7.25-4.13,10.88-6.19Zm16.46,67.97c2.86.57,3.03-3.07,5.29-2.53,2.04.49,4.05,1.2,5.09-1.73q-8.59.18-10.38,4.26Zm96.3-156.41c-.24-.42-.47-.84-.71-1.25-3.24,1.92-6.47,3.84-9.71,5.76.23.38.47.77.7,1.15,3.57-1.3,6.8-3.22,9.72-5.66Zm-15.35,8.3c-3.77,1.01-7.34,2.39-10.88,6.55,5.06-1.55,7.98-4.03,10.88-6.55Zm-75.77,195.3c-4.16.04-7.02,2.82-10.07,5.25,4.15-.05,6.82-3.09,10.07-5.25Zm-37.43,10.13c2.77-2.31,5.74-4.32,9.27-5.46-5.18-1.43-7.13,2.16-9.27,5.46Zm127.49-72.87c-.17-.41-.35-.81-.52-1.22-2.25,1.14-4.52,2.24-6.74,3.45-.71.39-1.38,1.12-.75,1.98.59.81,1.52.54,2.2.06,1.96-1.38,3.87-2.84,5.81-4.27Zm-126.95,14.13c3.24-.59,6.03-1.82,8.62-5.28-4.14,1.01-6.76,2.56-8.62,5.28Zm45.76,43.42c-3.01-.27-5.5.61-7.37,3.57,3.59.65,5.24-1.93,7.37-3.57Zm-22.59-2.9c1.8-4.55,4.62,0,6.76-1.21-5.04-3.43-5.21-3.42-6.76,1.21Zm-28.22-129.74c-.92,3.67-.23,7.47-.96,11.16,2.3-3.56,1.07-7.4.96-11.16Zm3.66,153.53c4.04.27,5.82-.99,7.86-2.99-3.51-1.13-4.6,1.59-7.86,2.99Zm129.34-79.33c3-1.23,5.1-1.36,6.09-4.05-2.76-.09-4.48.63-6.09,4.05Zm-27.07,20.96c2.57.64,3.9-.73,5.38-2.8-3.04-.68-4.13,1.25-5.38,2.8Zm59.6-28.93c-3.31-.43-4.45,1.2-6.01,3.83,2.94-.45,4.32-1.69,6.01-3.83Zm-31.67-133.58q4.8-.96,5.8-3.43c-2,.44-3.68,1.16-5.8,3.43Zm12.57,144.36c-2.67.71-4.86.61-5.34,3.11,2.01-.18,3.91-.53,5.34-3.11Zm-17.89-12.63c-1.84.59-3.87.8-5.03,3,3.07.88,3.96-1.33,5.03-3Zm-7.94,27.38c-2.81.92-4.61,1.42-5.38,3.46,1.83-.45,3.83-.62,5.38-3.46Zm-36.99-129.55c-2.91.27-4.6,1.06-6.46,3.41,2.93-.25,4.63-1.03,6.46-3.41Zm-8.94,128.36c-2.37-.06-4.3-.79-4.88,1.8,1.96.83,3.14-.18,4.88-1.8Zm83.23-19.61c-.08-.92-.8-1.09-1.34-.88-.68.26-1.43.75-1.76,1.36-.34.63.26,1.28.98,1.08.85-.24,1.86-.48,2.13-1.56Zm-7.07,4.29c.22-.8-.22-1.08-.72-1.17-1.15-.22-1.94.38-2.31,1.39-.09.24.41.99.66,1,1.05.06,1.87-.49,2.37-1.23Zm-48.14-123.93c1.74.39,2.76-.08,3.41-1.82-1.75-.41-2.77.08-3.41,1.82Zm50.94,46.1c1.73.21,2.84-.13,3.4-2-1.72-.21-2.83.11-3.4,2Zm-66.99,100.17c2.16.53,3.51.51,4.27-1.28-1.67-.91-2.73.1-4.27,1.28Zm78.81-183.34c-.31.23-.66.36-.7.55-.04.22.19.49.31.74.29-.23.6-.43.84-.7.03-.03-.29-.39-.45-.59Zm-149.47,168.37c-.28-.12-.63-.4-.82-.32-.21.09-.26.52-.39.81.28.12.63.4.83.32.2-.08.26-.52.38-.8Zm38.05,48.3c-.15-.24-.24-.61-.43-.66-.21-.06-.5.16-.76.26.19.3.38.6.58.91.2-.17.4-.33.62-.51Zm21.6-163.36c.12-.28.24-.56.37-.85-.28-.12-.63-.4-.83-.32-.2.08-.26.52-.39.8.28.12.57.24.85.36Zm44.8-27.28c-.24.15-.61.24-.67.43-.06.21.16.5.26.75.3-.19.61-.39.91-.58-.16-.2-.33-.4-.5-.61Zm3.6,74.69c-.22-.29-.35-.64-.54-.67-.22-.04-.49.19-.74.31.22.29.45.57.67.86.2-.16.4-.33.61-.49Zm-108.28-.13c.14.24.24.61.43.66.21.06.5-.17.76-.27-.19-.3-.38-.6-.57-.9-.2.17-.4.33-.62.51Zm176.98-1.22c-.05.14-.13.28-.13.42,0,.05.22.09.34.13.05-.14.13-.28.13-.42,0-.05-.22-.09-.34-.13Zm-176.02,90.7l.23.16.04-.26-.27.09Zm68.01-5.94l.24.17.04-.26-.28.1Z"/>
      <path class="cls-5" d="m415.81,226.41c-1.11-3.34-2.05-6.75-3.39-10-.77-1.88.03-2.69,1.35-3.54,2.68-.92,5.1-2.28,7.09-4.32,1.34.89,2.01,1.99,1.1,3.58-1.59.84-3.17,1.7-4.77,2.52-1.37.7-1.98,1.64-1.23,3.16,1.92,3.86,1.95,8.45,4.73,11.97-.65-2.86-.71,4.04-1.74.09-.35-1.33-2.06-2.31-3.15-3.45Z"/>
      <path class="cls-9" d="m426.6,201.13c1.79.44,3.76-.8,5.83.77-3.04,2.23-5.75,4.48-9.57,4.55.11-2.57,1.2-4.46,3.74-5.32Z"/>
      <path class="cls-10" d="m216.84,402.98c.05,2.4-1.36,2.58-3.2,2.09.76-1.17,1.95-1.67,3.2-2.09Z"/>
      <path class="cls-8" d="m417.9,247.39c-.33.04-.66.06-.99.05-.02-.32-.03-.65-.03-.97.34.31.68.61,1.02.92Z"/>
      <path class="cls-4" d="m488.87,218.45c.84-.41,1.68-.82,2.52-1.23.49.09.99.18,1.48.27,3.65,3.82,7.88,2.12,11.81.87,1.39-.44,2.69-.88,4.13-.95-4.16,7.42-11.91,8.26-19.84,2.14-.03-.37-.07-.73-.1-1.1Z"/>
      <path class="cls-4" d="m511.13,217.39s.49,0,.48,0c-.15.67-.31.72-.48,0Z"/>
      <path class="cls-7" d="m420.69,229.77c-2.78-3.52-2.82-8.11-4.73-11.97-.75-1.52-.15-2.46,1.23-3.16,1.6-.82,3.18-1.67,4.77-2.52,5.87-.61,10.8-3,14.56-7.62,3.54-2.54,5.59-2.24,6.84,2.54,1.74,6.66,4.18,13.14,6.41,19.66.37,1.07.09,2.86,2.13,2.7.67,2.68-.04,5.47,1.04,8.21.65,1.63-1.65,2.16-2.85,2.87-5.25,3.09-10.55,6.08-15.83,9.11-6.24-3.81-7.59-10.38-9.27-16.7-.64-2.43-1.41-4.08-4.3-3.12Z"/>
      <path class="cls-12" d="m410.63,237.46c-.61-.12-1.31-.25-1.31-1.02,0-.77.7-.89,1.32-1.01,0,.68,0,1.35,0,2.03Z"/>
      <path class="cls-6" d="m480.84,437.85c3.71,4.51,8.25,2.06,12.57,1.51.39,2.16.82,4.32,1.16,6.49.61,3.79-1.2,5.75-4.88,5.72-4.95-.04-9.28,1.7-13.75,3.58-5.97,2.52-12.21,2.91-18.31.07-1.5-.7-3.05-1.56-3.02-3.56.03-1.78,1.49-2.56,2.82-3.13,4.85-2.09,9.81-3.95,14.64-6.1,3.01-1.34,5.85-3.05,8.77-4.59Z"/>
      <path class="cls-14" d="m521.61,427.3c.23-2.4.45-4.79.68-7.19,2.68-2.31,3.85-5.72,6.12-8.3,1.23-1.41,2.04-3.52,4.49-3.38,0,0-.05-.04-.05-.04-.88,3.73-4.55,5.57-6.06,8.8-1.45,3.11-5.53,5.68-2.61,9.97-.85.05-1.71.09-2.56.14Z"/>
      <path class="cls-7" d="m289.86,498.15c-2.94,6.23-9.07,8.64-14.68,10.8-24.11,9.28-48.22,8.92-71.87-1.91-4.8-2.2-9.17-5.24-12.47-9.54.72-1.29,1.44-2.47,2.69-3.46,7.66-6.09,16.66-9.2,25.89-11.7,13.05-3.54,26.27-2.44,39.36-.43,11.05,1.7,21.31,5.45,28.56,14.8.55.71,1.67.97,2.52,1.44Z"/>
      <path class="cls-12" d="m289.86,498.15c-.85-.47-1.97-.73-2.52-1.44-7.25-9.35-17.5-13.1-28.56-14.8-13.09-2.01-26.31-3.1-39.36.43-9.23,2.5-18.23,5.6-25.89,11.7-1.25.99-1.97,2.17-2.69,3.46-3-2.45-3.2-4.41-.13-7.48,9.99-10.02,22.61-14.3,35.94-16.28,18.35-2.73,36.37-1.04,53.27,7.51,4.46,2.26,8.55,5.04,11.88,8.79,3.4,3.83,2.89,5.79-1.94,8.11Z"/>
      <path class="cls-16" d="m185.96,486.69c0-10.61,6.21-16.41,13.16-20.11,26.55-14.16,53.88-13.91,81.19-1.93,7.18,3.15,12.58,8.5,15.77,15.9.84,1.95.91,3.81.67,7.02-13.68-20.02-33.8-23.97-54.9-23.98-20.98,0-41.11,3.73-55.87,23.11Z"/>
      <path class="cls-16" d="m227.07,536.92c-15.31-2.32-29.7-6.64-40.78-18.4-3.29-3.49-5.75-7.59-6.17-12.18-.75-8.23-.78-16.55.28-24.81.95,1.54.67,3.29.48,4.88-1.17,9.78,4.53,15.76,11.44,21.12,9.29,7.2,20.22,10.34,31.49,12.63,1.11.22,2.38.05,3.15,1.19.19,4.99-.68,10.04.82,14.96.04.12-.46.4-.71.61Z"/>
      <path class="cls-20" d="m304.9,482.3c-.58.02-1.17.03-1.75.05-1.19-3.06-2.39-6.11-3.58-9.17.49-.45.98-.9,1.47-1.35,0,0,.04-.05.04-.05,1.2-.28,2.41-.57,3.61-.85,7.47-1.66,13.9-5.87,20.93-8.62,6.48-2.53,12.8-5.46,19.19-8.21.13,1.58-.25,2.44-1.96,3.38-10.49,5.78-21.08,11.43-30.56,18.87-2.49,1.95-7.27,1.02-7.4,5.94Z"/>
      <path class="cls-14" d="m524.57,392.15c.05-1.91.09-3.83.14-5.74,2.38-5.78,3.04-12.12,5.94-17.74,2.28-4.41,4.4-8.9,7.98-12.46.26.26.53.52.79.77-6.05,8.8-10.5,18.27-12.01,28.95-.25,1.78-.29,3.6-.43,5.39-.66.71-1.44,1.05-2.42.83Z"/>
      <path class="cls-14" d="m539.88,401.43c3.87-7.07,10.48-10.41,17.64-13.01-6.36,3.68-11.43,9.12-17.67,12.97l.03.04Z"/>
      <path class="cls-14" d="m537.89,402.43c-.3,2.33-1.65,3.64-3.93,4.04l-.13-.11c.89-1.78,2-3.35,4.02-3.99,0,0,.05.05.05.05Z"/>
      <path class="cls-2" d="m538.86,389.37c.06-.69.05-1.43,1.02-1.5-.43.44.86,2.04-1.02,1.5Z"/>
      <path class="cls-2" d="m537.17,393.34c-.1-.99-.35-2.02.77-2.65-.26.89-.51,1.77-.77,2.65Z"/>
      <path class="cls-2" d="m535.82,396.08c.35-.21.71-.42,1.06-.64-.13.47.24,1.2-.62,1.27-.13.01-.29-.41-.44-.63Z"/>
      <path class="cls-14" d="m539.85,401.39c-.37.89-1.03,1.21-1.96,1.05,0,0-.05-.05-.05-.05.39-.93,1.07-1.25,2.04-.95,0,0-.03-.04-.03-.04Z"/>
      <path class="cls-14" d="m533.95,406.48c.12.92-.26,1.55-1.11,1.91,0,0,.05.04.05.04-.31-.97,0-1.65.93-2.06,0,0,.13.11.13.11Z"/>
      <path class="cls-14" d="m538.64,356.21c1.92-3.57,4.94-6.02,8.37-8.11-1.5,3.84-4.87,6.09-7.59,8.88-.26-.26-.52-.51-.78-.77Z"/>
      <path class="cls-10" d="m301.04,471.84c-1.41-.82-3.23-1.53-2.08-3.66.51-.94,1.91-1.12,2.68-.55,2.1,1.56-1.69,2.57-.56,4.16,0,0-.05.05-.05.05Z"/>
      <path class="cls-13" d="m368.58,65.5c.01.37.03.73.04,1.09-.09-.25-.22-.5-.27-.76-.02-.09.14-.22.22-.33Z"/>
      <path class="cls-1" d="m184.97,220.88c1.08,5.77-4.59,5.78-7.4,7.47-12.26,7.4-25.1,13.83-37.13,21.67-1.66,1.09-3.78,3.62-6.08,1.37-1.93-1.89.08-6.87,3.4-8.82,7.11-4.18,14.29-8.24,21.43-12.38,6.95-4.03,13.85-8.16,20.83-12.13,4.03-2.29,4.91-1.73,4.93,2.81Z"/>
      <path class="cls-5" d="m149.25,324.19c10.06-5.86,20.11-11.71,30.17-17.57.38.62.75,1.24,1.13,1.86-9.61,6.52-19.98,11.8-30.02,17.63-.43-.64-.85-1.28-1.28-1.92Z"/>
      <path class="cls-8" d="m156.97,349.38c-.55-.21-1.14-.25-1.39-.57-.47-.59-.22-1.31.33-1.73,1.56-1.21,3.05-2.63,4.8-3.46,7.15-3.39,13.74-7.74,20.53-11.74,1.19-.7,3.02-2.35,3.89-.85,1.27,2.17-1.51,2.4-2.71,3.12-7.77,4.67-15.61,9.22-23.41,13.82-.7.41-1.34.92-2.04,1.4Z"/>
      <path class="cls-8" d="m175.13,298.27c-9.74,5.73-19.48,11.46-29.21,17.2-.32-.52-.63-1.03-.95-1.55,8.68-7.39,19.25-11.73,28.99-17.42.39.59.78,1.18,1.17,1.77Z"/>
      <path class="cls-8" d="m146.15,276.11c-.27-.21-.82-.43-.94-.79-.35-1.11.25-1.95,1.16-2.49,3.83-2.31,7.65-4.63,11.54-6.84,4.32-2.46,8.72-4.78,13.07-7.2,1.1-.61,2.45-2.23,3.35-.68.96,1.64-1.03,2.66-2.27,3.19-7.33,3.11-13.7,7.94-20.77,11.5-1.76.88-3.33,2.13-5.13,3.3Z"/>
      <path class="cls-8" d="m155.45,357.55c8.29-7.97,18.91-12.21,28.95-17.38-8.52,7.59-18.91,12.2-28.95,17.38Z"/>
      <path class="cls-8" d="m146.87,301.28c-.68,0-1.4,0-1.46-.9-.07-.98.69-1.45,1.41-1.84,3.76-2.05,7.57-3.98,11.16-6.36,4.39-2.91,9.14-5.29,13.72-7.93.89-.51,1.85-1.17,2.64-.19.65.8-.06,1.58-.79,2-8.57,4.99-17.16,9.96-25.75,14.92-.28.16-.62.21-.94.31Z"/>
      <path class="cls-8" d="m156.11,393.49c.11-4.48,3.72-4.99,6.16-6.52,6.44-4.05,13.22-7.57,19.86-11.31.81-.46,1.66-1.6,2.48-.38.69,1.04-.21,1.78-1.14,2.32-9.12,5.29-18.24,10.59-27.36,15.89Z"/>
      <path class="cls-8" d="m184.43,384.11c-8.6,7.5-18.85,12.41-28.99,17.5,8.44-7.77,18.87-12.34,28.99-17.5Z"/>
      <path class="cls-8" d="m149.82,343.07c2.18-3.78,5.66-4.76,8.52-6.48,5.94-3.56,11.99-6.93,18.02-10.34.98-.56,2.39-1.42,3.04-.09.65,1.33-.9,1.71-1.92,2.29-7.3,4.14-14.53,8.4-21.83,12.55-1.53.87-3,2.03-5.83,2.08Z"/>
      <path class="cls-8" d="m175.04,245.2c-9.32,6.94-19.67,12.12-29.81,17.66-.32-.54-.64-1.08-.96-1.62,9.92-5.88,19.85-11.76,29.77-17.64.33.53.66,1.06.99,1.59Z"/>
      <path class="cls-8" d="m184.82,366.8c-.04,1.55-1.35,1.94-2.26,2.49-8.19,4.89-16.43,9.7-24.66,14.52-.73.43-1.66.84-2.24.04-.84-1.16.25-1.8,1.06-2.28,8.64-5.12,17.31-10.19,25.95-15.3,1.01-.6,1.81-.89,2.15.53Z"/>
      <path class="cls-8" d="m154.68,374.21c7.28-4.4,14.12-8.54,20.98-12.65,2.12-1.27,4.31-2.43,6.48-3.63.75-.41,1.63-.75,2.23.06.63.85-.02,1.64-.69,2.07-1.37.88-2.86,1.56-4.27,2.38-7.15,4.11-14.3,8.23-21.44,12.34-.73.42-1.48.74-3.29-.58Z"/>
      <path class="cls-8" d="m145.66,287.93c5.01-5.55,12.07-7.81,18.04-11.83,2.75-1.85,5.66-3.47,8.5-5.18.76-.46,1.66-.62,2.23.18.42.59.05,1.36-.55,1.7-9.32,5.18-18.11,11.34-28.22,15.12Z"/>
      <path class="cls-8" d="m155.45,409.51c9.13-6.32,18.6-12.07,29.04-17.38-1.28,3.76-23.8,17.21-29.04,17.38Z"/>
      <path class="cls-8" d="m179.35,316.86c-1.72,3.98-5.92,4.53-8.95,6.52-5.53,3.64-11.32,6.89-17.02,10.27-.84.5-1.91,1.15-2.71.23-.92-1.06.14-1.98.89-2.41,8.87-5.03,17.79-9.99,26.71-14.93.19-.11.59.16,1.09.31Z"/>
      <path class="cls-8" d="m185.09,350.17c-9.63,5.55-19.26,11.11-28.89,16.66-.28-.48-.57-.97-.85-1.45,9.16-6.25,18.72-11.83,28.57-16.93.39.57.78,1.14,1.17,1.71Z"/>
      <path class="cls-5" d="m135.18,270.63c-1.03-.87-.53-1.72-.59-2.49-.2-2.41-.07-4.65,2.62-5.74.9-.36,1.84-.27,1.92.73.2,2.61.62,5.4-2.37,6.95-.54.28-1.16.41-1.58.55Z"/>
      <path class="cls-10" d="m136.63,295.48c-1.88-2.52-2.63-4.73-1.28-7.21.41-.74,1.03-1.49,1.92-1.28.94.22,1.13,1.2.96,2.02-.44,2.06-1,4.1-1.59,6.47Z"/>
      <path class="cls-8" d="m501.88,404.43c-.15.33-.31.66-.46.99-1.47-.04-3.1.28-3.71-1.65-.25-.79.05-1.26.9-1.31,1.54-.1,3.1-.19,3.28,1.98Z"/>
      <path class="cls-19" d="m403.89,99.61c0,2-.35,4.08.07,5.98,1.4,6.28-2.79,9.35-7.14,11.56-12.21,6.21-23.59,13.88-35.67,20.2-11.99,6.27-22.94,14.41-35.59,19.52-3.43,1.39-6.28,4.25-9.34,6.52-1.59,1.18-3.05,3-5.22,1.72-1.95-1.15-.99-3.33-1.03-5.05-.12-4.83.23-9.68-.13-14.48-.27-3.7,1.36-5.66,4.19-7.64,8.91-6.24,18.73-10.95,28.21-16.07,15.83-8.55,30.53-19.03,46.71-26.88,4.33-2.1,7.89-5.32,12.21-7.39,2.15-1.03,2.7-.52,2.71,1.53.02,3.5,0,7,.01,10.49Zm-64.96,39.89c8.57-2.09,15.55-7.25,22.81-11.85.86-.55,2.24-1.01,1.39-2.86-3.54.84-6.22,3.38-9.41,4.82-4.96,2.24-8.75,7.19-14.95,6.61.62-2.04,2.67-2.33,4.15-3.21,6.71-4,13.53-7.83,20.27-11.79,1.4-.82,3.55-1.23,2.91-4.58-9.77,5.67-19.26,11-28.55,16.66-2.69,1.64-1.12,2.72,1.18,2.98.06,1.06.11,2.12.17,3.19-.94.13-1.97.13-2.23,1.34-.03.13.37.5.59.52,1.3.11,1.55-.81,1.68-1.82Zm-11.28,7.59c1.53-2.21,1.07-4.68.76-7.06-.24-1.87-1.25-3.45-3.2-3.87-2.19-.48-3.66.54-4.2,2.77-4.59,2.58-4.27,7.44-4.85,11.6-.22,1.58.78,4.26,3.2,5.08,2.49.85,3.97-.87,5.54-2.3,1.82-1.67,2.03-4.05,2.75-6.21Zm58.4-35.62c-6.82,3.76-13.6,7.48-20.33,11.28-.39.22-.72,1.29-.52,1.69.65,1.33,1.69.56,2.48.11,5.97-3.4,11.93-6.82,17.85-10.3.66-.39,1.24-1.11.52-2.78Z"/>
      <path class="cls-19" d="m222.97,191.49c1.38-2.89,4.43-3.73,6.83-5.15,11.14-6.57,22.51-12.76,33.72-19.23,11.49-6.64,23.26-12.82,34.25-20.31,1.07-.73,2.46-.98,3.65-1.56,2.25-1.09,3.5-.66,3.5,2.05-.01,6.49-.07,12.97.03,19.46.04,2.49-1.58,3.31-3.32,4.42-16.84,10.75-34.52,20.04-51.8,30.03-10.68,6.18-21.29,12.48-31.82,18.9-1.95,1.19-4.23,2.25-5.97,1.67-2.17-.72-.96-3.48-1.03-5.33-.16-4.49-.07-8.98-.05-13.47.03-4.86,2.59-7.86,8.02-9.49-2.3,3.8-.24,8.57-2.81,12.39-.68,1.01-.43,2.61.63,3.71,1.22,3.27,6.3,5.01,8.16,2.57,1.93-2.53,4.14-5.11,4.12-8.64.96.34,1.19,2.37,2.74,1.28,1.1-.78,1.39-1.93.41-2.97-.85-.9-1.17-1.85-1.31-3.07-.79-7.22-.82-7.22-7.94-7.26Zm23.62-2.67c6.01-3.52,12.03-7.03,18.03-10.57.98-.58,2.37-1.3,1.67-2.63-.93-1.76-1.99-.08-2.79.38-8.23,4.67-16.41,9.43-24.61,14.16-1.36.79-3.01,1.41-2.31,3.46.46.12.66.24.77.19,2.48-1.31,4.95-2.64,7.43-3.97.41,2.22-.91,3.3-2.69,4.06-1.96.84-3.73,1.95-5.14,3.58l-.41-.23c.14.07.28.15.42.22,1.02,3.71,2.87.95,4.01.31,14.37-8.08,28.68-16.27,42.99-24.44,1.27-.72,3.27-1.59,2.31-3.14-1.01-1.63-2.72-.03-3.91.65-10.38,6.03-20.69,12.18-31.11,18.15-1.31.75-3.22,2.42-4.66-.17Z"/>
      <path class="cls-20" d="m328.9,212.41c.01-2.16-.01-4.33.04-6.49.04-1.56.27-3.14,2.34-3.13,1.57,0,3.7-1.74,4.54.97.75,2.44,4.23,2.35,4.43,5.61.12,1.97,2.18,3.83,3.35,5.71,3.52-1.51,3.57-5.02,4.35-7.57.85-2.78,2.25-4.18,4.59-5.11,3.05-1.21,6.23-1.99,8.76-4.4,1.17-1.11,3.44-1.06,4.73-.09,2.07,1.57,3.56.53,5.65.25,4.45-.58,8.03-1.05,9.54-6.07.24-.81,2.88-1.99,4.32-.22,2.06,2.52,5.11,2.23,7.19,1.39,3.35-1.35,3.87.11,4.13,2.62.21,1.96.4,3.96.26,5.91-.14,2.03-1.75,4.16-3.47,3.05-4-2.58-6.47.43-9.48,1.65-1.1-1.43-2.66-1.04-4.11-1.04-4.22,0-8.48.4-12.64-.1-3.65-.44-5.5.86-6.5,4.08l-.04.06c-.91.36-1.03,1.11-.96,1.96,0,0-.03.03-.03.03-1.16.33-2.04,1.14-2.33,2.21-.22.82.74.72,1.33.76-.26,6.19-6.56,8.77-8.44,14.08-.53,1.51-2.14,0-2.66-.85-1.53-2.46-3.23-1.79-4.04.11-2.41,5.64-7.27,10.13-7.83,16.63,0,.35,0,.69.01,1.04,0,0-.01.01-.01.01-.99,0-1.98,0-2.97,0-1.64-.02-3.25.04-4.7-1.09-1.74-1.35-3.73-1.31-5.54-.1-2.18,1.46-4.19,1.78-6.24-.18-.32-.31-.99-.6-1.34-.47-7.17,2.73-6.26-3.85-8.22-7.1.66,0,1.31,0,1.97,0,.19.14.38.29.57.43-.15-.19-.29-.38-.44-.56.29-1.3.58-2.6.88-3.9l.07-.07c.92-.34,1.05-1.08.96-1.92l.04-.05c1.39-.06,2.93-.5,2.45-2.1-.39-1.31-1.59,0-2.42.19-.11-1.86,1.1-4.18,2.46-2.73,3.93,4.19,6.88.57,10.2-.38.08.3.13.61.15.93-.31.35-.62.7-.93,1.05-.13.18-.25.36-.38.54.17-.13.35-.27.52-.4.35-.31.7-.62,1.05-.93.82-.49.97-1.24.83-2.1,0,0,.06-.1.06-.1,1.34-.63,1.04-1.8.95-2.9,0,0,.05-.09.05-.09,2.44-1.25,3-3.42,2.94-5.91,0,0,.06-.09.06-.09,1.29-.55,1.04-1.75,1.17-2.79.36-.65.72-1.29,1.08-1.94,1.19-1.08,2.25-2.19.93-3.98-1.76.95-1.04,2.46-1.39,3.62-.34.66-.68,1.31-1.02,1.97-.27.06-.54.11-.81.13Zm8.12,22.17c.36-.65.73-1.3,1.09-1.96.31-.68.63-1.37.94-2.05.12-.2.24-.4.36-.61-.2.13-.39.25-.59.38-.35.67-.7,1.33-1.05,2-.33.66-.67,1.33-1,1.99-.12.21-.24.42-.36.63.2-.13.4-.26.6-.38Zm18.8-18.23c-.43.46-.86.91-1.29,1.37l.62.43c.29-.53.59-1.06.88-1.6.13-.2.25-.4.38-.6-.2.13-.39.27-.59.4Zm-20.99,21c-.82.47-1.65.97-1.6,2.07.02.54.45.87.96.61,1.02-.53.74-1.59.85-2.47.13-.21.26-.42.39-.63-.2.14-.4.28-.6.42Zm13.11-14.85c1.74-.55,4.33,1.18,5.12-1.92.11-.21.23-.41.34-.62-.21.11-.43.21-.64.32-1.91.06-3.54.78-4.91,2.1-1.53.29-3.43-.71-5.02,1.62,2.28.15,3.78-.34,5.11-1.51Zm44.24-24.16c-5.13-1.59-14.18.83-16.59,4.51,6.58,2.2,11.88-.07,16.59-4.51Z"/>
      <path class="cls-20" d="m296.89,245.39c1.07,3.37-2.01,6.52-.24,10.17,1,2.05-2.54,1.29-3.28,2.78.8,1.02,2.7.44,3.25,3.05-5.1-1.64-9.83-.08-14.67.06-.24-.53-.4-1.46-.74-1.53-1.07-.22-1.16.72-1.24,1.52,0,0-.03.04-.03.04-.36.3-.73.6-1.09.89-.32.34-.64.68-.96,1.02-.81.43-1.01,1.16-1.02,2-.34.32-.68.64-1.02.95-.34.33-.68.66-1.02.98-.14.21-.28.43-.43.64.21-.14.42-.29.64-.43.32-.34.65-.68.98-1.02.32-.34.64-.68.96-1.01.8-.43,1.04-1.14,1.04-1.98.34-.32.67-.64,1.01-.96.41-.04.83-.07,1.24-.11.84,2.09,1.38,3.64-1.43,5.22-2.19,1.23-3.62,3.95-5.14,6.18-1.28,1.86,2.15,1.22,1.73,2.8-.23.21-.53.62-.68.58-8.58-2.61-13.69-.13-18.08,8.48-1.81,3.55-4.49,6.37-8.99,5.7-4.43-.66-8.35,1.03-12.4,2.2-.72.21-1.73.78-1.89,1.38-.95,3.53-3.88,5.27-6.38,7.37-2.12,1.78-2.6,3.72-1.04,6.07-.99.34-1.99.68-2.98,1.02-1.77-.2-3.63.45-5.65-.75,1.36-1.95,1.5-3.6.3-6.1-1.38-2.87,1.35-5.74,3.33-8.04,1.38-1.6,3.22-2.85,4.98-4.08,1.8-1.25,2.7-2.31.77-4.29-3.41-3.49-.73-5.54,2.27-6.43,2.31-.68,3.92-1.45,4.76-5.14,1.68,7.26,5.29,2.43,8.02,2.78-.25,1.59-2.17,2.86-.95,5.08,3-2.05,2.45-5.28,3.34-7.88.35-.65.7-1.3,1.06-1.95.32-.68.63-1.36.95-2.05.49-.37,1.06-1.04.46-1.38-.76-.44-.64.61-.89,1.02-.31.69-.62,1.38-.94,2.06-.35.65-.7,1.3-1.05,1.95-.36.41-.73.82-1.09,1.24-3.05-5.11,3.26-7.2,3.64-11.26.19-1.94,2.57-2.99,2.65-5.16.06-1.61-.27-3.72,2.29-3.48,1.95.18,4.97,1.01,4.86,2.66-.28,4.3,2.5,2.93,4.52,3.21,1.65.23,3.88-.77,4.35,2.01-2.44.5-4.8-.03-7.17-.7,2.81,5.15,6.03,2.58,9.22.65,0,0-.12.08-.12.08,1.4-.07,2.81-.15,4.36-.23-1.36-1.33-2.81-.38-4.15-.48,1.35-3.28,4-5.32,6.82-7.25,3.03-2.07,6.51-3.63,7.77-7.66.39-1.25,1.89-2.36,3.24-.42l.05.03c2.75,2.13,3.4.16,3.95-2.01h.01c2.64-1.46,5.31.61,7.96-.06Zm-38.14,31.88c-3.78,2.29-6.92,5.13-8.02,9.74,2.82-3.11,6.52-5.39,8.39-9.38.56-.32,1.47-.53,1.61-.99.42-1.31,2.9-.62,2.39-2.54-.14-.51-.87-1.28-1.24-1.23-1.65.19-2.44,1.45-2.88,2.94-.14.47-.17.97-.25,1.46Zm36.49-29.75c-.26-.14-.51-.29-.77-.43-.02.28-.08.56-.05.83,0,.08.34.23.38.2.18-.17.3-.39.44-.59Z"/>
      <path class="cls-9" d="m348.98,249.48c3.63-2.96,5.87-.65,7.48,2.29,4.18,7.61-.83,23.9-8.42,27.98-4.26,2.29-7.97.74-9.11-3.94-.82-3.4-1.42-6.86.07-10.28,8.45-.99,8.4-.99,8.96-9.25.15-2.28.67-4.53,1.01-6.8Z"/>
      <path class="cls-20" d="m321.86,288.44c-.31.31-.63.62-.94.94-5.7.89-9.94,4.31-13.99,8.06,0,0,0,0,0,0-7.27,2.11-13.23,6.83-19.98,9.99-.83.02-1.59.19-2.02,1.01h0c-.34,0-.68-.01-1.02-.02-.02-.35-.05-.69-.07-1.04-.06-.89.38-2.36-.67-2.44-1.71-.14-1.06,1.48-1.17,2.47l-.07.04c-1.38-2.45-2.17-4.59,1.36-6.16,2.88-1.28,1.36-4.7,2.63-6.86.43-.81,1.19-.97,2.01-1,6.52.24,12.61-.03,17-6.27,2.08-2.95,7.99-1.46,9.05-6.54.09-.45.97-.77,1.52-1.1,2.89-1.74,6.02-2.47,9.38-2.1-1.08,2.09-2.7,3.21-5.15,3.01-1.38-.11-2.67.1-3,1.81-1.71.34-1.88,1.67-1.98,3.05-.11.22-.22.43-.34.65.21-.12.42-.24.63-.35,1.16-.67,1.86-1.66,2.03-3.01,4.36.52,7.79-1.35,10.87-4.16,1.61,2.84,1.83,5.02-2.43,5.01-2.08,0-3.46.76-3.6,3.04-.02.66-.04,1.31-.06,1.97Zm-34.08,12.82c-.96.29-2.17.27-2.2,1.79,1.47.47,1.85-.74,2.49-1.5.11-.21.22-.42.33-.63-.21.11-.42.23-.63.34Zm24.98-13.01c-4.32-1.21-7.49.32-10.08,3.86-2.05,2.8-5.43,2.87-8.49,3.2-2.14.23-3.96.47-4.41,3-.11.21-.23.42-.34.64.21-.12.42-.23.62-.35,2.51-1.2,4.99-2.2,7.88-2.46,1.8-.16,4.25-.1,5.5-1.84,2.43-3.39,5.72-5.04,9.67-5.7.11-.23.21-.45.32-.68-.22.11-.44.23-.67.34Z"/>
      <path class="cls-9" d="m383.9,229.05c4.15-2.3,7.78-1.18,8.66,3.13,1.85,9.05.47,17.56-5.95,24.62-2.55,2.81-5.74,4.63-9.61,1.95,1.02-.31,1.45-1.02,1.96-1.98,4.57-8.73,5.2-18.13,4.94-27.71Z"/>
      <path class="cls-13" d="m383.9,229.05c.26,9.57-.37,18.98-4.94,27.71-.5.96-.94,1.67-1.96,1.98-3.22-2.63-3.46-6.34-3.13-9.97.72-7.84,2.25-15.41,10.03-19.72Z"/>
      <path class="cls-1" d="m222.97,191.49c7.12.04,7.15.04,7.94,7.26.13,1.21.46,2.17,1.31,3.07.98,1.04.69,2.19-.41,2.97-1.54,1.09-1.77-.95-2.74-1.28-.03-1.48-.12-2.97-.06-4.45.08-2.22-1.1-4-2.68-5.01-1.83-1.17-3.53.18-5.5,1.58,1.31.74,2.11,1.56,2.96,1.61,3.06.2,3.56,2.16,2.99,4.44-.82,3.27-1.15,7-4.98,8.51-1.02.4-2.06-.25-2.46-1.19-1.99-4.61-1.35,1.95-2.53.58-1.06-1.1-1.31-2.7-.63-3.71,2.57-3.82.51-8.59,2.81-12.39,1.33-.66,2.66-1.33,3.99-1.99Z"/>
      <path class="cls-20" d="m289.94,241.46c.17-1.4-.64-3.48,1.33-3.83,5.08-.91,5.36-5.46,7.15-8.85.34-.65.44-1.73.13-2.36-.74-1.54-2.96-3.32-.48-4.49,1.79-.84,3.41-3.21,5.78-2.12,2.28,1.05,3.43,3.04,3.07,5.69-.42,3.06.94,4.34,3.96,3.95.05.32.07.65.06.98,0,0-.04.05-.04.05-.82.39-1.08,1.06-.96,1.92,0,0-.07.07-.07.07-.93-.06-1.87-.11-2.8-.17-.15-.4-.31-.8-.46-1.2-.17.13-.5.35-.49.38.2.37.45.7.68,1.05.2,1.69-1.62,2.42-1.85,3.9,0,0-.06.06-.06.06-4.37,1.6-8.73,3.2-13.1,4.79-.62.06-1.24.12-1.86.18Zm13.84-14.88c.14.4.29.81.43,1.21.17-.13.51-.34.49-.37-.2-.37-.44-.71-.68-1.05-.24-1.08.34-2.33-.91-3.49-3.18,4.09-4.13,8.82-4.97,13.59,3.05-2.73,1.16-7.98,5.64-9.9Z"/>
      <path class="cls-8" d="m210.93,390.4c0-47.43,0-94.87.06-142.3,0-1.89-.82-4.03.98-5.65h-.01c0,49.31,0,98.63-.01,147.95-.34,0-.67,0-1.01,0Z"/>
      <path class="cls-8" d="m403.89,138.48c0,47.65-.01,95.3-.02,142.94-.32,0-.65.01-.97.01,0-47.65,0-95.31,0-142.96.33,0,.67,0,1,0Z"/>
      <path class="cls-17" d="m266.85,321.88c-14.88,8.6-29.77,17.21-44.65,25.81-.3-.53-.61-1.05-.91-1.58,14.81-8.73,29.51-17.66,44.71-25.71.29.49.57.98.86,1.48Z"/>
      <path class="cls-13" d="m348.98,249.48c-.35,2.27-.86,4.52-1.01,6.8-.56,8.25-.51,8.25-8.96,9.25,1.12-6.72,2.85-13.06,9.98-16.04Z"/>
      <path class="cls-5" d="m242.03,218.91c-6.35,5.75-13.94,9.67-21.78,13.2,6.01-6.29,14.03-9.48,21.78-13.2Z"/>
      <path class="cls-20" d="m224.95,262.44c0,.33.04.67-.01.99-.36,2.21,1.12,5.9-2.74,5.65-2.95-.19-4.52-3.04-4.51-6.19,0-.54.67-.97.07-1.69-1.92-2.29-.19-3.97,1.52-4.75,1.96-.89,3.27.94,4.31,2.46.54.79.93,1.69,1.38,2.54-.01.33-.02.66-.01.99Z"/>
      <path class="cls-17" d="m283.85,307.38c.02.35.05.69.07,1.04.33.71.67.72,1.02.01,0,0,0,0,0,0,.83-.02,1.58-.2,2.02-1.01,6.75-3.16,12.71-7.87,19.98-9.99-1.78,3.84-6.05,4.23-9.03,6.41-3.33,2.43-7.03,4.39-10.67,6.36-1.37.74-2.49,2.8-4.32,1.81-1.79-.97-.65-3.03-.96-4.57,0,0,.07-.04.07-.04.61,0,1.23-.02,1.84-.03Z"/>
      <path class="cls-17" d="m287.81,199.04c-8.61,4.89-17.22,9.78-25.82,14.67-.29-.51-.58-1.03-.87-1.54,8.58-4.95,17.16-9.91,25.74-14.86.32.58.64,1.16.95,1.74Z"/>
      <path class="cls-17" d="m210.93,390.4c.34,0,.67,0,1.01,0,4.08.03,6.86-2.79,10.06-4.65,3.8-2.2,7.38-4.85,11.92-5.38,0,0,.06.06.06.06-6.45,4.81-13.29,9-20.64,12.24-2.77,1.22-2.91.91-2.4-2.27Z"/>
      <path class="cls-14" d="m360.93,209.43c1-3.22,2.85-4.52,6.5-4.08,4.15.5,8.42.1,12.64.1,1.45,0,3.01-.39,4.11,1.04-2.19,1.98-4.87.47-7.26,1.01-2.67.62-5.33.5-8-.05-.66.02-1.33.03-1.99.05-2.68-1.47-3.92,1.52-5.99,1.93Z"/>
      <path class="cls-12" d="m287.94,293.43c-.82.03-1.58.19-2.01,1-1.31,0-1.99-.67-2.03-1.97l.05-.05c-.84-3.82-.24-6.99,4.14-8.68-.06,1.3-.11,2.51-.16,3.71l-.42.23.19.19.23-.42c.66,0,1.33-.01,1.99-.02.33.01.67.02,1,.02,1.44,3.2-2.67,3.65-2.97,5.99Z"/>
      <path class="cls-17" d="m248.97,366.43c-.86,3.31-4.24,3.45-6.5,4.8-4.14,2.46-8,5.62-13.04,6.36,5.92-4.74,12.06-9.08,19.49-11.22l.05.05Z"/>
      <path class="cls-17" d="m300.88,336.37c4.55-5.52,11.43-7.18,17.52-10.15-5.54,3.86-10.64,8.45-17.44,10.24l-.07-.08Z"/>
      <path class="cls-17" d="m351.13,236.28c5.03-4.32,10.92-7.1,16.85-9.8.25.44.49.88.74,1.31-5.63,3.24-11.27,6.48-16.9,9.72-.23-.41-.47-.82-.7-1.23Z"/>
      <path class="cls-1" d="m252.14,321.6c-4.73,4.39-9.12,9.34-16.34,9.51-.87.02-1.73.26-2.01-.72-.34-1.14.97-1.61,1.45-1.54,7.16.97,10.47-6.27,16.49-7.65.13.14.27.27.41.4Z"/>
      <path class="cls-15" d="m227.79,355.57c1.44.19,2.45,0,2.64,1.07.26,1.46-.89,1.52-1.88,1.56-2.03.1-3.54.7-3.53,3.12,0,.95,1.55,2.2-.39,2.83-1.65.53-1.74-1.08-2.39-1.9-.95-1.22-1.97-2.78-.4-3.86,1.94-1.33,4.29-2.06,5.95-2.82Z"/>
      <path class="cls-17" d="m376.22,280.19c4.36-2.78,8.71-5.59,13.11-8.31.44-.27,1.34-.22,1.8.05.71.43.44,1.26-.11,1.64-4.47,3.17-9.22,5.8-14.11,8.12-.23-.5-.45-1-.68-1.51Z"/>
      <path class="cls-1" d="m290.89,324.65c-.36,2.14-1.72,3.16-3.52,2.67-2.09-.57-4.81-.9-5.14-3.69-.12-1.06,1.99-2.68,2.5-2.07,1.67,2.06,5.93-1.12,6.16,3.09Z"/>
      <path class="cls-17" d="m259.74,213.44c-2.12,3.6-10.58,8.37-13.25,7.94-1.06-.17-1.89-.66-2.25-1.66-.29-.82-.23-1.75.77-2.01.91-.24,2.12-1.09,1.99,1.27-.06.99,1.89-.05,2.8-.49,3.15-1.53,6.26-3.16,9.95-5.04Z"/>
      <path class="cls-17" d="m239.93,301.41c.3-.73.4-1.9.92-2.13,5.46-2.42,9.86-7.01,16.08-7.86l.02.02c-4.87,4.68-10.96,7.3-17,10l-.03-.03Z"/>
      <path class="cls-17" d="m355.34,293.2c-4.02,3.63-8.31,6.51-13.46,7.88,3.54-4.31,8.45-6.31,13.46-7.88Z"/>
      <path class="cls-17" d="m280.95,277.46c-4.58,4.34-9.79,7.56-16,8.99l-.03-.03c4.6-4.3,9.82-7.49,16-9,0,0,.04.04.04.04Z"/>
      <path class="cls-17" d="m376.54,286.82c4.05-3.61,8.52-6.46,13.81-7.8-4.16,3.39-8.55,6.38-13.81,7.8Z"/>
      <path class="cls-17" d="m384.88,141.46c4.17-4.34,9.92-5.97,15.11-8.56-4.47,3.81-8.98,7.56-15.08,8.59l-.03-.03Z"/>
      <path class="cls-17" d="m248.91,366.38c4.27-4.21,9.09-7.52,15-9l.05.06c-3.92,4.8-9.51,6.81-15,8.99,0,0-.05-.05-.05-.05Z"/>
      <path class="cls-17" d="m332.95,245.45c.99,0,1.98,0,2.97,0-3.9,4.83-9.5,6.82-14.99,8.99l-.03-.03c2.21-4.35,7.81-4.06,10.55-7.71.38-.51,1-.84,1.5-1.26Z"/>
      <path class="cls-17" d="m315.2,332.12c4.52-2.63,9.04-5.25,13.55-7.88-3.14,4.99-8.19,6.77-12.8,9.26-.25-.46-.5-.92-.75-1.39Z"/>
      <path class="cls-17" d="m306.93,297.43c4.05-3.75,8.3-7.16,13.99-8.06-3.67,4.41-8.58,6.66-13.99,8.06Z"/>
      <path class="cls-17" d="m294.28,340.02c-3.54,3.02-7.03,6.05-11.78,6.77,3.07-3.77,7.44-5.32,11.78-6.77Z"/>
      <path class="cls-17" d="m286.91,349.4c3.72-4.32,8.62-6.58,14-7.99l.02.02c-3.75,4.27-8.59,6.62-13.99,8l-.03-.03Z"/>
      <path class="cls-17" d="m302.9,189.44c2.74-4.72,7.7-5.81,12.37-7.38-3.79,3-7.48,6.15-12.33,7.43l-.04-.04Z"/>
      <path class="cls-17" d="m281.43,318.73c3.27-4.47,7.46-5.47,10.44-8.06.47-.41,1.35-.1,1.58.62.11.36-.11,1.13-.4,1.28-3.5,1.78-6.36,4.85-11.61,6.17Z"/>
      <path class="cls-17" d="m389.92,266.46c-2.38,5.38-8.15,5.76-12.42,8.35,3.5-3.72,7.78-6.28,12.38-8.39l.05.04Z"/>
      <path class="cls-17" d="m240.71,233.45c.95,4.45-.27,7.56-4.93,8.59,3.36-1.82-.38-7.9,4.93-8.59Z"/>
      <path class="cls-14" d="m291.81,241.28c4.37-1.6,8.73-3.2,13.1-4.79,0,.37.02.74.02,1.11-1.45,1.52-2.58,3.33-5.26,2.98-1.72-.22-2.68,1.08-2.64,2.89-.06.3-.11.61-.15.91-.33-3.26-3.63-1.65-5.07-3.1Z"/>
      <path class="cls-17" d="m370.92,149.49c-3.1,4.12-7.56,6.02-12.33,7.43,3.73-3.08,7.46-6.17,12.3-7.46l.03.03Z"/>
      <path class="cls-17" d="m236.84,251.19c-3.63,2.06-7.25,4.13-10.88,6.19-.23-.39-.47-.78-.7-1.17,3.14-3.02,6.85-5.11,10.94-6.58.21.52.43,1.04.64,1.56Z"/>
      <path class="cls-17" d="m300.92,341.41c3.07-4.34,8.24-5.05,12.49-7.36-3.53,3.54-7.66,6.05-12.47,7.38,0,0-.02-.02-.02-.02Z"/>
      <path class="cls-17" d="m231.95,346.42c-1.68,4.9-6.39,5.03-10.41,6.25,3.18-2.53,5.97-5.68,10.4-6.25h0Z"/>
      <path class="cls-17" d="m226.96,246.45c-.17,1.94-1.18,3.04-3.18,2.87-2.18-.19-1.76-1.97-1.83-3.37-.06-1.14,0-2.29-.01-3.43,0-1.5.02-3.05,1.68-3.72.47-.19,1.16.15,1.75.24-.47,1.13-.95,2.26-1.42,3.4,0,0,0,0,0,0-1.42,1.27-1.43,2.95-.48,4.23.93,1.25,2.26-.49,3.47-.24,0,0,.02.02.02.02Z"/>
      <path class="cls-1" d="m253.3,319.16q1.79-4.08,10.38-4.26c-1.04,2.93-3.05,2.22-5.09,1.73-2.25-.54-2.43,3.09-5.29,2.53Z"/>
      <path class="cls-17" d="m223.95,242.45c4.2-.34,6.8-4.5,11.85-5-3.01,3.67-6.82,4.87-9.95,6.93-2.23,1.47-1.71-.81-1.9-1.93,0,0,0,0,0,0Z"/>
      <path class="cls-17" d="m236.95,302.44c-2.14,3.44-5.11,5.48-9.37,5.35,2.87-2.2,5.11-5.46,9.36-5.37,0,0,.02.02.02.02Z"/>
      <path class="cls-1" d="m327.95,278.42c-3.07,2.82-6.51,4.69-10.87,4.16l-.34-.34c.33-1.71,1.62-1.92,3-1.81,2.45.2,4.07-.92,5.15-3.01,1.28-.47,2.86-1.86,3.05,1Z"/>
      <path class="cls-17" d="m244.96,373.42c-2.73,3.79-6.57,5.85-10.99,7.01,0,0-.06-.06-.06-.06,2.45-4.26,6.87-5.4,11.01-6.98l.03.03Z"/>
      <path class="cls-17" d="m349.59,162.75c-2.92,2.44-6.14,4.36-9.72,5.66-.23-.38-.47-.77-.7-1.15,3.24-1.92,6.47-3.84,9.71-5.76.24.42.47.84.71,1.25Z"/>
      <path class="cls-17" d="m402.9,281.43c.33,0,.65,0,.97-.01-2.55,4.06-6.3,6.24-10.95,7.04,0,0-.06-.07-.06-.07,2.04-4.2,7.16-3.97,10.03-6.96Z"/>
      <path class="cls-17" d="m334.24,171.05c-2.9,2.52-5.82,5-10.88,6.55,3.54-4.16,7.11-5.54,10.88-6.55Z"/>
      <path class="cls-1" d="m291.81,241.28c1.44,1.44,4.74-.16,5.07,3.1,0,.34.01.68.02,1.01-2.65.67-5.31-1.4-7.96.05.34-1.33.67-2.65,1.01-3.98,0,0,0,0,0,0,.62-.06,1.24-.12,1.86-.18Z"/>
      <path class="cls-20" d="m297.02,243.46c-.03-1.81.93-3.11,2.64-2.89,2.68.35,3.82-1.46,5.26-2.98.14,5.69-3.68,6.05-7.91,5.87Z"/>
      <path class="cls-17" d="m258.47,366.35c-3.24,2.15-5.92,5.2-10.07,5.25,3.05-2.43,5.9-5.2,10.07-5.25Z"/>
      <path class="cls-20" d="m368.91,207.45c2.66.55,5.33.67,8,.05-3.37,5.33-4.72,5.33-8-.05Z"/>
      <path class="cls-15" d="m221.04,376.49c2.14-3.3,4.09-6.89,9.27-5.46-3.53,1.14-6.49,3.14-9.27,5.46Z"/>
      <path class="cls-17" d="m348.53,303.62c-1.93,1.43-3.84,2.89-5.81,4.27-.68.48-1.61.75-2.2-.06-.63-.86.03-1.59.75-1.98,2.22-1.2,4.49-2.31,6.74-3.45.17.41.35.81.52,1.22Z"/>
      <path class="cls-20" d="m360.93,209.43c2.07-.41,3.31-3.4,5.99-1.93.87,5.78-3.56,3.36-6.06,3.92.01-.64.02-1.28.03-1.92l.04-.06Z"/>
      <path class="cls-17" d="m384.91,217.46c-2.1,3.51-5.78,4.32-9.46,5.14,2.99-1.98,5.26-5.2,9.45-5.16l.02.02Z"/>
      <path class="cls-17" d="m286.94,349.43c-2.01,3.65-5.99,3.95-9.38,5.26,2.92-2.1,5.37-5,9.36-5.29,0,0,.03.03.03.03Z"/>
      <path class="cls-17" d="m221.58,317.75c1.86-2.72,4.48-4.27,8.62-5.28-2.59,3.46-5.37,4.69-8.62,5.28Z"/>
      <path class="cls-17" d="m224.95,262.44c0-.33,0-.66.01-.99,3.51-.65,5.42-4.86,10.09-4.39-3.09,3.12-6.13,5.09-10.11,5.38Z"/>
      <path class="cls-17" d="m302.93,264.44c-2.33,3.66-6.07,4.98-9.99,6.01l-.03-.03c2.37-3.61,6.24-4.71,10.01-5.99h0Z"/>
      <path class="cls-3" d="m266.99,263.4c-3.19,1.93-6.41,4.5-9.22-.65,2.37.68,4.73,1.2,7.17.7.68-.02,1.36-.04,2.05-.06Z"/>
      <path class="cls-1" d="m297.01,332.5c-3.08,3.69-6.85,1.6-10.38,1.62-.05-.4-.11-.81-.16-1.21,3.46-.19,6.92-.38,10.38-.57l.16.16Z"/>
      <path class="cls-17" d="m267.35,361.17c-2.13,1.64-3.78,4.23-7.37,3.57,1.87-2.96,4.35-3.85,7.37-3.57Z"/>
      <path class="cls-17" d="m240.92,213.43c.89-2.46,3.03-4.28,5.15-3.27,2.2,1.05-.06,3.42-.49,5.63-.41-3.67-2.56-2.89-4.62-2.32l-.03-.04Z"/>
      <path class="cls-1" d="m310.69,318.21c.16-1.93.9-3.21,3.14-2.7,1.88.43,3.74.92,6.1,1.51-2.75,3.12-6.48-1.54-8.66,1.65-.2-.14-.4-.29-.58-.46Z"/>
      <path class="cls-17" d="m289.94,272.45c-2.51,2.54-5.31,4.57-8.99,5.01,0,0-.04-.04-.04-.04,2.14-3.22,5.3-4.59,9-4.99,0,0,.02.02.02.02Z"/>
      <path class="cls-17" d="m384.89,293.42c1.17-4.04,4.69-4.34,7.98-5.02,0,0,.06.07.06.07-2.2,2.42-4.74,4.29-8.01,4.98l-.02-.03Z"/>
      <path class="cls-15" d="m244.76,358.26c1.55-4.63,1.73-4.64,6.76-1.21-2.15,1.22-4.97-3.34-6.76,1.21Z"/>
      <path class="cls-17" d="m236.99,215.5c-2.05,2.24-4.41,3.93-7.5,4.3,2.1-2.12,3.91-4.75,7.42-4.39,0,0,.08.09.08.09Z"/>
      <path class="cls-8" d="m216.54,228.52c.11,3.75,1.34,7.6-.96,11.16.73-3.69.04-7.49.96-11.16Z"/>
      <path class="cls-8" d="m285.92,280.42c.94-3.06,3.59-3.25,7.32-4.35-2.7,2.82-4.5,4.43-7.3,4.37l-.02-.02Z"/>
      <path class="cls-1" d="m244.13,274.59c-.89,2.6-.33,5.82-3.34,7.87-1.22-2.22.7-3.49.95-5.08.29-.64.59-1.27.88-1.91.36-.41.73-.82,1.09-1.24.14.12.27.23.41.35Z"/>
      <path class="cls-17" d="m220.2,382.05c3.26-1.39,4.35-4.12,7.86-2.99-2.04,2-3.82,3.25-7.86,2.99Z"/>
      <path class="cls-17" d="m349.54,302.73c1.61-3.41,3.33-4.14,6.09-4.05-.99,2.69-3.09,2.82-6.09,4.05Z"/>
      <path class="cls-17" d="m322.46,323.69c1.25-1.55,2.34-3.48,5.38-2.8-1.48,2.07-2.81,3.44-5.38,2.8Z"/>
      <path class="cls-17" d="m382.07,294.76c-1.69,2.14-3.08,3.38-6.01,3.83,1.56-2.63,2.7-4.25,6.01-3.83Z"/>
      <path class="cls-17" d="m372.88,148.45c1.49-2.41,3.9-3,6.45-3.31-1.55,2.27-3.72,3.32-6.42,3.35,0,0-.03-.04-.03-.04Z"/>
      <path class="cls-17" d="m350.39,161.19c2.13-2.27,3.8-3,5.8-3.43q-1,2.47-5.8,3.43Z"/>
      <path class="cls-17" d="m308.91,261.43c.85-3.06,3.64-3.2,6-4,0,0,.02.02.02.02-1.06,2.74-3.12,3.99-6,4,0,0-.02-.02-.02-.02Z"/>
      <path class="cls-15" d="m235.9,366.36c1.7-1.87,4.51-1.46,6.24-3.27-.75,3.64-3.58,3.22-6.1,3.4l-.15-.14Z"/>
      <path class="cls-17" d="m362.97,305.55c-1.44,2.58-3.33,2.93-5.34,3.11.48-2.5,2.68-2.4,5.34-3.11Z"/>
      <path class="cls-8" d="m345.08,292.92c-1.07,1.67-1.95,3.88-5.03,3,1.16-2.21,3.19-2.41,5.03-3Z"/>
      <path class="cls-17" d="m342.9,317.41c.87-3.04,3.63-3.22,6-4l.03.04c-.87,3.04-3.65,3.2-6.01,3.99l-.03-.03Z"/>
      <path class="cls-17" d="m337.14,320.3c-1.55,2.84-3.56,3.02-5.38,3.46.78-2.04,2.57-2.54,5.38-3.46Z"/>
      <path class="cls-14" d="m307.08,232.3c.93.06,1.87.11,2.8.17-.29,1.3-.58,2.6-.88,3.9l-.13.13c-.66,0-1.31,0-1.97,0-.65-.03-1.29-.06-1.94-.08.23-1.49,2.06-2.21,1.85-3.9l.26-.22Z"/>
      <path class="cls-17" d="m300.15,190.75c-1.83,2.38-3.53,3.17-6.46,3.41,1.86-2.35,3.56-3.15,6.46-3.41Z"/>
      <path class="cls-17" d="m344.91,240.44c.41-2.6,2.36-2.52,4.95-3.23-1.23,3.07-3.04,3.23-4.94,3.24h0Z"/>
      <path class="cls-17" d="m403.89,138.48c-.33,0-.67,0-1,0-.17-2.48-.35-4.95-.52-7.43,2.1,2.3,1.31,4.94,1.52,7.43Z"/>
      <path class="cls-17" d="m321.86,288.44c.02-.66.04-1.32.06-1.97,1.41-.2,2.82-.4,4.84-.69-.84,3.05-3.02,2.59-4.9,2.66Z"/>
      <path class="cls-17" d="m302.92,264.43c1.34-2.3,3.51-2.96,5.99-3.01,0,0,.02.02.02.02-1.22,2.57-3.37,3.27-6,2.99,0,0,0,0,0,0Z"/>
      <path class="cls-17" d="m222.98,309.43c.99-.34,1.99-.68,2.98-1.02-.01,1.44-.7,2.45-2.02,2.99-.8.32-1.82,1.41-2.44.22-.56-1.06,1.19-1.28,1.48-2.18Z"/>
      <path class="cls-17" d="m342.92,317.44c-1.07,1.53-2,3.31-4.79,2.52,1.09-2.3,2.85-2.56,4.76-2.55,0,0,.02.03.02.03Z"/>
      <path class="cls-17" d="m320.93,254.45c-1.36,2.28-3.51,2.97-6,3,0,0-.02-.02-.02-.02,1.35-2.29,3.51-2.97,5.99-3,0,0,.02.03.02.03Z"/>
      <path class="cls-1" d="m291.21,319.11c-1.74,1.62-2.92,2.63-4.88,1.8.58-2.59,2.51-1.86,4.88-1.8Z"/>
      <path class="cls-1" d="m328.88,215.49c.06,2.49-.5,4.67-2.94,5.91-.06-2.49.57-4.63,2.94-5.91Z"/>
      <path class="cls-17" d="m300.95,336.45c-1.03,1.63-2.12,3.15-4.86,2.61,1.11-2.41,2.89-2.66,4.79-2.69,0,0,.07.08.07.08Z"/>
      <path class="cls-17" d="m256.93,291.42c.58-2.81,2.82-2.86,5-3,0,0,.02.02.02.02-1.08,1.98-2.95,2.64-5,3,0,0-.02-.02-.02-.02Z"/>
      <path class="cls-17" d="m374.44,299.51c-.27,1.08-1.28,1.31-2.13,1.56-.72.2-1.32-.45-.98-1.08.33-.6,1.08-1.09,1.76-1.36.55-.21,1.27-.04,1.34.88Z"/>
      <path class="cls-8" d="m351.92,289.45c-.92,1.73-2.36,2.54-4.87,2.58,1.19-2.33,2.92-2.63,4.84-2.61l.03.03Z"/>
      <path class="cls-17" d="m367.37,303.79c-.51.73-1.32,1.28-2.37,1.23-.25-.01-.75-.76-.66-1,.38-1.02,1.16-1.61,2.31-1.39.49.09.93.37.72,1.17Z"/>
      <path class="cls-20" d="m290.91,287.43c-.33,0-.67-.01-1-.02.15-.47.15-1.09.47-1.37.82-.74,1.69-1.73,2.97-1.01.29.17.48.89.4,1.29-.38,1.69-2.18-.07-2.83,1.1Z"/>
      <path class="cls-17" d="m391.91,213.47c-1.08,1.98-2.96,2.63-5,3,0,0-.03-.03-.03-.03.59-2.81,2.84-2.84,5.01-3l.03.03Z"/>
      <path class="cls-17" d="m348.9,313.41c.93-1.7,2.35-2.55,4.82-2.55-1.12,2.34-2.89,2.59-4.79,2.58,0,0-.03-.04-.03-.04Z"/>
      <path class="cls-17" d="m232.96,234.46c-.47,2.46-2.18,2.81-4.54,2.84,1.06-2.21,2.8-2.51,4.52-2.87l.02.02Z"/>
      <path class="cls-8" d="m351.9,289.42c.27-2.05,1.19-3.17,3.7-2.58-.59,2.12-2.13,2.36-3.67,2.61,0,0-.03-.03-.03-.03Z"/>
      <path class="cls-20" d="m289.94,241.46c-.34,1.33-.67,2.65-1.01,3.98,0,0-.01.01-.01.01-.66,0-1.31.01-1.97.02l-.04-.04c.38-1.8.64-3.7,3.03-3.97Z"/>
      <path class="cls-17" d="m319.23,179.86c.64-1.74,1.66-2.23,3.41-1.82-.64,1.74-1.67,2.21-3.41,1.82Z"/>
      <path class="cls-17" d="m370.17,225.97c.56-1.89,1.68-2.21,3.4-2-.56,1.88-1.67,2.21-3.4,2Z"/>
      <path class="cls-15" d="m254.76,354.23c.58-1.86,1.89-2.38,3.92-2.31-.77,2-2.4,2.02-3.67,2.57,0,0-.24-.26-.24-.26Z"/>
      <path class="cls-1" d="m303.18,326.13c1.54-1.18,2.61-2.19,4.27-1.28-.77,1.79-2.11,1.81-4.27,1.28Z"/>
      <path class="cls-14" d="m310.94,230.43c.01-.33,0-.66-.06-.98.04-.31.07-.62.09-.93.83-.19,2.03-1.5,2.42-.19.48,1.6-1.06,2.04-2.45,2.1Z"/>
      <path class="cls-1" d="m297.84,331.34c.15-1.35.54-2.52,2.16-2.63.18-.01.57.39.56.58-.09,1.58-1.15,2.12-2.56,2.21,0,0-.16-.16-.16-.16Z"/>
      <path class="cls-17" d="m264.95,286.45c-.11,2-1.56,2-3,2,0,0-.02-.02-.02-.02.09-2.02,1.56-1.99,3-2,0,0,.03.03.03.03Z"/>
      <path class="cls-8" d="m285.94,280.44c-.64,1.23-1.45,2.18-3.12,1.73.08-2.32,1.9-1.51,3.1-1.76,0,0,.02.02.02.02Z"/>
      <path class="cls-3" d="m267.09,262.77c1.34.1,2.79-.85,4.15.48-1.55.08-2.96.15-4.36.23.18-.2.25-.44.21-.71Z"/>
      <path class="cls-17" d="m292.94,270.45c-.11,2-1.55,2-3,2,0,0-.02-.02-.02-.02.1-2.01,1.55-2.01,3-2,0,0,.03.03.03.03Z"/>
      <path class="cls-17" d="m240.96,213.47c-.77,1.77-2.28,2.07-3.97,2.03,0,0-.08-.09-.08-.09.8-1.75,2.3-2.07,4.01-1.98,0,0,.03.04.03.04Z"/>
      <path class="cls-1" d="m311.27,318.67c-.23,1.58-.66,3.06-2.13,3.98-.14-.15-.29-.3-.44-.44.05-1.64.61-3.02,2-3.99.18.17.38.32.58.46Z"/>
      <path class="cls-17" d="m272.91,357.4c.49-.84.93-1.78,2.15-1.56.18.03.45.53.39.7-.47,1.22-1.61.75-2.5.89l-.04-.04Z"/>
      <path class="cls-14" d="m358.9,214.45c-.58-.04-1.55.06-1.33-.76.29-1.07,1.16-1.88,2.33-2.21-.33.99-.67,1.98-1,2.97Z"/>
      <path class="cls-17" d="m344.91,240.45c-.48.85-.9,1.8-2.13,1.57-.18-.03-.45-.53-.39-.7.48-1.22,1.61-.74,2.51-.88,0,0,0,0,0,0Z"/>
      <path class="cls-17" d="m224.98,222.48c-.5.82-.93,1.76-2.14,1.54-.18-.03-.45-.52-.39-.69.46-1.22,1.59-.75,2.48-.9l.06.06Z"/>
      <path class="cls-17" d="m382,142.8c.16.2.48.56.45.59-.24.27-.55.47-.84.7-.11-.25-.35-.52-.31-.74.04-.19.39-.32.7-.55Z"/>
      <path class="cls-14" d="m279.96,261.43c.08-.8.17-1.73,1.24-1.52.34.07.5,1,.74,1.53-.66,0-1.32,0-1.99-.01Z"/>
      <path class="cls-8" d="m211.96,242.45c.12-.74.11-1.58,1.2-1.54.11,0,.31.2.31.31.06,1.1-.81,1.07-1.53,1.21,0,0,.01.01.01.01Z"/>
      <path class="cls-17" d="m232.53,311.17c-.12.28-.18.72-.38.8-.2.08-.55-.2-.83-.32.12-.28.18-.72.39-.81.19-.08.54.2.82.32Z"/>
      <path class="cls-17" d="m270.58,359.47c-.21.18-.42.34-.62.51-.19-.3-.38-.6-.58-.91.26-.1.55-.32.76-.26.19.05.29.42.43.66Z"/>
      <path class="cls-15" d="m236.04,366.5c-.09,1.24-.81,1.87-2.01,2.01l-.25-.26c.21-1.18.98-1.74,2.11-1.89,0,0,.15.14.15.14Z"/>
      <path class="cls-17" d="m292.18,196.11c-.28-.12-.57-.24-.85-.36.12-.28.18-.72.39-.8.2-.08.55.2.83.32-.12.28-.24.56-.37.85Z"/>
      <path class="cls-17" d="m336.98,168.83c.18.21.34.41.5.61l-.91.58c-.1-.26-.32-.55-.26-.75.06-.19.42-.29.67-.43Z"/>
      <path class="cls-17" d="m340.58,243.52c-.2.17-.41.33-.61.49-.22-.29-.45-.57-.67-.86.25-.11.52-.35.74-.31.19.03.32.38.54.67Z"/>
      <path class="cls-17" d="m232.3,243.39c.21-.18.42-.34.62-.51.19.3.38.6.57.9-.26.1-.55.32-.76.27-.18-.05-.28-.42-.43-.66Z"/>
      <path class="cls-20" d="m284.92,247.44c.03-1.29.7-1.96,1.99-2.01,0,0,.04.04.04.04-.66.66-1.32,1.33-1.98,1.99l-.05-.03Z"/>
      <path class="cls-1" d="m325.88,221.49c.1,1.1.4,2.27-.95,2.9-.13-1.11-.32-2.24.95-2.9Z"/>
      <path class="cls-1" d="m328.9,212.41c.27-.03.54-.07.81-.13.13.11.26.22.39.33-.13,1.04.12,2.24-1.17,2.79-.01-1-.02-1.99-.03-2.99Z"/>
      <path class="cls-17" d="m239.95,301.44c-.73,1.15-1.9.97-3,.99,0,0-.02-.02-.02-.02.71-1.17,1.89-.97,2.99-1.01,0,0,.03.03.03.03Z"/>
      <path class="cls-17" d="m228.96,245.46c-.43.81-1.18.98-2.01.99,0,0-.02-.02-.02-.02.43-.81,1.18-.98,2-1.01l.03.03Z"/>
      <path class="cls-17" d="m335.93,245.45c0-.35,0-.69-.01-1.04.45.15,1.22-.16,1.14.69-.01.15-.73.24-1.13.35Z"/>
      <path class="cls-1" d="m324.88,224.49c.14.86,0,1.62-.83,2.1,0,0-.26-.26-.26-.26-.02-.31-.06-.62-.14-.93.41-.31.82-.61,1.23-.92Z"/>
      <path class="cls-17" d="m228.94,245.43c.36-.25.72-.49,1.08-.74.08.13.17.25.25.38-.44.13-.87.26-1.31.39,0,0-.03-.03-.03-.03Z"/>
      <path class="cls-12" d="m409.28,242.17c.12.04.34.08.34.13,0,.14-.08.28-.13.42-.12-.04-.34-.08-.34-.13,0-.14.08-.28.13-.42Z"/>
      <path class="cls-17" d="m391.89,213.44c.36-.25.71-.5,1.07-.75.09.13.17.25.26.38-.43.13-.87.27-1.3.4,0,0-.03-.03-.03-.03Z"/>
      <path class="cls-17" d="m384.91,293.44c-.36.25-.72.49-1.08.74-.08-.13-.17-.25-.25-.38.44-.13.87-.26,1.31-.39,0,0,.02.03.02.03Z"/>
      <path class="cls-17" d="m302.94,189.48c-.36.25-.72.49-1.1.72,0,0-.16-.24-.25-.36.44-.13.87-.27,1.31-.4,0,0,.04.04.04.04Z"/>
      <path class="cls-14" d="m360.89,209.49c-.01.64-.02,1.28-.03,1.92-.31.03-.62.05-.92.04-.08-.85.04-1.6.96-1.96Z"/>
      <path class="cls-17" d="m370.89,149.46c.43-.8,1.17-.97,1.99-1,0,0,.03.04.03.04-.43.81-1.18.98-2,1,0,0-.03-.03-.03-.03Z"/>
      <path class="cls-17" d="m263.92,357.38c.36-.25.73-.5,1.1-.73,0,0,.17.24.26.36-.44.14-.87.28-1.31.42,0,0-.05-.06-.05-.06Z"/>
      <path class="cls-17" d="m232.94,234.44c.36-.25.72-.5,1.08-.75.09.13.17.26.26.38-.44.13-.88.26-1.32.39,0,0-.02-.02-.02-.02Z"/>
      <path class="cls-17" d="m384.89,217.44c.42-.81,1.16-.99,1.99-1.01,0,0,.03.03.03.03-.44.8-1.18.97-2,.99,0,0-.02-.02-.02-.02Z"/>
      <path class="cls-17" d="m244.93,373.39c.36-.25.72-.5,1.08-.74l.26.38c-.44.13-.87.26-1.31.39,0,0-.03-.03-.03-.03Z"/>
      <path class="cls-15" d="m234.03,368.51l-1.04.96-.19-.19c.33-.34.66-.68.98-1.03,0,0,.25.25.25.25Z"/>
      <path class="cls-15" d="m232.99,369.48c-.17.2-.33.4-.5.59-.57-.53,0-.61.31-.79,0,0,.18.19.18.19Z"/>
      <path class="cls-17" d="m224.92,222.42c.15-.13.3-.27.46-.4-.13.15-.27.3-.4.46,0,0-.06-.06-.06-.06Z"/>
      <path class="cls-12" d="m283.9,292.45c-.14-.09-.28-.17-.42-.26.15.07.31.14.46.21,0,0-.05.05-.05.05Z"/>
      <path class="cls-17" d="m231.94,346.41c.08-.14.16-.28.23-.41-.08.14-.15.28-.23.42,0,0,0,0,0,0Z"/>
      <path class="cls-17" d="m384.91,141.49c-.14.13-.29.27-.43.4.13-.14.27-.29.4-.43,0,0,.03.03.03.03Z"/>
      <polygon class="cls-1" points="233.26 332.86 233.53 332.77 233.49 333.03 233.26 332.86"/>
      <path class="cls-1" d="m251.74,321.2c.24-.11.48-.23.72-.34-.11.25-.21.5-.31.74-.14-.13-.28-.26-.41-.4Z"/>
      <path class="cls-15" d="m253.81,355.29c.32-.35.63-.7.95-1.06,0,0,.24.26.24.26-.35.32-.7.64-1.04.95l-.15-.16Z"/>
      <path class="cls-15" d="m253.96,355.45c-.2.14-.4.28-.6.42.15-.19.3-.38.45-.58,0,0,.15.16.15.16Z"/>
      <path class="cls-1" d="m296.85,332.34c.33-.33.67-.66,1-.99,0,0,.15.14.15.15-.33.33-.67.66-1,.99,0,0-.16-.15-.16-.15Z"/>
      <path class="cls-17" d="m389.88,266.41c.09-.14.17-.28.26-.41-.07.15-.15.3-.22.46,0,0-.05-.04-.05-.04Z"/>
      <path class="cls-17" d="m272.95,357.43l-.43.4c.13-.14.27-.29.4-.43,0,0,.03.03.03.03Z"/>
      <path class="cls-14" d="m280.26,262.43c-.41.04-.83.07-1.24.11,0,0-.18-.18-.18-.18.36-.3.73-.6,1.09-.89.11.32.22.64.33.97Z"/>
      <path class="cls-1" d="m309.14,322.65c-.21.17-.56.54-.62.49-.58-.4-.15-.67.18-.93.15.14.3.29.44.44Z"/>
      <polygon class="cls-1" points="301.26 326.93 301.54 326.83 301.51 327.1 301.26 326.93"/>
      <path class="cls-5" d="m338.73,136.27c-2.31-.25-3.87-1.34-1.19-2.97,9.29-5.66,18.77-10.99,28.55-16.66.64,3.35-1.51,3.76-2.91,4.58-6.74,3.96-13.56,7.78-20.27,11.79-1.48.88-3.53,1.17-4.15,3.21l-.04.06Z"/>
      <path class="cls-3" d="m327.65,147.09c-.72,2.16-.93,4.54-2.75,6.21-1.57,1.44-3.04,3.15-5.54,2.3-2.42-.82-3.42-3.5-3.2-5.08.58-4.16.26-9.01,4.85-11.59.4.1.8.19,1.21.29-2.42,2.41-3.92,5.33-4.2,8.71-.15,1.84.45,3.75,2.33,4.57,2.14.94,3.36-.74,4.45-2.17.88-1.15,1.54-2.49,2.29-3.74.34.01.52.18.55.49Z"/>
      <path class="cls-8" d="m338.77,136.21c6.2.59,9.99-4.36,14.95-6.61,3.19-1.44,5.86-3.99,9.41-4.82.85,1.85-.53,2.31-1.39,2.86-7.26,4.61-14.24,9.76-22.81,11.85l-.04-.04c-.06-1.06-.11-2.12-.17-3.19,0,0,.04-.06.04-.06Z"/>
      <path class="cls-8" d="m386.06,111.47c.72,1.67.14,2.39-.52,2.78-5.92,3.48-11.88,6.9-17.85,10.3-.79.45-1.84,1.23-2.48-.11-.2-.4.13-1.47.52-1.69,6.73-3.8,13.51-7.52,20.33-11.28Z"/>
      <path class="cls-16" d="m322.22,139.22c-.4-.09-.8-.19-1.21-.29.54-2.24,2-3.25,4.2-2.78,1.95.42,2.95,2,3.2,3.87.31,2.39.77,4.85-.76,7.06-.03-.31-.21-.48-.55-.49-.78-3.02,2-8.39-4.88-7.37Z"/>
      <path class="cls-8" d="m338.93,139.5c-.13,1.01-.38,1.93-1.68,1.82-.22-.02-.62-.39-.59-.52.26-1.21,1.29-1.2,2.23-1.34,0,0,.04.04.04.04Z"/>
      <path class="cls-8" d="m236.94,197.46c1.41-1.63,3.18-2.74,5.14-3.58,1.78-.76,3.11-1.83,2.69-4.06.6-.34,1.21-.67,1.81-1.01,1.44,2.59,3.34.92,4.66.17,10.42-5.97,20.73-12.12,31.11-18.15,1.18-.69,2.9-2.29,3.91-.65.95,1.55-1.05,2.42-2.31,3.14-14.32,8.17-28.63,16.36-42.99,24.44-1.14.64-2.98,3.41-4.01-.31h0Z"/>
      <path class="cls-5" d="m246.59,188.81c-.6.34-1.21.67-1.81,1.01-2.47,1.33-4.95,2.66-7.43,3.97-.11.06-.31-.07-.77-.19-.7-2.05.95-2.68,2.31-3.46,8.2-4.73,16.38-9.48,24.61-14.16.8-.46,1.86-2.14,2.79-.38.7,1.33-.7,2.05-1.67,2.63-6,3.55-12.01,7.05-18.03,10.57Z"/>
      <path class="cls-14" d="m216.8,209.57c1.18,1.37.54-5.19,2.53-.58.41.94,1.44,1.59,2.46,1.19,3.83-1.51,4.16-5.24,4.98-8.51.57-2.28.06-4.24-2.99-4.44-.85-.05-1.64-.87-2.96-1.61,1.96-1.41,3.67-2.76,5.5-1.58,1.58,1.01,2.77,2.79,2.68,5.01-.06,1.48.04,2.97.06,4.45.02,3.54-2.18,6.11-4.12,8.64-1.86,2.44-6.94.7-8.16-2.57Z"/>
      <path class="cls-8" d="m236.95,197.46c-.14-.07-.28-.15-.42-.22.14.08.28.15.41.23,0,0,0,0,0,0Z"/>
      <path class="cls-11" d="m392.17,198.34c-4.71,4.44-10.01,6.71-16.59,4.51,2.41-3.69,11.46-6.1,16.59-4.51Z"/>
      <path class="cls-14" d="m353.06,220.58c-.79,3.1-3.38,1.37-5.12,1.92l-.09-.12c1.37-1.32,3-2.04,4.91-2.1l.3.3Z"/>
      <path class="cls-1" d="m330.73,210.31c.35-1.15-.37-2.66,1.39-3.62,1.31,1.79.25,2.89-.93,3.98-.15-.12-.3-.24-.45-.36Z"/>
      <path class="cls-14" d="m347.93,222.49c-1.33,1.17-2.83,1.66-5.11,1.51,1.59-2.34,3.49-1.33,5.02-1.62,0,0,.09.12.09.12Z"/>
      <path class="cls-14" d="m335.04,237.55c-.12.88.16,1.94-.86,2.47-.51.26-.93-.07-.96-.61-.05-1.1.78-1.6,1.6-2.07l.22.21Z"/>
      <path class="cls-14" d="m356.03,216.55c-.29.53-.59,1.06-.88,1.6-.21-.14-.42-.29-.62-.43.43-.46.86-.91,1.29-1.37l.21.21Z"/>
      <path class="cls-1" d="m331.18,210.67c-.36.65-.72,1.29-1.08,1.94-.13-.11-.26-.22-.39-.33.34-.66.68-1.31,1.02-1.97.15.12.3.24.45.36Z"/>
      <path class="cls-14" d="m309.95,232.4c-.13-.86.14-1.53.96-1.92.09.85-.04,1.58-.96,1.92Z"/>
      <path class="cls-14" d="m337.77,232.34c.35-.67.7-1.33,1.05-2l.23.23c-.31.68-.63,1.37-.94,2.05l-.34-.28Z"/>
      <path class="cls-14" d="m338.11,232.62c-.36.65-.73,1.3-1.09,1.96,0,0-.25-.25-.25-.25.33-.66.67-1.33,1-1.99,0,0,.34.28.34.28Z"/>
      <path class="cls-1" d="m323,227.52c-.17.13-.35.27-.52.4.13-.18.25-.36.38-.54,0,0,.14.14.14.14Z"/>
      <path class="cls-14" d="m352.75,220.27c.21-.11.43-.21.64-.32-.11.21-.23.41-.34.62,0,0-.3-.3-.3-.3Z"/>
      <path class="cls-14" d="m338.82,230.34c.2-.13.39-.25.59-.38-.12.2-.24.4-.36.61,0,0-.23-.23-.23-.23Z"/>
      <path class="cls-14" d="m355.82,216.34c.2-.13.39-.27.59-.4-.13.2-.25.4-.38.61,0,0-.21-.21-.21-.21Z"/>
      <path class="cls-14" d="m337.02,234.58c-.2.13-.4.26-.6.38.12-.21.24-.42.36-.63,0,0,.25.24.25.24Z"/>
      <path class="cls-1" d="m322.86,227.38c.31-.35.62-.7.93-1.05,0,0,.25.25.26.25-.35.31-.7.62-1.05.93,0,0-.14-.14-.14-.14Z"/>
      <path class="cls-14" d="m309.01,236.37c.15.19.29.38.44.56-.19-.15-.38-.29-.57-.43,0,0,.13-.13.13-.13Z"/>
      <path class="cls-14" d="m334.83,237.34c.2-.14.4-.28.6-.42-.13.21-.26.42-.38.63,0,0-.21-.21-.21-.21Z"/>
      <path class="cls-1" d="m259.12,277.64c-1.87,3.99-5.58,6.26-8.39,9.37,1.1-4.62,4.24-7.45,8.02-9.74.13.12.26.24.37.37Z"/>
      <path class="cls-1" d="m258.75,277.27c.08-.49.11-.99.25-1.46.43-1.49,1.22-2.75,2.88-2.94.38-.04,1.11.72,1.24,1.23.51,1.92-1.96,1.24-2.39,2.54-.15.45-1.05.66-1.61.99-.12-.13-.24-.25-.37-.37Z"/>
      <path class="cls-1" d="m284.97,247.46c.66-.66,1.32-1.33,1.98-1.99.66,0,1.31-.01,1.97-.02-.55,2.17-1.2,4.15-3.95,2.01Z"/>
      <path class="cls-1" d="m295.24,247.52c-.14.2-.27.42-.44.59-.04.03-.37-.11-.38-.2-.03-.27.03-.55.05-.83.26.14.51.29.77.44Z"/>
      <path class="cls-1" d="m244.77,272.3c.31-.69.62-1.38.94-2.06.14.12.29.24.43.36-.32.68-.63,1.36-.95,2.04-.14-.11-.28-.23-.42-.34Z"/>
      <path class="cls-1" d="m245.71,270.23c.26-.41.13-1.46.89-1.02.59.34.02,1.01-.46,1.38-.14-.12-.28-.24-.43-.36Z"/>
      <path class="cls-1" d="m243.72,274.24c.35-.65.7-1.3,1.05-1.95.14.11.28.23.42.34-.35.65-.7,1.3-1.05,1.95-.14-.12-.27-.23-.41-.35Z"/>
      <path class="cls-14" d="m278.01,263.51c0,.84-.25,1.56-1.04,1.98,0,0-.11-.11-.11-.11.01-.83.22-1.57,1.03-2l.13.13Z"/>
      <path class="cls-14" d="m275.04,267.53c-.21.14-.42.29-.64.43.14-.21.28-.43.43-.64,0,0,.21.21.21.21Z"/>
      <path class="cls-14" d="m276.01,266.5c-.33.34-.65.68-.98,1.02,0,0-.21-.21-.21-.21.34-.33.68-.66,1.01-.99l.17.17Z"/>
      <path class="cls-14" d="m275.84,266.33c.34-.32.68-.63,1.02-.95,0,0,.11.11.11.11-.32.34-.64.68-.96,1.01,0,0-.17-.17-.17-.17Z"/>
      <path class="cls-14" d="m277.88,263.38c.32-.34.64-.68.96-1.02,0,0,.18.18.18.18-.34.32-.67.64-1.01.96,0,0-.13-.13-.13-.13Z"/>
      <path class="cls-1" d="m289.78,298.3c.45-2.52,2.27-2.77,4.41-2.99,3.06-.32,6.44-.4,8.49-3.2,2.59-3.54,5.76-5.07,10.08-3.86l.35.34c-3.95.66-7.24,2.31-9.67,5.7-1.24,1.73-3.69,1.67-5.5,1.84-2.89.26-5.37,1.26-7.88,2.46l-.29-.29Z"/>
      <path class="cls-1" d="m283.85,307.38c-.61,0-1.23.02-1.84.03.11-.99-.54-2.61,1.17-2.47,1.05.09.61,1.55.67,2.44Z"/>
      <path class="cls-1" d="m317.08,282.58c-.17,1.34-.87,2.33-2.03,3.01l-.3-.29c.1-1.38.27-2.72,1.99-3.05,0,0,.34.34.34.34Z"/>
      <path class="cls-1" d="m288.08,301.55c-.65.76-1.03,1.97-2.5,1.5.03-1.52,1.24-1.5,2.2-1.79l.3.29Z"/>
      <path class="cls-11" d="m286.95,307.42c-.44.8-1.19.99-2.02,1.01.43-.82,1.19-.99,2.02-1.01Z"/>
      <path class="cls-1" d="m312.77,288.25c.22-.11.44-.23.67-.34-.11.23-.21.45-.32.68,0,0-.35-.34-.35-.34Z"/>
      <path class="cls-1" d="m290.07,298.59c-.21.12-.42.23-.62.35.11-.21.23-.42.34-.64,0,0,.29.28.29.28Z"/>
      <path class="cls-11" d="m284.94,308.43c-.35.7-.69.7-1.02-.01.34,0,.68,0,1.02.01Z"/>
      <path class="cls-1" d="m315.05,285.59c-.21.12-.42.24-.63.35.11-.22.23-.43.34-.65,0,0,.3.29.3.29Z"/>
      <path class="cls-1" d="m287.79,301.26c.21-.11.42-.23.63-.34-.11.21-.22.42-.33.63,0,0-.29-.29-.29-.29Z"/>
      <path class="cls-14" d="m303.78,226.58c-4.47,1.92-2.59,7.16-5.63,9.89.84-4.77,1.79-9.5,4.97-13.59,1.24,1.16.67,2.41.91,3.49l-.25.21Z"/>
      <path class="cls-14" d="m304.03,226.37c.23.35.48.69.68,1.05.01.03-.32.24-.49.37-.14-.4-.29-.81-.43-1.21,0,0,.25-.21.25-.21Z"/>
      <path class="cls-14" d="m306.82,232.53c-.24-.34-.49-.68-.68-1.05-.02-.03.32-.25.49-.38.15.4.31.8.46,1.2,0,0-.26.22-.26.22Z"/>
      <polygon class="cls-11" points="287.93 287.43 287.69 287.85 287.51 287.66 287.93 287.43"/>
      <path class="cls-1" d="m322.22,139.22c6.87-1.01,4.1,4.35,4.88,7.37-.76,1.26-1.41,2.59-2.29,3.74-1.09,1.43-2.31,3.11-4.45,2.17-1.88-.82-2.48-2.73-2.33-4.57.28-3.38,1.77-6.3,4.2-8.71Z"/>
    </g>
  </g>
</svg>