<?xml version="1.0" encoding="UTF-8"?>
<svg id="Layer_2" data-name="Layer 2" xmlns="http://www.w3.org/2000/svg" viewBox="0 0 180.9 216.4">
  <defs>
    <style>
      .cls-1 {
        fill: #ff6e23;
      }

      .cls-1, .cls-2, .cls-3 {
        stroke-width: 0px;
      }

      .cls-2 {
        fill: #dd5b26;
      }

      .cls-3 {
        fill: #ba4621;
        fill-rule: evenodd;
      }
    </style>
  </defs>
  <g id="Layer_1-2" data-name="Layer 1">
    <g id="OBJECTS">
      <g>
        <g>
          <path class="cls-1" d="m28.87,118.61c-20.14-7.84-16.44-25.63-28.87-29.6,5.95-2.75,9.28-4.62,12.82-13.08-1.54-5.22,2.24-12.01-6.56-17.95,14.47-1.54,16.34-5.96,13.2-23.44,7.66.72,8.6,7.25,15.48,8.01,9.89,1.13,23.85,10.42,30.66,23.59-.58-6.04-6.58-17.56,1.16-27.76,8.02-10.71,5.95-16.67,4.48-27.58,8.62,1.07,10.61,3.04,15.32,7.96C87.83,10.96,94.08,3.32,97.04,0c1.85,3.57,5.69,11.62,4.94,19.36,5.95-4.46,8.47-6.2,17.29-6.51-4.43,10.39-7.93,16.13-2.17,26.99,5.6,10.27-2.06,21.15-3.37,27.06,8.48-12.69,27.44-19.84,37.45-20.37,6.98-.39,9.14-6.42,16.93-6.65-3.04,8.76-4.89,11.94-2.28,18.37,1.29,3.14,6.12,3.11,11.62,3.86-9.06,5.34-9.3,11.93-10.36,19.21,2.87,7.94,8.02,6.88,13.81,9.48-12.73,3.56-13.21,19.16-33.05,26.88,6.17.26,17.21,2.6,20.85,8.41-25.86,7.47-9.59,25.43-48.38,27.05-2.68,3.69-3.24,10.68,3.63,15.05-16.69,2.24-28.15-5.69-34.12-12.04-5.15,6.59-15.19,15.25-32.17,14.01,6.07-4.88,4.5-11.93,1.37-15.59-39.01.14-24.66-19.31-50.7-26.6,3.37-6.32,14.39-8.99,20.54-9.36h0Z"/>
          <path class="cls-2" d="m177.45,62.11c-5.5-.75-10.32-.72-11.62-3.86-2.61-6.43-.76-9.61,2.28-18.37-7.78.23-9.95,6.25-16.93,6.65-10.02.53-28.97,7.68-37.45,20.37,1.31-5.91,8.97-16.78,3.37-27.06-5.76-10.86-2.26-16.6,2.17-26.99-8.82.31-11.35,2.05-17.29,6.51.75-7.74-3.09-15.79-4.94-19.36-.02.02-.04.05-.07.07-8.24,51.75-10.65,104.08-7.23,156.16.02-.03.05-.06.07-.08,5.97,6.36,17.44,14.28,34.12,12.04-6.87-4.37-6.31-11.36-3.63-15.05,38.78-1.62,22.51-19.58,48.38-27.05-3.65-5.81-14.69-8.15-20.85-8.41,19.85-7.73,20.32-23.33,33.05-26.88-5.79-2.6-10.94-1.54-13.81-9.48,1.06-7.28,1.31-13.87,10.36-19.21Z"/>
          <g>
            <path class="cls-3" d="m94.23,215.93c-9.11-61.15-10.01-124.16-1.76-185.36,1.16-8.39.68-5.32,1.89-12.23-.58,6.89-.31,3.96-1.18,12.26-6.14,61.5-4.99,123.81,5.05,185.12-1.33.07-2.67.14-4.01.21Z"/>
            <path class="cls-3" d="m87.82,137c-20.3-30.95-37.17-45.17-54.98-71.31-3.23-4.97-2.59-4.02-5.33-9.24,18.5,26.72,41.12,47.78,62.62,79.16-.77.47-1.54.93-2.31,1.4Z"/>
            <path class="cls-3" d="m88.58,138.96c-21.58-6.37-46.35-9.25-67.77-12.51,19.05.34,49.69,4.77,68.67,9.99-.3.84-.59,1.68-.89,2.52Z"/>
            <path class="cls-3" d="m89.82,69.43c-5.61-2.08-11.1-9.41-11.68-15.89.03-1.31.07-2.63.12-3.94.88,7.6,4.77,15.58,11.78,18.11-.07.57-.14,1.15-.21,1.73Z"/>
            <path class="cls-3" d="m90.45,49.47c7.85-5.25,9.5-9.26,13.87-18.36-3.34,9.89-5.38,14.2-13.25,19.88-.21-.51-.41-1.01-.62-1.52Z"/>
            <path class="cls-3" d="m88.36,86.59c-10.22-4-11.08-5.65-17.35-14.8,7.04,7.85,7.89,9.69,17.82,13.13-.16.56-.31,1.12-.46,1.67Z"/>
            <path class="cls-3" d="m89.8,75.37c6.4-.1,13.94-11.09,16.59-16.46-2.07,6.84-9.27,17.82-16.83,18.18.08-.58.16-1.15.24-1.73Z"/>
            <path class="cls-3" d="m88.09,106.48c-8.46-5.29-10.7-8.58-15.73-16.98,5.86,7.04,8,10.56,16.29,15.36-.19.54-.37,1.08-.56,1.63Z"/>
            <path class="cls-3" d="m88.63,96.48c10.29-3.93,11.47-5.46,18.46-13.97-6.01,9.66-7.64,11.21-18.05,15.63-.14-.55-.28-1.11-.42-1.66Z"/>
            <path class="cls-3" d="m76.95,119.11c-5.64,4.1-16.35,1.96-22.08.37,4.76.46,16.51,1.83,20.91-1.63.39.42.78.84,1.17,1.26Z"/>
            <path class="cls-3" d="m69.91,111.41c1.01-10.34.2-11.48-.7-21.11,2.63,9.04,2.86,11.71,2.35,21.38-.55-.09-1.1-.18-1.65-.27Z"/>
            <path class="cls-3" d="m61.89,101.6c-11.55,1.51-14.23,1.26-25.5-.48,10.63.25,14.57.55,25.31-1.25.06.58.13,1.15.19,1.73Z"/>
            <path class="cls-3" d="m54.1,93.62c2.43-10.64,2.69-12.5,1.77-23.05,2.38,10.17,1.82,12.6-.18,23.35-.53-.1-1.06-.2-1.59-.3Z"/>
            <path class="cls-3" d="m47.68,85.52c-8.87.87-10.7,0-18.55-3.29,7.75,1.78,10.25,2.75,18.46,1.54.03.58.06,1.16.09,1.74Z"/>
            <path class="cls-3" d="m39.91,74.67c1.51-11.77,1.17-6.13,1.14-16.94,1.5,10.6,1.29,4.97.42,16.92-.52,0-1.04.01-1.56.02Z"/>
            <path class="cls-3" d="m33.93,67.48c-5.91-.21-7.18-.42-12.05-3.35,5,1.36,6.87,1.76,12.27,1.58-.07.59-.15,1.18-.22,1.77Z"/>
            <path class="cls-3" d="m81.66,135.56c-.54,3.95-11.01,9.48-13.69,9.3,2.26-1.6,11.7-6.03,11.93-9.37.59.03,1.18.05,1.77.08Z"/>
            <path class="cls-3" d="m74.82,134.81c-4.8-5.95-7.09-6.71-11.8-11.69,6.34,4.12,7.93,4.82,13.28,10.75-.49.31-.99.63-1.48.94Z"/>
            <path class="cls-3" d="m65.13,132.84c-7.13,5.4-10.74,6.99-19.6,8.34,7.99-2.56,11.81-4.19,18.3-9.47.43.38.87.76,1.3,1.14Z"/>
            <path class="cls-3" d="m52.2,130.2c-.18-3.2-10.62-12.27-12.39-13.95,3.27,1.97,13.65,8.76,14.13,13.92-.58,0-1.16.02-1.74.02Z"/>
            <path class="cls-3" d="m43.11,129.54c-5.74,3.42-8.88,4.34-15.4,4.34,5.97-1.47,8.96-2.08,14.23-5.58.39.41.78.82,1.17,1.24Z"/>
            <path class="cls-3" d="m92.2,41.66c-5.09-4.67-5.74-8.12-7.38-15.93.73,8.44,1.65,12.13,6.72,17.15.22-.41.44-.82.66-1.23Z"/>
            <path class="cls-3" d="m89.03,117.47c6.04-3.98,6.69-5.54,10.73-14.13-3.44,9.76-4.36,11.32-10.45,15.79-.09-.55-.19-1.1-.28-1.66Z"/>
            <path class="cls-3" d="m90.23,136.7c18.36-31.41,36.1-45.18,56.64-69.51,3.85-4.57,3.08-3.72,6.54-8.53-22.06,24.44-46.12,44.7-65.61,76.69.81.45,1.62.9,2.43,1.34Z"/>
            <path class="cls-3" d="m89.62,138.68c21.03-7.07,45.65-10.44,66.88-14-19,.71-49.43,5.67-67.97,11.5.36.83.72,1.67,1.09,2.51Z"/>
            <path class="cls-3" d="m100.17,118.64c5.75,3.97,16.4,1.63,22.05.03-4.72.51-16.44,2.06-20.92-1.27-.38.42-.76.83-1.14,1.25Z"/>
            <path class="cls-3" d="m107.09,110.98c-.96-10.18-.1-11.32,1.24-20.75-3.05,8.86-3.38,11.5-2.9,21.03.55-.09,1.11-.19,1.66-.28Z"/>
            <path class="cls-3" d="m115.22,101.31c11.51,1.46,14.2,1.19,25.5-.48-10.63.24-14.58.57-25.26-1.19-.08.56-.16,1.11-.24,1.67Z"/>
            <path class="cls-3" d="m123.26,93.58c-1.84-10.35-1.94-12.19.05-22.37-3.42,9.81-3.07,12.21-1.63,22.63.53-.09,1.06-.18,1.59-.27Z"/>
            <path class="cls-3" d="m130.16,85.8c8.81.98,10.68.11,18.76-2.86-7.88,1.58-10.44,2.47-18.56,1.2-.07.55-.13,1.11-.2,1.66Z"/>
            <path class="cls-3" d="m138.82,75.55c-.24-11.26-.56-5.89.9-16.16-2.92,10.02-2.04,4.69-2.48,16.1.53.02,1.05.04,1.58.05Z"/>
            <path class="cls-3" d="m145.56,68.86c5.92-.03,7.2-.18,12.43-2.79-5.18,1.12-7.07,1.46-12.44,1.13,0,.55,0,1.11,0,1.67Z"/>
            <path class="cls-3" d="m96.26,135.06c.82,3.94,11.79,9,14.45,8.7-2.41-1.47-12.24-5.51-12.7-8.83-.59.04-1.17.09-1.76.13Z"/>
            <path class="cls-3" d="m103.03,134.13c4.42-6,6.68-6.82,11.19-11.79-6.16,4.19-7.74,4.89-12.72,10.88.51.3,1.02.6,1.53.91Z"/>
            <path class="cls-3" d="m112.58,131.9c7.47,5.08,11.24,6.49,20.17,7.49-8.17-2.19-12.13-3.63-18.94-8.62-.41.38-.82.75-1.23,1.13Z"/>
            <path class="cls-3" d="m125.34,128.99c-.04-3.11,10.11-12.05,11.88-13.67-3.25,1.9-13.44,8.67-13.62,13.69.58,0,1.16-.01,1.74-.02Z"/>
            <path class="cls-3" d="m134.38,128.13c5.92,3.16,9.13,3.92,15.64,3.76-6.06-1.25-9.08-1.73-14.53-4.96-.37.4-.74.8-1.1,1.2Z"/>
          </g>
        </g>
        <path class="cls-3" d="m90.13,177.03c.55.78,6.08,22.5,9.05,29.67,2.97,7.18,3.79,8.17,2.32,9.22-1.47,1.05-7.27,0-7.27,0l-4.1-38.9Z"/>
      </g>
    </g>
  </g>
</svg>