<?xml version="1.0" encoding="UTF-8"?>
<svg id="Layer_2" data-name="Layer 2" xmlns="http://www.w3.org/2000/svg" viewBox="0 0 82.7 215.43">
  <defs>
    <style>
      .cls-1 {
        fill: #d14f20;
        fill-rule: evenodd;
      }

      .cls-1, .cls-2, .cls-3 {
        stroke-width: 0px;
      }

      .cls-2 {
        fill: #ff7f0f;
      }

      .cls-3 {
        fill: #ffa700;
      }
    </style>
  </defs>
  <g id="Layer_1-2" data-name="Layer 1">
    <g id="OBJECTS">
      <g>
        <g>
          <path class="cls-2" d="m63.17,0c.07-.09-8.69,5.33-16.75,20.05-.09-2.36-.53-8.05-.88-7.46-3.51,5.17-6.7,10.85-9.41,16.8-.38-2.1-1.52-7.08-1.81-6.65-3.7,5.2-5.53,12.16-8.36,18.11.01-1.27.24-2.66.31-3.71.08-1.61-1.28-5.51-1.55-4.75-1.1,3.21-2.2,6.39-3.27,9.57-1.47,4.4-2.8,9.09-4.68,13.25-.61-1.01-.86-2.66-1.13-3.73-.33-1.25-2.35-3.76-2.55-3.13-1.89,5.56-2.45,11.86-3.05,17.66-.32,3.32-.58,6.61-.83,9.9-.11,1.72-.17,3.52-.42,5.21-1.55-.92-4.75-4.88-4.98-4.28-.6,1.38-.58,3.29-.62,4.81-.09,2.89.03,5.79.25,8.66.4,5.07,1,10.55,2.74,15.35-.8-.64-1.67-2.18-2-2.66-.83-1.17-4.12-3.07-4.13-2.36-.25,5.42,1.19,10.81,3.01,15.84,1.78,4.98,4.13,9.71,6.75,14.24-1.83-.09-6.68-1.87-6.54-1.01.4,2.5,1.47,4.87,2.56,7.12,1.65,3.4,3.67,6.6,5.84,9.69,5.35,7.68,12.33,14.13,18.93,20.73,6.06,6.13,16.38,9.98,20.17,11.82,2.32-3.57,9.54-11.7,12.8-19.02,3.56-8.03,8.22-15.45,11.65-22.82,1.41-2.98,2.76-5.91,3.82-8.86.7-1.96,1.42-3.96,1.52-5.93.03-.69-4.55,1.49-6.33,1.91,1.99-4.07,3.9-8.09,5.45-12.11,1.59-4.07,3.03-8.2,3.03-12.27.02-.54-3.36.95-4.23,1.89-.36.39-1.26,1.61-2.08,2.16,1.83-3.86,2.76-8.08,3.7-11.94.52-2.18,1.02-4.37,1.38-6.55.19-1.15.53-2.57.18-3.67-.12-.49-3.98,2.16-5.66,2.76.03-1.35.28-2.75.5-4.1.39-2.57.85-5.14,1.36-7.71.85-4.52,2.16-9.27,2.3-13.79.03-.52-2.75.75-3.48,1.62-.61.73-1.39,1.91-2.29,2.53-.49-3.64-.07-7.58.3-11.33.27-2.71.6-5.43,1.05-8.15.09-.66-2.89,1.66-3.5,2.91-.38.81-.76,1.93-1.28,2.91-.18-5.53,1.46-11.39.99-16.78-.03-.47-3.6,2.66-4.97,4.14.57-5.71,1-11.44,1.28-17.05.06-.64-3.72,3.26-5.12,5.07,1.83-15.25.15-24.92,0-24.88h0Z"/>
          <path class="cls-3" d="m63.17,0c.14-.04,1.82,9.62,0,24.88,1.4-1.81,5.18-5.71,5.12-5.07-.28,5.61-.71,11.34-1.28,17.05,1.36-1.47,4.93-4.6,4.97-4.14.47,5.39-1.17,11.25-.99,16.78.51-.97.9-2.1,1.28-2.91.61-1.25,3.59-3.57,3.5-2.91-.45,2.73-.79,5.44-1.05,8.15-.37,3.74-.79,7.68-.3,11.33.9-.62,1.68-1.81,2.29-2.53.73-.86,3.51-2.13,3.48-1.62-.14,4.52-1.45,9.27-2.3,13.79-.51,2.58-.97,5.14-1.36,7.71-.22,1.35-.47,2.75-.5,4.1,1.68-.61,5.54-3.25,5.66-2.76.35,1.1,0,2.52-.18,3.67-.36,2.18-.86,4.37-1.38,6.55-.94,3.87-1.87,8.09-3.7,11.94.81-.54,1.72-1.77,2.08-2.16.87-.94,4.25-2.43,4.23-1.89,0,4.08-1.44,8.21-3.03,12.27-1.55,4.02-3.47,8.03-5.45,12.11,1.78-.42,6.36-2.6,6.33-1.91-.1,1.97-.82,3.97-1.52,5.93-1.07,2.95-2.41,5.89-3.82,8.86-3.44,7.37-8.09,14.79-11.65,22.82-3.26,7.32-10.48,15.45-12.8,19.02C34.83,119.95,38.96,57.29,63.17,0Z"/>
          <g>
            <path class="cls-1" d="m64.15,214.74c-24.43-59.12-28.99-126.54-10.7-187.52,1.68-5.54,1.02-3.41,2.66-8.7-1.83,5.11-1.2,3.24-2.93,8.63-19.42,61.63-15.17,127.8,8.99,188.29.66-.23,1.32-.47,1.99-.7Z"/>
            <path class="cls-1" d="m44.23,65.99c5.1-7.29,12.27-17.57,16.28-24.37.17-.33.35-.65.52-.98-5.1,7.13-10.49,15.29-16.49,23.32-.11.67-.21,1.35-.31,2.03Z"/>
            <path class="cls-1" d="m47.31,50.47c-1.8-6.73-3.24-17-2.95-23.86.02-.32.05-.64.07-.96.35,7.49,1.16,15.58,3.24,23.18-.12.55-.24,1.1-.36,1.64Z"/>
            <path class="cls-1" d="m42.25,92.54c4.67-7.93,19.32-24.93,22.71-31.51.15-.33.29-.65.44-.98-4.51,6.99-17.51,21.74-23.04,30.45-.04.68-.07,1.36-.11,2.04Z"/>
            <path class="cls-1" d="m42.61,123.68c4.05-8.5,19.56-29.68,22.42-36.36.12-.33.24-.67.35-1-4,7.2-18.01,25.97-22.9,35.33.04.68.08,1.36.13,2.03Z"/>
            <path class="cls-1" d="m42.89,75.99c-3.25-7.97-6.37-20.38-6.73-28.8,0-.39-.01-.79-.02-1.18,1.27,9.13,3.29,18.93,7,27.95-.09.68-.17,1.36-.25,2.03Z"/>
            <path class="cls-1" d="m41.11,104.85c-4.86-7.28-16.7-31.13-17.05-39.97-.03-.4-.06-.8-.08-1.2,1.38,9.48,11.73,30.84,17.17,39.13-.01.68-.03,1.36-.04,2.04Z"/>
            <path class="cls-1" d="m42.75,134.79c-6.15-6.57-24.18-32.85-25.3-41.81-.07-.4-.14-.8-.21-1.2,2.3,9.5,18.44,33.45,25.33,40.98.06.68.12,1.36.19,2.04Z"/>
            <path class="cls-1" d="m46.91,160.48c-6.65-6.27-24.33-21.94-27.24-30.34-.14-.38-.27-.77-.4-1.15,4.25,8.78,19.62,21.49,27.11,28.67.17.94.35,1.88.53,2.82Z"/>
            <path class="cls-1" d="m44.92,148.24c3.57-8.64,14.13-23.31,16.43-30.59.09-.35.18-.7.27-1.05-3.48,7.92-12.63,20.04-17.01,29.63.1.67.2,1.35.31,2.02Z"/>
          </g>
        </g>
        <path class="cls-1" d="m52.03,183.66s8.09,30.97,9.83,31.45c1.74.48,2.46.32,3.58-2.56,1.13-2.88-1.33-2.78-3.38-6.14-2.05-3.36-9.22-23.51-9.22-23.51l-.82.77Z"/>
      </g>
    </g>
  </g>
</svg>