<?xml version="1.0" encoding="UTF-8"?>
<svg id="Layer_2" data-name="Layer 2" xmlns="http://www.w3.org/2000/svg" viewBox="0 0 101.51 209.85">
  <defs>
    <style>
      .cls-1 {
        fill: #ac3b30;
      }

      .cls-1, .cls-2 {
        fill-rule: evenodd;
      }

      .cls-1, .cls-2, .cls-3 {
        stroke-width: 0px;
      }

      .cls-2 {
        fill: #57403d;
      }

      .cls-3 {
        fill: #ce483c;
      }
    </style>
  </defs>
  <g id="Layer_1-2" data-name="Layer 1">
    <g id="OBJECTS">
      <g>
        <g>
          <path class="cls-3" d="m60.6.03s-.05.06-.09.16v-.02s0,0,0,.02c-.03-.12-.04-.18-.04-.18-.02.1-.03.23-.06.34C43.87,34.43-1.09,49.41.02,108.67c.93,28.09,17.95,50.51,53.79,53.98,35.53-12.51,48.06-33.39,47.69-57.17.07-45.93-36.86-65.95-40.83-105.09,0-.11.05-.24.06-.34,0,0-.03.06-.11.15v-.02s0,0,0,.02c0-.1-.02-.18-.02-.18h0Z"/>
          <path class="cls-1" d="m101.5,105.49c.07-45.93-36.86-65.95-40.83-105.09,0-.11.05-.24.06-.34,0,0-.03.06-.11.15,0-.1-.02-.18-.02-.18-10.24,53.67-12.5,108.46-6.79,162.63,35.53-12.51,48.06-33.39,47.69-57.17h0Z"/>
          <g>
            <path class="cls-2" d="m61.26,208.43c-9.19-54.34-12.37-111.64-6.74-166.6.43-4.27.88-8.36,1.29-12.64-.87,4.72-.61,3.05-1.31,8-7.9,56.88-4.59,114.92,4.62,171.62.72-.12,1.43-.25,2.15-.38Z"/>
            <path class="cls-2" d="m51.64,72.37c6.48-6.63,15.72-16.03,20.56-22.27.2-.3.41-.6.61-.9-6.55,6.54-13.34,14.01-21.07,21.32-.04.62-.07,1.23-.1,1.85Z"/>
            <path class="cls-2" d="m52.47,57.7c-4.49-6.15-10.42-15.6-13-21.97-.1-.3-.2-.59-.3-.89,3.9,6.96,8.12,14.4,13.46,21.36-.05.5-.1,1-.15,1.51Z"/>
            <path class="cls-2" d="m51.34,98.52c6-7.08,23.19-22.73,27.87-28.88.19-.3.38-.6.57-.9-6.35,6.53-21.22,20.13-28.43,27.94,0,.61-.01,1.23-.02,1.84Z"/>
            <path class="cls-2" d="m52.25,124.62c5.48-7.59,32.1-28.52,36.63-34.49.18-.3.36-.6.54-.9-6.17,6.43-30.6,25.19-37.24,33.55.02.61.04,1.23.07,1.84Z"/>
            <path class="cls-2" d="m53.54,151.96c5.06-7.83,29.57-27.8,33.68-34.1.16-.31.32-.63.48-.94-5.67,6.87-28.18,23.82-34.37,32.47.07.86.14,1.72.21,2.58Z"/>
            <path class="cls-2" d="m51.16,81.44c-5.74-7.24-13.36-18.51-16.76-26.21-.14-.36-.28-.72-.41-1.08,5.02,8.36,10.47,17.25,17.27,25.45-.04.61-.07,1.23-.1,1.84Z"/>
            <path class="cls-2" d="m50.62,107.57c-6.01-6.72-27.92-25.01-31.56-32.98-.15-.36-.3-.73-.45-1.09,5.28,8.55,24.93,24.59,32.02,32.22,0,.62-.01,1.23-.02,1.85Z"/>
            <path class="cls-2" d="m51.69,134.65c-6.25-6.28-34.33-26.09-38.29-34.05-.16-.36-.33-.72-.49-1.08,5.59,8.47,31.34,26.15,38.7,33.29.02.62.05,1.23.07,1.85Z"/>
            <path class="cls-2" d="m52.95,155.6c-6.42-6.12-31.73-21.34-35.99-28.97-.18-.35-.36-.7-.53-1.05,5.9,8.04,28.77,20.49,36.31,27.44.07.86.14,1.72.21,2.58Z"/>
          </g>
        </g>
        <path class="cls-2" d="m55.65,175.75c-.27,0,3.46,33.06,3.46,33.06,0,0,.87,1.54,2.58.87s1.63-1.33.67-3.33c-.96-2-5.83-30.6-5.83-30.6h-.86Z"/>
      </g>
    </g>
  </g>
</svg>