<?xml version="1.0" encoding="UTF-8"?>
<svg id="Layer_2" data-name="Layer 2" xmlns="http://www.w3.org/2000/svg" viewBox="0 0 192.17 211.76">
  <defs>
    <style>
      .cls-1 {
        fill: #b82818;
      }

      .cls-1, .cls-2, .cls-3 {
        fill-rule: evenodd;
        stroke-width: 0px;
      }

      .cls-2 {
        fill: #ca3e2d;
      }

      .cls-3 {
        fill: #f15a24;
      }
    </style>
  </defs>
  <g id="Layer_1-2" data-name="Layer 1">
    <g id="OBJECTS">
      <g>
        <g>
          <path class="cls-2" d="m99.9,0h0c-1.64,7.26-4.06,15.56-7.44,19.81-6.8,8.5-11.34,6.25-11.33,6.26-.03,0,4.22,7.38-.27,12.56-4.56,5.18-12.96-2.46-12.91-2.46-.16-.01,10.45,20.19,2.66,32.09-8.35,11.86-30.03-17.4-29.62-17.37,0,0-.95,5.99-7.49,8.29-6.62,2.31-19.7-5.84-19.64-5.84-.23-.02,14.2,24.03,12.05,34.71-2.44,10.65-9.91,12.35-9.92,12.35-.05,0,19.94,7.53,22,16.66C40.17,126.19-.65,135.27,0,135.54c.84.29,24.76.38,32.74,9.24,8.03,8.87,7.43,12.99,7.4,12.99.03,0,10.28-5.76,17.33-2.01,7.09,3.76-.93,22.8-.96,22.79,0,0,14.81-6.54,24.89-16.76,6.61-6.68,11.98-12.95,14.92-16.5,3.15,3.58,8.93,9.92,16.11,16.73,10.95,10.41,26.53,17.31,26.53,17.31-.1,0-9.96-19.35-3.06-23.04,6.79-3.7,17.46,2.27,17.49,2.27-.02,0-.97-4.17,6.52-13.09,7.49-8.91,31.45-8.81,32.25-9.1.65-.3-40.61-9.86-38.55-19.07,1.9-9.24,21.98-16.9,21.92-16.9.01,0-7.52-1.74-9.71-12.57-2.04-10.83,14-35.49,13.88-35.5.05,0-13.62,8.47-20.08,6.18-6.4-2.27-6.86-8.33-6.86-8.33.24.02-23.2,29.82-30.83,17.88-7.23-11.88,5.33-32.36,5.23-32.37.03,0-9.12,7.82-13.17,2.68-3.99-5.13,1.13-12.63,1.11-12.63.03,0-4.82,2.33-10.56-6.05-2.86-4.19-4.15-12.46-4.64-19.69h0Z"/>
          <path class="cls-1" d="m99.9,0c.49,7.23,1.78,15.5,4.64,19.69,5.74,8.38,10.59,6.06,10.56,6.05.02,0-5.1,7.5-1.11,12.63,4.05,5.14,13.21-2.68,13.17-2.68.1,0-12.46,20.48-5.23,32.37,7.63,11.94,31.07-17.86,30.83-17.88,0,0,.47,6.06,6.86,8.33,6.46,2.29,20.13-6.18,20.08-6.18.13.01-15.92,24.68-13.88,35.5,2.18,10.83,9.72,12.57,9.71,12.57.05,0-20.02,7.67-21.92,16.9-2.05,9.21,39.2,18.77,38.55,19.07-.8.28-24.77.19-32.25,9.1-7.49,8.92-6.54,13.1-6.52,13.1-.03,0-10.71-5.98-17.48-2.28-6.92,3.69,2.94,23.03,3.05,23.04,0,0-15.58-6.9-26.53-17.31-7.18-6.8-12.96-13.15-16.11-16.73-1.43-48.44-.24-96.94,3.57-145.28Z"/>
          <g>
            <path class="cls-3" d="m98.44,211.27c-4.01-52.35-4.35-105.78-1.21-158.22.44-7.19.24-4.55.8-10.49,0,5.89.03,3.38-.16,10.49-1.33,52.68-.96,105.63,3.7,158.25-1.05,0-2.09-.02-3.14-.03Z"/>
            <path class="cls-3" d="m95.63,143.91c-16.58-26.68-31.32-38.58-48.55-59.97-3.2-4.04-2.58-3.28-5.41-7.53,18.42,21.65,38.39,39.22,55.86,66.33-.63.39-1.27.78-1.9,1.17Z"/>
            <path class="cls-3" d="m96.23,145.59c-17.57-5.82-37.99-8.58-55.76-11.54,15.72.51,41.05,4.6,56.52,9.4-.25.71-.51,1.42-.76,2.13Z"/>
            <path class="cls-3" d="m96.3,86.26c-4.88-1.7-9.96-7.82-10.88-13.29-.05-1.12-.1-2.23-.14-3.35,1.26,6.42,5.01,13.1,11.13,15.18-.04.49-.07.97-.11,1.46Z"/>
            <path class="cls-3" d="m96.51,68.82c6.59-4.67,7.85-8.16,11.21-16.11-2.41,8.59-4.01,12.36-10.59,17.39-.21-.43-.41-.86-.62-1.28Z"/>
            <path class="cls-3" d="m95.6,100.91c-8.79-3.33-9.55-4.74-15.35-12.4,6.4,6.55,7.16,8.12,15.69,10.97-.11.47-.23.95-.34,1.42Z"/>
            <path class="cls-3" d="m96.49,91.35c5.47-.15,11.62-9.68,13.74-14.37-1.57,5.95-7.44,15.46-13.88,15.83.04-.49.09-.97.14-1.46Z"/>
            <path class="cls-3" d="m95.76,117.9c-7.15-4.55-9.1-7.33-13.62-14.43,5.19,5.94,7.07,8.92,14.05,13.03-.15.47-.29.93-.44,1.4Z"/>
            <path class="cls-3" d="m96.05,109.35c8.59-3.36,9.56-4.68,15.37-12.05-4.95,8.37-6.32,9.69-14.99,13.47-.13-.47-.25-.95-.37-1.42Z"/>
            <path class="cls-3" d="m86.65,128.55c-4.62,3.41-13.48,1.48-18.25.1,3.93.42,13.66,1.7,17.27-1.18.33.36.65.72.98,1.09Z"/>
            <path class="cls-3" d="m80.68,121.98c.62-8.73-.09-9.71-1.16-17.82,2.52,7.62,2.78,9.89,2.55,18.06-.47-.08-.93-.16-1.39-.25Z"/>
            <path class="cls-3" d="m73.72,113.68c-9.63,1.25-11.85,1.02-21.37-.44,8.92.22,12.23.49,21.17-1.01.07.48.14.96.21,1.45Z"/>
            <path class="cls-3" d="m66.9,106.99c1.58-8.92,1.71-10.49.32-19.31,2.63,8.5,2.26,10.57,1.04,19.55-.45-.08-.91-.16-1.36-.24Z"/>
            <path class="cls-3" d="m61.08,100.24c-7.49.78-9.07.05-15.95-2.6,6.71,1.41,8.87,2.21,15.77,1.15.06.48.12.96.18,1.44Z"/>
            <path class="cls-3" d="m53.8,91.28c.47-9.78.6-5.11-.27-14.05,2.13,8.75,1.52,4.1,1.63,14.02-.45,0-.9.02-1.35.03Z"/>
            <path class="cls-3" d="m48.16,85.41c-5.1-.1-6.19-.24-10.66-2.59,4.44,1.05,6.06,1.36,10.71,1.12-.01.49-.03.98-.04,1.47Z"/>
            <path class="cls-3" d="m90.61,142.57c-.47,3.35-9.01,7.82-11.19,7.6,1.83-1.3,9.55-4.86,9.75-7.7.48.04.97.07,1.45.1Z"/>
            <path class="cls-3" d="m85.01,141.83c-3.97-5.12-5.86-5.79-9.81-10.04,5.28,3.56,6.61,4.16,11.02,9.25-.4.26-.8.53-1.21.79Z"/>
            <path class="cls-3" d="m77.05,140c-5.79,4.42-8.72,5.68-15.92,6.64,6.48-1.99,9.58-3.28,14.84-7.61.36.33.72.65,1.08.98Z"/>
            <path class="cls-3" d="m66.41,137.58c-.17-2.69-9.04-10.35-10.59-11.77,2.79,1.65,11.56,7.44,12.01,11.78-.47,0-.95,0-1.42,0Z"/>
            <path class="cls-3" d="m58.92,136.9c-4.64,2.77-7.18,3.48-12.54,3.39,4.88-1.13,7.3-1.58,11.56-4.43.33.35.66.69.99,1.04Z"/>
            <path class="cls-3" d="m97.64,63c-4.77-3.85-5.56-6.74-7.64-13.32,1.31,7.13,2.36,10.25,7.12,14.4.17-.36.35-.71.52-1.07Z"/>
            <path class="cls-3" d="m96.63,127.27c4.99-3.36,5.54-4.67,8.85-12.04-2.81,8.36-3.58,9.69-8.61,13.46-.08-.48-.16-.95-.25-1.42Z"/>
            <path class="cls-3" d="m97.6,143.69c15.23-26.54,30.03-38.48,47.77-60.19,3.33-4.11,2.67-3.33,5.68-7.65-19.25,22.05-39.34,39.71-55.42,66.65.66.4,1.31.79,1.97,1.19Z"/>
            <path class="cls-3" d="m97.09,145.37c17.22-5.63,37.53-8.22,55.16-11.08-15.7.39-40.85,4.31-56.03,8.94.29.72.58,1.43.87,2.14Z"/>
            <path class="cls-3" d="m105.86,128.39c4.74,3.45,13.53,1.58,18.26.23-3.92.39-13.61,1.62-17.32-1.29-.32.36-.63.71-.94,1.07Z"/>
            <path class="cls-3" d="m111.63,121.83c-.81-8.77-.1-9.73.95-17.87-2.51,7.64-2.74,9.9-2.34,18.11.46-.08.92-.16,1.39-.24Z"/>
            <path class="cls-3" d="m118.43,113.52c9.64,1.29,11.86,1.08,21.38-.37-8.92.19-12.22.46-21.19-1.08-.06.49-.13.97-.19,1.45Z"/>
            <path class="cls-3" d="m125.21,106.8c-1.55-8.99-1.68-10.56-.09-19.44-2.82,8.55-2.48,10.63-1.25,19.7.45-.09.9-.17,1.34-.26Z"/>
            <path class="cls-3" d="m131.05,100.01c7.47.79,9.06.06,15.96-2.63-6.72,1.45-8.89,2.24-15.78,1.18-.06.49-.12.97-.18,1.46Z"/>
            <path class="cls-3" d="m138.44,90.96c-.21-9.9-.49-5.16.72-14.22-2.46,8.87-1.71,4.16-2.07,14.18.45.01.9.03,1.35.04Z"/>
            <path class="cls-3" d="m144.24,84.99c5.09-.12,6.2-.27,10.73-2.67-4.47,1.09-6.11,1.4-10.74,1.18,0,.49,0,.99.01,1.49Z"/>
            <path class="cls-3" d="m102.55,142.4c.65,3.36,9.48,7.94,11.65,7.75-1.92-1.33-9.87-4.99-10.22-7.84-.48.03-.95.06-1.43.09Z"/>
            <path class="cls-3" d="m108.11,141.71c3.68-5.09,5.56-5.75,9.34-10-5.15,3.54-6.45,4.13-10.59,9.19.42.27.83.54,1.25.81Z"/>
            <path class="cls-3" d="m115.96,139.96c6.02,4.5,9.04,5.8,16.31,6.85-6.6-2.08-9.79-3.41-15.28-7.82-.34.32-.69.65-1.03.97Z"/>
            <path class="cls-3" d="m126.49,137.62c.01-2.69,8.59-10.37,10.11-11.78-2.75,1.65-11.29,7.42-11.54,11.77.48,0,.96,0,1.43,0Z"/>
            <path class="cls-3" d="m133.93,137c4.77,2.85,7.35,3.59,12.71,3.54-4.92-1.2-7.38-1.67-11.77-4.59-.31.35-.62.69-.94,1.04Z"/>
          </g>
        </g>
        <path class="cls-3" d="m96.99,159.74l2.05,15.8s1.06,17.67,3.51,24.81c2.45,7.14,5.12,7.99,2.94,10.2-2.19,2.21-7.05.72-7.05.72l-1.45-51.53Z"/>
      </g>
    </g>
  </g>
</svg>