<?xml version="1.0" encoding="UTF-8"?>
<svg id="Layer_2" data-name="Layer 2" xmlns="http://www.w3.org/2000/svg" viewBox="0 0 120.12 209.08">
  <defs>
    <style>
      .cls-1 {
        fill: #ff9d00;
      }

      .cls-1, .cls-2, .cls-3 {
        stroke-width: 0px;
      }

      .cls-2 {
        fill: #ff7c0a;
      }

      .cls-3 {
        fill: #c1481d;
        fill-rule: evenodd;
      }
    </style>
  </defs>
  <g id="Layer_1-2" data-name="Layer 1">
    <g id="OBJECTS">
      <g>
        <path class="cls-1" d="m71.1.45c-.03-.15-.05-.3-.08-.45-.19.31-.37.63-.56.94-2.77,4.47-10.76,15.64-26.9,28.64C23.02,46.02-3.38,68.16.36,109.87c4.42,41.46,26.65,50.3,37.63,44.55,10.04-4.94,21.51-1.54,24-.81.13,0,.26,0,.39,0,0,0,0-.01,0-.02.71-.05,1.41-.11,2.12-.16,2.31-1.26,11-5.94,21.75-2.94,12.47,3.22,30.37-8.22,33.46-41.27,3.63-32.89-17.12-53.42-32.7-73.86-12.06-15.69-15.06-29.21-15.84-34.29-.03-.19-.05-.37-.08-.56,0-.02,0-.04.01-.06Z"/>
        <path class="cls-2" d="m71.1.45c-.03-.15-.05-.3-.08-.45-10.48,50.59-13.25,102.36-8.33,153.57.6-.05,1.21-.09,1.81-.14,2.31-1.26,11-5.94,21.75-2.94,12.47,3.22,30.37-8.22,33.46-41.27,3.63-32.89-17.12-53.42-32.7-73.86-12.06-15.69-15.06-29.21-15.84-34.29-.03-.19-.05-.37-.08-.56,0-.02,0-.04.01-.06Z"/>
        <g>
          <path class="cls-3" d="m71.44,208.63c-10.6-57.61-13.53-118.72-5.67-176.91.6-4.53,1.23-8.85,1.83-13.38-1.08,5-.75,3.23-1.66,8.48-10.33,60.2-7.41,122.06,3.17,182.18.78-.12,1.56-.24,2.34-.36Z"/>
          <path class="cls-3" d="m61.86,64.09c6.65-5.43,15.97-13.38,20.82-19.08.2-.28.41-.56.61-.84-6.53,5.63-13.39,12.1-21.28,17.97-.05.65-.11,1.31-.16,1.96Z"/>
          <path class="cls-3" d="m60.98,91.85c8.17-7.36,26.03-18.45,31.9-25.01.24-.32.49-.63.73-.95-8.05,6.93-22.84,15.88-32.58,24-.02.65-.04,1.31-.05,1.96Z"/>
          <path class="cls-3" d="m60.81,118.56c8.23-7.81,30.54-20.62,36.38-27.3.24-.32.48-.65.72-.97-8.14,7.16-27.32,17.69-37.16,26.32.02.65.04,1.3.06,1.96Z"/>
          <path class="cls-3" d="m62.76,145.46c7.84-7.31,35.23-21.65,40.7-27.9.22-.31.44-.61.67-.92-7.73,6.61-32.14,18.08-41.57,26.08.06.91.13,1.82.2,2.73Z"/>
          <path class="cls-3" d="m63.17,50.3c-4.58-5.23-10.59-13.4-13.16-19.21-.1-.28-.2-.55-.3-.83,3.93,6.06,8.19,12.6,13.63,18.44-.06.53-.12,1.07-.17,1.6Z"/>
          <path class="cls-3" d="m61.13,78.42c-7.68-7.67-23.95-21.58-28.35-30.05-.18-.39-.36-.78-.54-1.17,6.52,9.18,19.93,20.54,29,29.26-.04.65-.07,1.31-.11,1.96Z"/>
          <path class="cls-3" d="m60.69,105.13c-8.55-7.24-30.5-21.58-35.63-29.98-.21-.39-.42-.77-.63-1.16,7.39,9.02,26.19,20.96,36.26,29.18v1.96Z"/>
          <path class="cls-3" d="m60.72,137.08c-8.89-5.76-37.54-18.92-43.17-26.47-.23-.35-.47-.7-.7-1.05,7.92,7.76,33.24,18.27,43.69,24.78.06.92.12,1.83.18,2.74Z"/>
        </g>
        <path class="cls-3" d="m64.74,172.38s3.75,17.32,6.7,24.86,4.45,8.74,2.79,10.55c-1.66,1.81-5.13,1.21-5.13,1.21l-4.36-36.61Z"/>
      </g>
    </g>
  </g>
</svg>