<?xml version="1.0" encoding="UTF-8"?>
<svg id="Layer_2" data-name="Layer 2" xmlns="http://www.w3.org/2000/svg" viewBox="0 0 98.97 236.5">
  <defs>
    <style>
      .cls-1 {
        fill: #ffb61a;
      }

      .cls-1, .cls-2, .cls-3 {
        fill-rule: evenodd;
        stroke-width: 0px;
      }

      .cls-2 {
        fill: #f6ce19;
      }

      .cls-3 {
        fill: #f15a24;
      }
    </style>
  </defs>
  <g id="Layer_1-2" data-name="Layer 1">
    <g id="OBJECTS">
      <g>
        <path class="cls-1" d="m52.71,195.34h0c15.84-23.77,45.31-27.25,46.24-71.54.59-21.28-10.52-40.32-20.82-59.86C67.65,44.37,57.98,24.29,57.09,0h0S57.09,0,57.09,0h0S57.09,0,57.09,0c-7.19,24.88-20.35,45.81-33.14,65.25C11.42,84.74-.75,102.74.04,122.84c2.28,41.87,33.36,47.1,52.67,72.51h0Z"/>
        <path class="cls-2" d="m52.71,195.34c-5.45-65.05-3.99-130.52,4.38-195.34.89,24.29,10.56,44.36,21.04,63.94,10.3,19.54,21.41,38.58,20.82,59.86-.93,44.3-30.4,47.77-46.24,71.54h0Z"/>
        <g>
          <path class="cls-3" d="m56.79,234.04c-6.04-58.95-8.73-121.57-4.86-180.92.35-5.4.22-3.33.49-8.49-.56,5.06-.38,3.22-.84,8.5-5.24,60.13-2.76,120.98,2.64,180.66.85.09,1.71.17,2.56.25Z"/>
          <path class="cls-3" d="m49.43,90.64c5.01-7.38,11.48-18.49,14.5-26.01.13-.35.25-.71.38-1.06-4.24,8.06-8.94,16.86-14.82,25.13-.02.65-.04,1.29-.06,1.94Z"/>
          <path class="cls-3" d="m50.36,75.71c-3.43-5.94-7.57-14.75-9.17-20.68-.06-.28-.13-.56-.19-.84,2.52,6.33,5.44,13.3,9.45,19.94-.03.53-.06,1.06-.09,1.58Z"/>
          <path class="cls-3" d="m49.8,115.92c5.31-7.27,20.72-25.39,23.38-32.97.11-.36.23-.71.35-1.07-3.95,8.11-17.54,23.94-23.73,32.09,0,.65,0,1.3,0,1.94Z"/>
          <path class="cls-3" d="m50.36,145.6c5.54-7.15,23.7-27.86,26.28-35.44.11-.35.23-.71.34-1.07-3.94,8.09-20.22,26.54-26.68,34.56.02.65.04,1.3.06,1.94Z"/>
          <path class="cls-3" d="m49.15,100.18c-4.72-7.34-10.38-18.18-12.59-25.45-.09-.34-.18-.69-.26-1.03,3.42,7.77,7.43,16.35,12.92,24.54-.02.65-.04,1.3-.06,1.94Z"/>
          <path class="cls-3" d="m48.89,127.62c-5.64-7.48-21.6-28.57-23.56-35.77-.09-.34-.18-.69-.27-1.03,3.25,7.72,17.36,26.52,23.84,34.86,0,.65,0,1.29-.01,1.94Z"/>
          <path class="cls-3" d="m49.78,156.09c-6.41-7.6-27.45-32.38-29.6-39.57-.11-.34-.21-.69-.32-1.03,3.56,7.73,22.54,30.2,29.88,38.67.01.65.03,1.29.05,1.94Z"/>
          <path class="cls-3" d="m51.36,180.74c-6.67-7.63-25.83-24.55-28.88-31.86-.14-.35-.27-.69-.4-1.04,4.59,7.86,21.47,21.68,29.13,30.19.05.9.1,1.81.15,2.71Z"/>
          <path class="cls-3" d="m50.89,169.02c5.53-7.1,19.32-19.99,22.18-27.46.12-.35.24-.7.36-1.05-4.31,7.95-16.14,18.61-22.64,26.57.04.65.07,1.29.11,1.94Z"/>
        </g>
        <path class="cls-3" d="m52.88,197.38c-.22,0,5.05,33.92,6.19,36.41.91,2.49-3.23,3.92-5.27,1.36-2.22-2.52-2.72-39.84-2.57-39.88.55.7,1.1,1.41,1.65,2.11Z"/>
      </g>
    </g>
  </g>
</svg>