<?xml version="1.0" encoding="UTF-8"?>
<svg id="Layer_2" data-name="Layer 2" xmlns="http://www.w3.org/2000/svg" viewBox="0 0 120.58 209.09">
  <defs>
    <style>
      .cls-1 {
        fill: #f87319;
      }

      .cls-1, .cls-2, .cls-3 {
        fill-rule: evenodd;
        stroke-width: 0px;
      }

      .cls-2 {
        fill: #ff8419;
      }

      .cls-3 {
        fill: #c1481d;
      }
    </style>
  </defs>
  <g id="Layer_1-2" data-name="Layer 1">
    <g id="OBJECTS">
      <g>
        <g>
          <path class="cls-1" d="m52.87.07c-14.67-.71-6.56,15.71-14.8,20.44-4.39,2.49-8.76-1.4-11.54,5.17-2.89,6.57,7.28,10.1,4.45,20.1-2.95,9.99-14.29,5.75-17.5,12.87-3.29,7.12,7.63,11.82,4.98,19.52-2.7,7.68-11.43,2.91-16.66,11.14-5.26,8.2,9.36,14.41,8.39,20.38-.98,5.96-12.97,11.54-9.6,21.59,3.34,10.06,24.16,6.88,24.9,12,.68,5.13-11.08,10.52-7.05,17.25,3.49,6.1,31.88-3.26,29.3,3.12-6.91,14.28,28.36,10.22,19.47,1.28,2.37-8.58,26.28,2.76,30.82-3.3,5.15-6.72-5.83-12.49-4.54-17.66,1.3-5.2,21.84-1.53,26.1-11.83,4.19-10.31-7.64-16.18-8.47-22.28-.85-6.1,13.76-12.53,8.17-20.97-5.64-8.42-14.09-3.43-17.3-11.25-3.24-7.8,7.16-12.8,2.95-20-4.22-7.18-14.85-2.6-19.41-12.61-4.57-9.99,4.78-13.86.42-20.38-4.32-6.5-7.76-2.44-12.73-4.78C64.01,15.44,67.34-1.21,52.87.07h0Z"/>
          <path class="cls-2" d="m119.3,88.89c-5.64-8.42-14.09-3.43-17.3-11.25-3.24-7.8,7.16-12.8,2.95-20-4.22-7.18-14.85-2.6-19.41-12.61-4.57-9.99,4.78-13.86.42-20.38-4.32-6.5-7.76-2.44-12.73-4.78C64.01,15.44,67.34-1.21,52.87.07c-.08,0-.15,0-.23-.01,8.7,56.93,10.11,115.5,4.23,172.96,7.22.04,15.18-3.34,10.35-8.1,2.37-8.58,26.28,2.76,30.82-3.3,5.15-6.72-5.83-12.49-4.54-17.66,1.3-5.2,21.84-1.53,26.1-11.83,4.19-10.31-7.64-16.18-8.47-22.28-.86-6.1,13.76-12.53,8.17-20.97h0Z"/>
          <g>
            <path class="cls-3" d="m54.15,206.23c10.3-56.61,9.81-117.42,2.47-174.67-.56-4.47-1.14-8.71-1.92-13.16.35,4.97.19,3.22.7,8.4,5.73,59.35,6.69,120.47-3.88,179.29.88.04,1.76.09,2.63.13Z"/>
            <path class="cls-3" d="m59.08,63.54c7.41-7.39,16.85-18.45,20.76-25.88.16-.35.32-.7.47-1.05-5.9,7.98-12.64,16.73-21.36,25,.04.64.09,1.29.13,1.93Z"/>
            <path class="cls-3" d="m57.67,48.22c-6.73-5.89-15.79-14.63-20.18-20.52-.18-.28-.37-.56-.55-.84,6.06,6.29,12.69,13.21,20.62,19.78.04.53.07,1.05.11,1.58Z"/>
            <path class="cls-3" d="m61.07,90.92c7.84-7.34,24.26-19.65,28.65-27.12.18-.35.36-.71.54-1.06-6.48,8.01-20.02,18.02-29.25,26.24.02.65.04,1.29.06,1.94Z"/>
            <path class="cls-3" d="m61.96,118.34c8.09-7.28,29.06-20.49,33.99-27.98.2-.35.41-.71.61-1.06-7.06,8.01-25.02,18.94-34.57,27.1,0,.65-.01,1.29-.02,1.94Z"/>
            <path class="cls-3" d="m60.39,147.05c8.17-7.19,35.36-23.52,40.78-31,.22-.35.45-.7.67-1.06-7.57,7.99-31.62,21.3-41.29,29.36-.05.9-.1,1.8-.16,2.7Z"/>
            <path class="cls-3" d="m59.59,73.05c-8.16-7.27-19.27-18.03-24.62-25.27-.22-.34-.44-.69-.67-1.03,7.46,7.73,15.56,16.25,25.22,24.36.02.64.05,1.29.07,1.93Z"/>
            <path class="cls-3" d="m60.32,100.42c-7.94-7.34-25.24-19.37-30.54-26.63-.22-.34-.44-.69-.65-1.03,7.44,7.77,21.74,17.53,31.2,25.72,0,.64,0,1.29,0,1.94Z"/>
            <path class="cls-3" d="m60.36,128.83c-7.52-7.4-28.26-20.54-33.52-27.83-.21-.34-.43-.69-.65-1.03,7.39,7.81,25.24,18.67,34.25,26.93-.03.64-.06,1.29-.09,1.94Z"/>
            <path class="cls-3" d="m58.97,150.76c-7.01-7.42-32.7-23.99-37.96-31.28-.21-.35-.42-.69-.63-1.04,7.36,7.82,30.26,21.32,38.78,29.62-.06.9-.13,1.8-.19,2.7Z"/>
          </g>
        </g>
        <path class="cls-3" d="m55.63,185.44s-3.6,15.91-5.25,18.91c-1.65,3-.8,5.18,1.14,4.65,1.94-.53,2.63-2.77,2.63-2.77l2.98-18.59-1.5-2.2Z"/>
      </g>
    </g>
  </g>
</svg>