<?xml version="1.0" encoding="UTF-8"?>
<svg id="Layer_2" data-name="Layer 2" xmlns="http://www.w3.org/2000/svg" viewBox="0 0 102.29 222.17">
  <defs>
    <style>
      .cls-1 {
        fill: #ff7c0a;
      }

      .cls-1, .cls-2, .cls-3 {
        fill-rule: evenodd;
        stroke-width: 0px;
      }

      .cls-2 {
        fill: #f15a24;
      }

      .cls-3 {
        fill: #ff9d00;
      }
    </style>
  </defs>
  <g id="Layer_1-2" data-name="Layer 1">
    <g id="OBJECTS">
      <g>
        <path class="cls-3" d="m56.66,179.46h0c-21.39-25.75-34.68-14.58-50.08-42.65-4.81-7.48-4.72-17.5-4.71-17.48,0,0,1.68-.64,4.34.92.08.06-6.48-9.08-6.2-20.17,2.65.14,4.13.77,5.21,1.8-3.99-9.56-2.73-18.24-1.74-23.15,3.97-.14,5.27,1.38,8.24,3.74.94.19-2.98-6.09,1.91-20.92,2.18.02,4,.4,7.74,2.4-1.62-7.21,1.53-17.9,4.88-24.48,3.2.61,4.68,1.05,7.34,3.58-.39-13.08,6-17.85,11.06-24.68,2.84,1.04,4,1.96,6.23,4.7,0,.01-2.1-2.7,1.37-7.76,3.49-5,3.9-6.1,10.93-12.72,1.01-.94,1.93-1.81,2.75-2.61h0c.3,1.11.65,2.32,1.07,3.62,2.94,9.09,2.9,10.12,3.86,15.95,1.01,5.78-1.91,7.28-1.92,7.29,3.13-1.52,4.56-1.82,7.57-1.57,2.14,9.14,7.57,17.02,1.89,24.71,3.28-1.38,4.82-1.29,8.04-.86,1.21,6.39,1.71,15.78-1.2,21.49,4.04-.95,5.91-.88,8.04-.47,2.03,12.77-2.2,17.28-1.33,17.29,3.22-1.59,4.7-2.63,8.61-2.03.37,4.02.74,10.77-3.56,18.25,1.12-.79,2.61-1.23,5.27-1.23-.19,8.58-6.32,16.01-6.25,16.02,2.6-1.35,4.31-.88,4.31-.88-.01.02.43,7.78-3.55,14.22-11.24,24.98-26.71,17.48-40.14,47.66h0Z"/>
        <path class="cls-1" d="m85.26,70.64c2.91-5.71,2.41-15.1,1.2-21.49-3.22-.43-4.77-.52-8.04.86,5.68-7.69.26-15.58-1.89-24.71-3.01-.25-4.44.05-7.57,1.57,0,0,2.93-1.51,1.92-7.29-.97-5.83-.92-6.86-3.86-15.95-.36-1.2-.72-2.41-1.07-3.62-16.04,58.62-19.13,119.84-9.29,179.46,13.43-30.18,28.9-22.68,40.14-47.66,3.98-6.44,3.54-14.2,3.55-14.22,0,0-1.71-.47-4.31.88-.07,0,6.07-7.44,6.25-16.02-2.66,0-4.15.44-5.27,1.23,4.31-7.49,3.93-14.23,3.56-18.25-3.92-.6-5.4.43-8.61,2.03-.87-.01,3.36-4.53,1.33-17.29-2.13-.4-4-.48-8.04.48h0Z"/>
        <g>
          <path class="cls-2" d="m67.13,221.6c-15.4-59.7-19.78-124.16-9.67-185.26.78-4.75,1.59-9.28,2.4-14.04-1.32,5.22-.91,3.37-2.06,8.86-12.92,63.13-8.65,128.58,6.93,191,.8-.19,1.6-.37,2.4-.56Z"/>
          <path class="cls-2" d="m63.36,204.97c1.36,3.95,2.75,7.95,5.09,11.41.59.87,1.27,1.86.98,2.87-.16.57-1.67,2.06-2.3,2.36-.26.12-1.26.43-1.55.36-.46-.11-.54-.69-.69-1.14-.31-.93-.59-1.87-.73-2.83-.12-.85-.13-1.71-.19-2.57-.24-3.29-1.32-6.44-2.42-9.55-1.07-3.02-2.17-6.16-1.88-9.35.07-.77.22-1.56.08-2.33-.05-.27-.09-.52-.02-.78.52.31.66,2.11.82,2.72.27,1,.56,2,.86,2.99.61,1.96,1.28,3.9,1.94,5.84Z"/>
          <path class="cls-2" d="m52.65,70.34c7.13-7.23,17.29-17.35,22.71-24.04.23-.32.46-.65.69-.97-7.22,6.96-14.73,15.01-23.21,22.94-.06.69-.13,1.37-.19,2.06Z"/>
          <path class="cls-2" d="m54.26,53.99c-4.37-7.02-9.87-17.86-11.98-25.13-.08-.34-.16-.68-.24-1.01,3.43,7.98,7.27,16.5,12.46,24.47-.08.56-.16,1.12-.24,1.68Z"/>
          <path class="cls-2" d="m51.62,99.53c6.6-7.76,21.23-19.37,26.18-26.2.21-.33.41-.66.62-.99-6.74,7.23-18.87,16.6-26.76,25.14-.02.69-.03,1.37-.05,2.06Z"/>
          <path class="cls-2" d="m52.62,128.67c6.03-8.24,22.9-21.78,27.4-28.8.18-.34.37-.68.55-1.02-6.25,7.53-20.78,18.66-28.05,27.76.03.69.06,1.37.1,2.06Z"/>
          <path class="cls-2" d="m54.77,159.14c5.35-8.79,25.5-27.1,29.59-34.2.16-.35.32-.7.49-1.04-5.79,7.74-23.84,22.68-30.4,32.38.11.96.22,1.91.33,2.87Z"/>
          <path class="cls-2" d="m51.81,80.46c-5.89-8.2-13.36-21.08-16.38-29.88-.12-.41-.23-.82-.35-1.23,4.68,9.58,9.96,19.75,16.9,29.06-.06.69-.11,1.37-.17,2.06Z"/>
          <path class="cls-2" d="m50.78,109.63c-6.46-7.7-19.85-21.62-23.42-30.36-.15-.41-.29-.81-.44-1.22,5.28,9.41,16.3,20.78,23.88,29.51,0,.69-.02,1.37-.03,2.06Z"/>
          <path class="cls-2" d="m52.2,139.87c-7.01-7.16-24.46-21.13-28.61-29.69-.17-.4-.35-.79-.52-1.19,5.91,9.11,20.8,20.7,29,28.82.04.69.08,1.37.12,2.06Z"/>
          <path class="cls-2" d="m54.28,163.21c-7.44-6.65-30.39-23.07-34.9-31.64-.19-.39-.38-.78-.57-1.18,6.31,9.01,26.48,22.36,35.13,29.94.11.96.23,1.91.34,2.87Z"/>
        </g>
      </g>
    </g>
  </g>
</svg>