<?xml version="1.0" encoding="UTF-8"?>
<svg id="Layer_2" data-name="Layer 2" xmlns="http://www.w3.org/2000/svg" viewBox="0 0 1366 161.09">
  <defs>
    <style>
      .cls-1 {
        fill: #fff;
        stroke-width: 0px;
      }
    </style>
  </defs>
  <g id="Layer_1-2" data-name="Layer 1">
    <path class="cls-1" d="m1322,131.09c-41.44-18.69-100-14-100-14-62.3,4.99-98.52,23.17-132,33-141.17,41.47-201.4-74.82-384-48-37.61,5.52-58.82,13.95-99,9-72.2-8.89-95.96-47.47-156.33-77.72-122.35-61.32-268.75-25.15-327.67,5.72C61.14,71.5,2,126.97,2,126.97c-.86.8-1.55,1.46-2,1.88v32.24h1366v-1.72c-.88-.78-2.27-1.99-4-3.43,0,0-17.93-14.9-40-24.85Z"/>
  </g>
</svg>